<svg width="458" height="137" viewBox="0 0 458 137" fill="none" xmlns="http://www.w3.org/2000/svg">
<g clip-path="url(#clip0_304_60408)">
<path d="M46.1441 43.2124L19.1978 16.3508C14.8118 11.9786 7.68542 11.9786 3.29149 16.3508C-1.09456 20.731 -1.09456 27.827 3.29149 32.2071L19.1978 48.0556L30.2378 59.0608L19.6152 69.65L3.70884 85.5063C-0.677216 89.8786 -0.677216 96.9825 3.70884 101.363C8.10277 105.735 15.2212 105.735 19.6152 101.363L35.5215 85.5063L46.1441 74.9171L53.176 67.9074C58.0738 63.0249 58.0738 55.1046 53.176 50.2221L46.1441 43.2124Z" fill="url(#paint0_linear_304_60408)"/>
<path d="M55.7588 75.5686L82.7051 48.707C87.0911 44.3348 94.2175 44.3348 98.6114 48.707C102.997 53.0872 102.997 60.1832 98.6114 64.5634L82.7051 80.4118L71.6651 91.417L82.2877 102.006L98.1862 117.862C102.572 122.235 102.572 129.339 98.1862 133.719C93.7922 138.091 86.6738 138.091 82.2798 133.719L66.3735 117.862L55.7509 107.273L48.719 100.264C43.8212 95.3811 43.8212 87.4608 48.719 82.5783L55.7509 75.5686H55.7588Z" fill="url(#paint1_linear_304_60408)"/>
<path d="M267.533 123.145C267.738 126.269 267.022 128.938 264.494 130.909C262.415 132.534 259.99 133.436 257.446 133.946C249.785 135.493 242.091 135.932 234.398 134.198C227.949 132.745 222.137 129.998 217.421 125.288C212.231 120.115 209.979 113.867 210.727 106.567C211.326 100.75 213.428 95.5773 217.468 91.2679C220.988 87.5157 225.295 85.0117 230.185 83.4653C235.374 81.8248 240.705 81.1811 246.123 81.5814C251.635 81.9896 256.848 83.4261 261.525 86.4639C264.699 88.5284 267.282 91.1344 268.841 94.6275C269.888 96.9824 270.4 99.4551 270.195 102.045C269.951 105.091 268.463 107.352 265.809 108.875C263.368 110.272 260.691 110.963 257.958 111.441C252.013 112.493 246.013 112.721 239.989 112.745C235.831 112.76 231.673 112.745 227.516 112.745C227.264 112.745 227.012 112.729 226.76 112.752C225.334 112.909 224.705 113.796 225.082 115.178C225.886 118.153 227.705 120.429 230.154 122.219C233.154 124.417 236.579 125.61 240.201 126.309C243.509 126.952 246.84 126.937 250.178 126.819C254.533 126.67 258.84 126.128 263.006 124.817C264.494 124.346 265.943 123.726 267.533 123.13V123.145ZM236.485 106.174C240.398 106.127 244.997 106.127 249.556 105.452C251.462 105.17 253.328 104.746 255.013 103.749C256.328 102.972 257.234 101.865 257.399 100.326C257.714 97.4063 256.746 94.9572 254.446 93.0812C252.911 91.8252 251.107 91.0873 249.21 90.5771C246.257 89.7764 243.241 89.6587 240.217 89.8157C237.044 89.9805 234.067 90.8754 231.414 92.6102C227.193 95.3811 224.697 99.1332 224.933 104.369C224.964 105.17 225.311 105.688 226.02 105.955C226.421 106.104 226.878 106.167 227.303 106.167C230.138 106.182 232.973 106.174 236.485 106.174Z" fill="#252382"/>
<path d="M405.824 94.6512C405.635 92.2492 406.367 90.2396 407.84 88.497C409.478 86.5503 411.596 85.2708 413.919 84.321C417.155 83.0023 420.549 82.3664 424.006 82.0289C429.558 81.4873 435.078 81.6835 440.534 82.9002C443.314 83.5203 445.976 84.4623 448.433 85.9302C453.275 88.8267 456.205 93.0812 457.299 98.5524C457.693 100.538 457.89 102.587 457.945 104.612C458.039 108.655 457.992 112.698 457.968 116.74C457.937 121.819 455.897 125.956 451.968 129.182C448.574 131.961 444.629 133.593 440.346 134.276C432.369 135.548 424.408 135.43 416.573 133.271C412.919 132.267 409.564 130.65 406.761 128.051C404.651 126.097 403.17 123.75 402.8 120.861C402.186 116.081 404.013 112.36 407.911 109.589C410.785 107.548 414.061 106.457 417.439 105.649C423.415 104.22 429.51 103.867 435.621 103.788C437.826 103.765 440.031 103.812 442.235 103.757C442.771 103.741 443.346 103.537 443.802 103.262C444.094 103.082 444.354 102.611 444.369 102.257C444.456 100.342 444.346 98.4347 443.574 96.6293C442.716 94.6041 441.283 93.1362 439.322 92.1471C436.826 90.8833 434.133 90.4123 431.384 90.271C425.927 89.9885 420.494 90.1141 415.132 91.3151C412.013 92.0137 409.005 93.0027 406.202 94.5413C406.123 94.5805 405.942 94.6512 405.816 94.659L405.824 94.6512ZM435.967 110.5C435.558 110.507 435.148 110.5 434.739 110.507C431.054 110.57 427.368 110.704 423.77 111.646C422.266 112.038 420.841 112.611 419.573 113.514C416.313 115.822 416.454 120.406 418.218 122.659C419.675 124.511 421.636 125.5 423.809 126.12C427.439 127.157 431.148 127.196 434.865 126.803C436.526 126.631 438.141 126.183 439.645 125.422C442.503 123.977 444.243 121.725 444.472 118.506C444.621 116.387 444.535 114.244 444.558 112.117C444.558 111.559 444.298 111.112 443.826 110.892C443.354 110.68 442.818 110.523 442.306 110.507C440.196 110.468 438.086 110.492 435.975 110.492L435.967 110.5Z" fill="#252382"/>
<path d="M182.545 68.0408C182.285 71.1963 181.466 73.9123 178.718 75.6549C177.521 76.4085 176.174 76.7382 174.789 76.8638C173.82 76.9501 172.844 76.9815 171.867 76.9815C163.552 76.9894 155.244 76.9815 146.929 76.9815C146.645 76.9815 146.362 76.9658 146.078 77.0051C145.023 77.1542 144.472 77.7822 144.472 78.8497C144.472 83.8343 144.472 88.8188 144.472 93.8033C144.472 94.8395 145.055 95.491 146.102 95.6323C146.409 95.6715 146.732 95.6558 147.047 95.6558C157.599 95.6558 168.143 95.6558 178.694 95.6558H179.797C179.986 100.633 177.592 104.196 173.174 104.518C172.292 104.581 171.418 104.652 170.536 104.659C162.693 104.667 154.858 104.659 147.015 104.659C146.763 104.659 146.511 104.652 146.26 104.659C145.11 104.73 144.48 105.374 144.48 106.52C144.48 113.286 144.409 120.06 144.511 126.827C144.551 129.668 143.275 131.45 140.81 132.573C138.613 133.578 136.283 134.064 133.905 134.386C132.881 134.519 131.849 134.614 130.692 134.731V133.648C130.692 114.683 130.731 95.7265 130.66 76.7617C130.645 72.5229 132.96 70.2701 136.243 69.1083C138.55 68.2919 140.952 68.0172 143.393 68.0172C154.291 68.0172 165.182 68.0172 176.08 68.0172C177.875 68.0172 179.671 68.0172 181.466 68.0172C181.773 68.0172 182.088 68.0172 182.561 68.0172L182.545 68.0408Z" fill="#252382"/>
<path d="M335.159 134.739C335.049 134.818 334.805 134.818 334.694 134.818C330.111 134.739 325.544 134.574 321.048 133.609C319.906 133.366 318.772 133.004 317.67 132.604C316.426 132.157 315.371 131.403 314.457 130.43C310.662 126.387 306.843 122.368 303.031 118.349C301.535 116.771 299.968 116.771 298.464 118.349C294.716 122.305 290.952 126.238 287.251 130.226C285.936 131.639 284.377 132.534 282.558 133.099C279.605 134.017 276.558 134.378 273.494 134.606C272.227 134.7 270.959 134.747 269.455 134.826C269.801 134.425 269.99 134.19 270.203 133.97C277.652 126.199 285.101 118.436 292.558 110.672C292.787 110.437 293.023 110.209 293.22 109.95C293.755 109.259 293.771 108.584 293.212 107.901C292.739 107.32 292.204 106.795 291.684 106.253C284.55 98.7251 277.416 91.1972 270.29 83.6694C270.116 83.4889 269.967 83.2848 269.809 83.0964C269.778 82.9708 269.943 82.9473 269.99 82.9473C274.274 82.9787 278.558 82.9787 282.778 83.8264C286.251 84.525 289.204 86.1499 291.629 88.7246C294.401 91.6682 297.173 94.6118 299.945 97.5555C300.149 97.7674 300.346 97.9793 300.559 98.1834C301.74 99.3216 303.315 99.353 304.488 98.1991C305.764 96.9432 306.984 95.6244 308.228 94.3293C310.473 92.0058 312.709 89.6823 314.953 87.3588C317.717 84.5093 321.174 83.2691 325.08 83.1199C327.166 83.0415 329.261 82.9865 331.356 82.9237C331.576 82.9237 331.844 82.9237 332.175 82.9708C331.899 83.3005 331.734 83.5203 331.545 83.7165C324.552 91.0638 317.552 98.4032 310.559 105.75C309.544 106.818 309.551 107.532 310.575 108.616C318.56 117.085 326.552 125.555 334.537 134.025C334.726 134.229 334.907 134.449 335.159 134.739Z" fill="#252382"/>
<path d="M338.191 82.9159C338.687 82.9159 338.97 82.9159 339.254 82.9159C343.301 83.0101 347.364 83.0023 351.357 83.8186C354.861 84.5408 357.822 86.2049 360.255 88.811C363.082 91.8331 365.98 94.7925 368.751 97.8695C369.995 99.2511 371.948 99.4237 373.413 97.8381C376.46 94.5334 379.626 91.3229 382.728 88.0731C385.414 85.263 388.556 83.3791 392.564 83.2221C395.107 83.12 397.658 83.0101 400.202 82.9081C400.32 82.9081 400.509 82.9238 400.674 82.9944C400.462 83.2535 400.312 83.4576 400.147 83.6302C393.178 90.954 386.209 98.2699 379.24 105.594C379.169 105.664 379.098 105.735 379.035 105.806C378.075 106.842 378.067 107.485 379.012 108.506C380.319 109.911 381.65 111.308 382.973 112.705C389.642 119.77 396.304 126.843 402.974 133.907C403.194 134.135 403.399 134.378 403.643 134.661C403.501 134.731 403.422 134.802 403.352 134.802C398.776 134.739 394.201 134.582 389.705 133.625C388.626 133.397 387.563 133.06 386.508 132.714C385.154 132.267 383.996 131.497 383.012 130.453C379.374 126.584 375.712 122.722 372.066 118.859C371.822 118.6 371.578 118.334 371.318 118.082C370.066 116.866 368.452 116.85 367.239 118.106C365.491 119.911 363.783 121.748 362.058 123.569C359.885 125.869 357.703 128.153 355.546 130.469C354.499 131.592 353.239 132.361 351.79 132.863C348.679 133.954 345.443 134.339 342.175 134.59C341.065 134.677 339.955 134.716 338.844 134.771C338.632 134.779 338.419 134.755 338.065 134.731C338.293 134.457 338.411 134.284 338.561 134.127C346.097 126.27 353.64 118.412 361.184 110.555C361.271 110.46 361.365 110.366 361.452 110.272C362.365 109.259 362.381 108.545 361.436 107.548C359.341 105.311 357.223 103.097 355.113 100.876C349.593 95.0515 344.081 89.2349 338.561 83.4105C338.474 83.3163 338.332 83.1514 338.175 82.9081L338.191 82.9159Z" fill="#252382"/>
<path d="M201.184 68.0251V69.3988C201.184 85.3493 201.184 101.3 201.184 117.25C201.184 119.393 201.404 121.505 202.199 123.522C203.593 127.047 206.081 129.574 209.452 131.223C211.082 132.015 212.822 132.589 214.523 133.24C214.932 133.397 215.452 133.444 215.334 134.056C215.232 134.606 214.814 134.834 214.287 134.81C212.491 134.747 210.696 134.716 208.908 134.582C205.192 134.315 201.546 133.664 198.034 132.369C195.703 131.513 193.585 130.304 191.774 128.593C188.899 125.877 187.695 122.415 187.403 118.577C187.356 117.98 187.356 117.384 187.356 116.795C187.356 103.411 187.356 90.0355 187.356 76.6519C187.356 76.4007 187.356 76.1495 187.364 75.8983C187.466 73.2765 188.608 71.267 190.963 70.0268C194.12 68.3626 197.561 68.1507 201.168 68.0094L201.184 68.0251Z" fill="#252382"/>
<path d="M457.992 46.5327V19.9694C451.574 19.9694 445.149 19.9537 438.723 19.9694C437.842 19.9694 436.96 20.0401 436.093 20.1657C430.873 20.9349 426.857 23.4939 424.329 28.1802C422.982 30.6842 422.376 33.4081 422.297 36.2261C422.226 38.8008 422.274 41.3754 422.266 43.9501C422.266 46.619 422.274 49.2879 422.266 51.9568C422.258 53.2127 421.589 53.8642 420.337 53.8878H420.242C416.281 53.8878 412.313 53.8878 408.344 53.8799C407.068 53.8799 406.415 53.2363 406.391 51.9882V0.722091C406.029 0.75349 405.777 0.74564 405.533 0.808437C402.777 1.45211 400.469 2.8258 398.69 5.04725C396.761 7.45709 396.02 10.2516 396.02 13.2972C396.028 25.9744 396.02 38.6595 396.02 51.3445C396.02 51.6271 396.036 51.9097 396.02 52.1923C395.965 53.1735 395.32 53.8642 394.343 53.8721C393.469 53.8721 392.595 53.8878 391.721 53.8878H390.76C389.453 53.8878 388.327 53.927 387.067 53.511C384.965 52.8438 383.091 51.5957 381.634 49.7746C381.012 48.9975 380.531 48.1261 380.146 47.2156C379.098 44.7351 378.705 42.1212 378.642 39.4523C378.594 37.066 378.657 34.6797 378.626 32.2934C378.61 31.2023 378.579 30.0955 378.413 29.0122C378.027 26.5161 376.909 24.5065 374.397 23.5253C372.893 22.9366 371.358 22.7953 369.783 22.7796C369.09 22.7796 368.389 22.7953 367.68 22.8032V23.91C367.68 29.8443 367.68 35.7786 367.68 41.713C367.673 42.702 367.625 43.6832 367.523 44.6645C367.074 49.0681 364.436 52.0588 360.121 53.1107C357.735 53.6994 355.325 53.8878 352.892 53.8642C352.278 53.8642 351.664 53.8721 351.05 53.8485C350.475 53.8328 349.924 53.5581 349.609 53.0793C349.364 52.7025 349.333 52.3257 349.333 51.9489V51.8704C349.333 51.7605 349.333 51.6506 349.333 51.5407V50.1043C349.333 47.0272 349.333 43.958 349.333 40.8888C349.333 39.8134 349.333 38.738 349.333 37.6626C349.333 36.6343 349.294 35.5903 349.175 34.5698C348.183 26.1314 341.892 20.3462 333.372 20.15C328.458 20.0401 323.544 20.1107 318.631 20.1029C318.316 20.095 318.001 20.1186 317.686 20.0872C316.709 19.9773 316.087 19.3258 316.064 18.3367C316.04 17.5831 316.032 16.8296 316.087 16.076C316.331 12.4573 318.583 9.81199 322.04 9.12907C322.836 8.97208 323.67 8.94853 324.481 8.93283C327.411 8.89358 330.348 8.97993 333.269 8.84648C337.71 8.65809 341.585 5.1179 342.27 0.690692H341.34C336.08 0.690692 330.82 0.674993 325.56 0.706392C324.237 0.714241 322.906 0.769189 321.607 0.957581C317.631 1.53846 314.221 3.20258 311.646 6.35814C309.15 9.42736 308.016 13.0068 307.945 16.9002C307.874 21.2018 307.921 25.5034 307.929 29.8051C307.929 30.0484 307.929 30.2446 307.929 30.5979H332.616C336.175 30.5979 338.758 33.1333 338.773 36.6892C338.797 41.8072 338.773 46.9252 338.773 52.0431C338.773 53.4325 338.128 53.8799 336.742 53.8878C334.883 53.8878 333.009 53.8956 331.151 53.8878C320.166 53.8328 309.213 53.9427 298.228 53.8878C298.071 53.8878 297.913 53.8956 297.756 53.8799C296.952 53.7936 296.307 53.1499 296.22 52.3414C296.188 52.0274 296.212 51.7134 296.212 51.3995V20.1186C296.078 20.1107 295.944 20.1264 295.818 20.1421C295.692 20.1578 295.551 20.1657 295.417 20.2049C292.275 20.9114 289.739 22.5441 287.881 25.1738C286.306 27.4031 285.645 29.9228 285.645 32.6231V51.3681C285.645 51.6506 285.66 51.9332 285.637 52.2158C285.574 53.1813 284.912 53.8721 283.936 53.8799C280.156 53.8956 276.376 53.8956 272.597 53.8799C271.612 53.8799 270.959 53.2049 270.888 52.2315C270.864 51.9175 270.88 51.6035 270.88 51.2896V20.1186C270.549 20.1343 270.297 20.1657 270.069 20.2128C268.069 20.6602 266.258 21.5001 264.699 22.8346C261.777 25.3465 260.352 28.557 260.336 32.3719C260.305 38.8714 260.336 45.3709 260.328 51.8704C260.328 53.252 259.691 53.8799 258.305 53.8878C257.171 53.8956 256.037 53.8878 254.903 53.8878C252.383 53.8878 249.863 53.8956 247.343 53.8799C246.202 53.8799 245.548 53.2049 245.501 52.0667C245.485 51.8233 245.493 51.5643 245.493 51.3131V20.1264C244.367 20.1814 243.233 20.5817 242.209 21.037C241.272 21.453 240.382 21.9868 239.587 22.6305C238.792 23.2741 238.067 24.0434 237.453 24.8755C237.107 25.3465 236.8 25.841 236.516 26.3512C235.382 28.4157 235.059 30.6607 235.059 32.9842C235.067 39.1069 235.059 45.2296 235.059 51.3524C235.059 51.6349 235.075 51.9175 235.051 52.2001C234.981 53.2284 234.327 53.8799 233.28 53.8799C230.256 53.8878 227.232 53.927 224.208 53.8564C221.484 53.7936 219.334 51.9882 218.814 49.4292C218.688 48.7855 218.688 48.1183 218.688 47.4589C218.681 32.2306 218.681 17.0023 218.681 1.77394V0.706392C217.397 0.73779 216.121 1.19307 214.987 1.75825C214.413 2.04868 213.861 2.38622 213.342 2.763C211.657 3.97185 210.286 5.61242 209.412 7.48064C208.751 8.88573 208.42 10.3693 208.271 11.8764C208.184 12.7242 208.152 13.5798 208.152 14.4354V47.1842C208.152 52.0431 209.113 56.5645 212.751 60.089C216.728 63.9354 221.72 64.4063 226.972 64.4063C244.682 64.422 262.384 64.3985 280.085 64.4142H358.074C359.822 64.2964 361.578 64.0766 363.294 63.6842C366.822 62.8678 370.027 61.4392 372.744 59.0058C373.413 58.4092 373.917 58.1423 374.437 58.1973C374.523 58.2051 374.61 58.2287 374.696 58.2601C375.051 58.3621 375.421 58.6054 375.862 59.0058C378.579 61.4392 381.783 62.8678 385.303 63.6842C386.996 64.0766 388.697 64.2964 390.422 64.4142C390.422 64.4142 401.029 64.4142 401.029 64.4063H401.218C414.407 64.4142 427.605 64.4142 440.802 64.4142C443.243 64.4142 445.645 64.1159 447.929 63.2367C449.803 62.5146 451.567 61.4941 453.055 60.1361C454.464 58.8488 455.583 57.2788 456.386 55.5519C457.315 53.5503 457.961 51.266 457.992 49.0524C458.008 48.2125 457.992 47.3726 457.992 46.5327ZM447.535 46.9958C447.535 47.8671 447.448 48.7541 447.251 49.6019C446.645 52.2001 444.566 53.8407 441.881 53.8799C439.487 53.9113 437.093 53.8956 434.7 53.8799C433.495 53.8799 432.865 53.2284 432.825 52.0117V44.0129C432.825 41.5638 432.833 39.1226 432.825 36.6735C432.818 35.3862 433.125 34.193 433.755 33.0784C434.684 31.4378 436.117 30.5429 437.975 30.4958C440.59 30.4252 443.196 30.4566 445.81 30.4801C446.763 30.488 447.385 31.0846 447.519 32.0344C447.559 32.3091 447.551 32.5995 447.551 32.8743C447.551 37.5841 447.566 42.286 447.535 46.9958Z" fill="black"/>
<path d="M457.992 46.5327V19.9694C451.574 19.9694 445.149 19.9537 438.723 19.9694C437.842 19.9694 436.96 20.0401 436.093 20.1657C430.873 20.9349 426.857 23.4939 424.329 28.1802C422.982 30.6842 422.376 33.4081 422.297 36.2261C422.226 38.8008 422.274 41.3754 422.266 43.9501C422.266 46.619 422.274 49.2879 422.266 51.9568C422.258 53.2127 421.589 53.8642 420.337 53.8878H420.242C416.281 53.8878 412.313 53.8878 408.344 53.8799C407.068 53.8799 406.415 53.2363 406.391 51.9882V0.722091C406.029 0.75349 405.777 0.74564 405.533 0.808437C402.777 1.45211 400.469 2.8258 398.69 5.04725C396.761 7.45709 396.02 10.2516 396.02 13.2972C396.028 25.9744 396.02 38.6595 396.02 51.3445C396.02 51.6271 396.036 51.9097 396.02 52.1923C395.965 53.1735 395.32 53.8642 394.343 53.8721C393.469 53.8721 392.595 53.8878 391.721 53.8878H390.76C389.453 53.8878 388.327 53.927 387.067 53.511C384.965 52.8438 383.091 51.5957 381.634 49.7746C381.012 48.9975 380.531 48.1261 380.146 47.2156C379.098 44.7351 378.705 42.1212 378.642 39.4523C378.594 37.066 378.657 34.6797 378.626 32.2934C378.61 31.2023 378.579 30.0955 378.413 29.0122C378.027 26.5161 376.909 24.5065 374.397 23.5253C372.893 22.9366 371.358 22.7953 369.783 22.7796C369.09 22.7796 368.389 22.7953 367.68 22.8032V23.91C367.68 29.8443 367.68 35.7786 367.68 41.713C367.673 42.702 367.625 43.6832 367.523 44.6645C367.074 49.0681 364.436 52.0588 360.121 53.1107C357.735 53.6994 355.325 53.8878 352.892 53.8642C352.278 53.8642 351.664 53.8721 351.05 53.8485C350.475 53.8328 349.924 53.5581 349.609 53.0793C349.364 52.7025 349.333 52.3257 349.333 51.9489V51.8704C349.333 51.7605 349.333 51.6506 349.333 51.5407V50.1043C349.333 47.0272 349.333 43.958 349.333 40.8888C349.333 39.8134 349.333 38.738 349.333 37.6626C349.333 36.6343 349.294 35.5903 349.175 34.5698C348.183 26.1314 341.892 20.3462 333.372 20.15C328.458 20.0401 323.544 20.1107 318.631 20.1029C318.316 20.095 318.001 20.1186 317.686 20.0872C316.709 19.9773 316.087 19.3258 316.064 18.3367C316.04 17.5831 316.032 16.8296 316.087 16.076C316.331 12.4573 318.583 9.81199 322.04 9.12907C322.836 8.97208 323.67 8.94853 324.481 8.93283C327.411 8.89358 330.348 8.97993 333.269 8.84648C337.71 8.65809 341.585 5.1179 342.27 0.690692H341.34C336.08 0.690692 330.82 0.674993 325.56 0.706392C324.237 0.714241 322.906 0.769189 321.607 0.957581C317.631 1.53846 314.221 3.20258 311.646 6.35814C309.15 9.42736 308.016 13.0068 307.945 16.9002C307.874 21.2018 307.921 25.5034 307.929 29.8051C307.929 30.0484 307.929 30.2446 307.929 30.5979H332.616C336.175 30.5979 338.758 33.1333 338.773 36.6892C338.797 41.8072 338.773 46.9252 338.773 52.0431C338.773 53.4325 338.128 53.8799 336.742 53.8878C334.883 53.8878 333.009 53.8956 331.151 53.8878C320.166 53.8328 309.213 53.9427 298.228 53.8878C298.071 53.8878 297.913 53.8956 297.756 53.8799C296.952 53.7936 296.307 53.1499 296.22 52.3414C296.188 52.0274 296.212 51.7134 296.212 51.3995V20.1186C296.078 20.1107 295.944 20.1264 295.818 20.1421C295.692 20.1578 295.551 20.1657 295.417 20.2049C292.275 20.9114 289.739 22.5441 287.881 25.1738C286.306 27.4031 285.645 29.9228 285.645 32.6231V51.3681C285.645 51.6506 285.66 51.9332 285.637 52.2158C285.574 53.1813 284.912 53.8721 283.936 53.8799C280.156 53.8956 276.376 53.8956 272.597 53.8799C271.612 53.8799 270.959 53.2049 270.888 52.2315C270.864 51.9175 270.88 51.6035 270.88 51.2896V20.1186C270.549 20.1343 270.297 20.1657 270.069 20.2128C268.069 20.6602 266.258 21.5001 264.699 22.8346C261.777 25.3465 260.352 28.557 260.336 32.3719C260.305 38.8714 260.336 45.3709 260.328 51.8704C260.328 53.252 259.691 53.8799 258.305 53.8878C257.171 53.8956 256.037 53.8878 254.903 53.8878C252.383 53.8878 249.863 53.8956 247.343 53.8799C246.202 53.8799 245.548 53.2049 245.501 52.0667C245.485 51.8233 245.493 51.5643 245.493 51.3131V20.1264C244.367 20.1814 243.233 20.5817 242.209 21.037C241.272 21.453 240.382 21.9868 239.587 22.6305C238.792 23.2741 238.067 24.0434 237.453 24.8755C237.107 25.3465 236.8 25.841 236.516 26.3512C235.382 28.4157 235.059 30.6607 235.059 32.9842C235.067 39.1069 235.059 45.2296 235.059 51.3524C235.059 51.6349 235.075 51.9175 235.051 52.2001C234.981 53.2284 234.327 53.8799 233.28 53.8799C230.256 53.8878 227.232 53.927 224.208 53.8564C221.484 53.7936 219.334 51.9882 218.814 49.4292C218.688 48.7855 218.688 48.1183 218.688 47.4589C218.681 32.2306 218.681 17.0023 218.681 1.77394V0.706392C217.397 0.73779 216.121 1.19307 214.987 1.75825C214.413 2.04868 213.861 2.38622 213.342 2.763C211.657 3.97185 210.286 5.61242 209.412 7.48064C208.751 8.88573 208.42 10.3693 208.271 11.8764C208.184 12.7242 208.152 13.5798 208.152 14.4354V47.1842C208.152 52.0431 209.113 56.5645 212.751 60.089C216.728 63.9354 221.72 64.4063 226.972 64.4063C244.682 64.422 262.384 64.3985 280.085 64.4142H358.074C359.822 64.2964 361.578 64.0766 363.294 63.6842C366.822 62.8678 370.027 61.4392 372.744 59.0058C373.413 58.4092 373.917 58.1423 374.437 58.1973C374.523 58.2051 374.61 58.2287 374.696 58.2601C375.051 58.3621 375.421 58.6054 375.862 59.0058C378.579 61.4392 381.783 62.8678 385.303 63.6842C386.996 64.0766 388.697 64.2964 390.422 64.4142C390.422 64.4142 401.029 64.4142 401.029 64.4063H401.218C414.407 64.4142 427.605 64.4142 440.802 64.4142C443.243 64.4142 445.645 64.1159 447.929 63.2367C449.803 62.5146 451.567 61.4941 453.055 60.1361C454.464 58.8488 455.583 57.2788 456.386 55.5519C457.315 53.5503 457.961 51.266 457.992 49.0524C458.008 48.2125 457.992 47.3726 457.992 46.5327ZM447.535 46.9958C447.535 47.8671 447.448 48.7541 447.251 49.6019C446.645 52.2001 444.566 53.8407 441.881 53.8799C439.487 53.9113 437.093 53.8956 434.7 53.8799C433.495 53.8799 432.865 53.2284 432.825 52.0117V44.0129C432.825 41.5638 432.833 39.1226 432.825 36.6735C432.818 35.3862 433.125 34.193 433.755 33.0784C434.684 31.4378 436.117 30.5429 437.975 30.4958C440.59 30.4252 443.196 30.4566 445.81 30.4801C446.763 30.488 447.385 31.0846 447.519 32.0344C447.559 32.3091 447.551 32.5995 447.551 32.8743C447.551 37.5841 447.566 42.286 447.535 46.9958Z" fill="url(#paint2_linear_304_60408)"/>
<path d="M440.983 13.5799C444.745 13.5799 447.795 10.5399 447.795 6.78995C447.795 3.03996 444.745 0 440.983 0C437.222 0 434.172 3.03996 434.172 6.78995C434.172 10.5399 437.222 13.5799 440.983 13.5799Z" fill="black"/>
<path d="M440.983 13.5799C444.745 13.5799 447.795 10.5399 447.795 6.78995C447.795 3.03996 444.745 0 440.983 0C437.222 0 434.172 3.03996 434.172 6.78995C434.172 10.5399 437.222 13.5799 440.983 13.5799Z" fill="url(#paint3_linear_304_60408)"/>
<path d="M376.429 82.3272C380.191 82.3272 383.24 79.2873 383.24 75.5373C383.24 71.7873 380.191 68.7473 376.429 68.7473C372.667 68.7473 369.618 71.7873 369.618 75.5373C369.618 79.2873 372.667 82.3272 376.429 82.3272Z" fill="black"/>
<path d="M376.429 82.3272C380.191 82.3272 383.24 79.2873 383.24 75.5373C383.24 71.7873 380.191 68.7473 376.429 68.7473C372.667 68.7473 369.618 71.7873 369.618 75.5373C369.618 79.2873 372.667 82.3272 376.429 82.3272Z" fill="url(#paint4_linear_304_60408)"/>
<path d="M362.814 82.3272C366.576 82.3272 369.625 79.2873 369.625 75.5373C369.625 71.7873 366.576 68.7473 362.814 68.7473C359.052 68.7473 356.003 71.7873 356.003 75.5373C356.003 79.2873 359.052 82.3272 362.814 82.3272Z" fill="black"/>
<path d="M362.814 82.3272C366.576 82.3272 369.625 79.2873 369.625 75.5373C369.625 71.7873 366.576 68.7473 362.814 68.7473C359.052 68.7473 356.003 71.7873 356.003 75.5373C356.003 79.2873 359.052 82.3272 362.814 82.3272Z" fill="url(#paint5_linear_304_60408)"/>
</g>
<defs>
<linearGradient id="paint0_linear_304_60408" x1="-7.69467" y1="13.0717" x2="93.4993" y2="11.4109" gradientUnits="userSpaceOnUse">
<stop stop-color="#F8F1E9"/>
<stop offset="0.284714" stop-color="#D19CBE"/>
<stop offset="0.534724" stop-color="#8F8DE2"/>
<stop offset="0.743066" stop-color="#B5DEF9"/>
<stop offset="1" stop-color="#B5DEF9"/>
</linearGradient>
<linearGradient id="paint1_linear_304_60408" x1="37.3479" y1="45.4279" x2="138.556" y2="43.7666" gradientUnits="userSpaceOnUse">
<stop stop-color="#F8F1E9"/>
<stop offset="0.284714" stop-color="#D19CBE"/>
<stop offset="0.534724" stop-color="#8F8DE2"/>
<stop offset="0.743066" stop-color="#B5DEF9"/>
<stop offset="1" stop-color="#B5DEF9"/>
</linearGradient>
<linearGradient id="paint2_linear_304_60408" x1="496.437" y1="85.6566" x2="491.679" y2="-40.1606" gradientUnits="userSpaceOnUse">
<stop stop-color="#B5DEF9"/>
<stop offset="0.357634" stop-color="#8F8DE2"/>
<stop offset="0.664938" stop-color="#D19CBE"/>
<stop offset="0.993076" stop-color="#F8F1E9"/>
</linearGradient>
<linearGradient id="paint3_linear_304_60408" x1="449.891" y1="18.1065" x2="446.007" y2="-8.16855" gradientUnits="userSpaceOnUse">
<stop stop-color="#B5DEF9"/>
<stop offset="0.357634" stop-color="#8F8DE2"/>
<stop offset="0.664938" stop-color="#D19CBE"/>
<stop offset="0.993076" stop-color="#F8F1E9"/>
</linearGradient>
<linearGradient id="paint4_linear_304_60408" x1="385.336" y1="86.8538" x2="381.452" y2="60.5788" gradientUnits="userSpaceOnUse">
<stop stop-color="#B5DEF9"/>
<stop offset="0.357634" stop-color="#8F8DE2"/>
<stop offset="0.664938" stop-color="#D19CBE"/>
<stop offset="0.993076" stop-color="#F8F1E9"/>
</linearGradient>
<linearGradient id="paint5_linear_304_60408" x1="371.721" y1="86.8538" x2="367.837" y2="60.5788" gradientUnits="userSpaceOnUse">
<stop stop-color="#B5DEF9"/>
<stop offset="0.357634" stop-color="#8F8DE2"/>
<stop offset="0.664938" stop-color="#D19CBE"/>
<stop offset="0.993076" stop-color="#F8F1E9"/>
</linearGradient>
<clipPath id="clip0_304_60408">
<rect width="458" height="137" fill="white"/>
</clipPath>
</defs>
</svg>
