<svg width="207" height="288" viewBox="0 0 207 288" fill="none" xmlns="http://www.w3.org/2000/svg">
<g filter="url(#filter0_d_79_82642)">
<rect x="23" y="15.2075" width="157" height="237.459" rx="6.95103" fill="white"/>
<path d="M47.751 89.1075C47.751 88.6933 47.4152 88.3575 47.001 88.3575C46.5868 88.3575 46.251 88.6933 46.251 89.1075H47.751ZM46.251 82.8075C46.251 83.2217 46.5868 83.5575 47.001 83.5575C47.4152 83.5575 47.751 83.2217 47.751 82.8075H46.251ZM47.751 78.6075C47.751 78.1933 47.4152 77.8575 47.001 77.8575C46.5868 77.8575 46.251 78.1933 46.251 78.6075H47.751ZM46.251 72.3075C46.251 72.7217 46.5868 73.0575 47.001 73.0575C47.4152 73.0575 47.751 72.7217 47.751 72.3075H46.251ZM47.751 68.1075C47.751 67.6933 47.4152 67.3575 47.001 67.3575C46.5868 67.3575 46.251 67.6933 46.251 68.1075H47.751ZM46.251 61.8075C46.251 62.2217 46.5868 62.5575 47.001 62.5575C47.4152 62.5575 47.751 62.2217 47.751 61.8075H46.251ZM47.751 57.6075C47.751 57.1933 47.4152 56.8575 47.001 56.8575C46.5868 56.8575 46.251 57.1933 46.251 57.6075L47.751 57.6075ZM46.251 51.3075C46.251 51.7217 46.5868 52.0575 47.001 52.0575C47.4152 52.0575 47.751 51.7217 47.751 51.3075H46.251ZM47.751 91.2075L47.751 89.1075H46.251L46.251 91.2075H47.751ZM47.751 82.8075L47.751 78.6075H46.251L46.251 82.8075H47.751ZM47.751 72.3075L47.751 68.1075H46.251L46.251 72.3075H47.751ZM47.751 61.8075L47.751 57.6075L46.251 57.6075L46.251 61.8075H47.751ZM47.751 51.3075L47.751 49.2075L46.251 49.2075L46.251 51.3075H47.751Z" fill="#171717"/>
<path opacity="0.4" d="M47.749 150.692C47.749 150.278 47.4132 149.942 46.999 149.942C46.5848 149.942 46.249 150.278 46.249 150.692L47.749 150.692ZM46.249 144.392C46.249 144.807 46.5848 145.142 46.999 145.142C47.4132 145.142 47.749 144.807 47.749 144.392L46.249 144.392ZM47.749 140.192C47.749 139.778 47.4132 139.442 46.999 139.442C46.5848 139.442 46.249 139.778 46.249 140.192L47.749 140.192ZM46.249 133.892C46.249 134.307 46.5848 134.642 46.999 134.642C47.4132 134.642 47.749 134.307 47.749 133.892L46.249 133.892ZM47.749 129.692C47.749 129.278 47.4132 128.942 46.999 128.942C46.5848 128.942 46.249 129.278 46.249 129.692L47.749 129.692ZM46.249 123.392C46.249 123.807 46.5848 124.142 46.999 124.142C47.4132 124.142 47.749 123.807 47.749 123.392L46.249 123.392ZM47.749 119.192C47.749 118.778 47.4132 118.442 46.999 118.442C46.5848 118.442 46.249 118.778 46.249 119.192L47.749 119.192ZM46.249 112.892C46.249 113.307 46.5848 113.642 46.999 113.642C47.4132 113.642 47.749 113.307 47.749 112.892L46.249 112.892ZM47.749 152.792L47.749 150.692L46.249 150.692L46.249 152.792L47.749 152.792ZM47.749 144.392L47.749 140.192L46.249 140.192L46.249 144.392L47.749 144.392ZM47.749 133.892L47.749 129.692L46.249 129.692L46.249 133.892L47.749 133.892ZM47.749 123.392L47.749 119.192L46.249 119.192L46.249 123.392L47.749 123.392ZM47.749 112.892L47.749 110.792L46.249 110.792L46.249 112.892L47.749 112.892Z" fill="#9EA0A9"/>
<path opacity="0.4" d="M47.749 212.692C47.749 212.278 47.4132 211.942 46.999 211.942C46.5848 211.942 46.249 212.278 46.249 212.692L47.749 212.692ZM46.249 206.392C46.249 206.807 46.5848 207.142 46.999 207.142C47.4132 207.142 47.749 206.807 47.749 206.392L46.249 206.392ZM47.749 202.192C47.749 201.778 47.4132 201.442 46.999 201.442C46.5848 201.442 46.249 201.778 46.249 202.192L47.749 202.192ZM46.249 195.892C46.249 196.307 46.5848 196.642 46.999 196.642C47.4132 196.642 47.749 196.307 47.749 195.892L46.249 195.892ZM47.749 191.692C47.749 191.278 47.4132 190.942 46.999 190.942C46.5848 190.942 46.249 191.278 46.249 191.692L47.749 191.692ZM46.249 185.392C46.249 185.807 46.5848 186.142 46.999 186.142C47.4132 186.142 47.749 185.807 47.749 185.392L46.249 185.392ZM47.749 181.192C47.749 180.778 47.4132 180.442 46.999 180.442C46.5848 180.442 46.249 180.778 46.249 181.192L47.749 181.192ZM46.249 174.892C46.249 175.307 46.5848 175.642 46.999 175.642C47.4132 175.642 47.749 175.307 47.749 174.892L46.249 174.892ZM47.749 214.792L47.749 212.692L46.249 212.692L46.249 214.792L47.749 214.792ZM47.749 206.392L47.749 202.192L46.249 202.192L46.249 206.392L47.749 206.392ZM47.749 195.892L47.749 191.692L46.249 191.692L46.249 195.892L47.749 195.892ZM47.749 185.392L47.749 181.192L46.249 181.192L46.249 185.392L47.749 185.392ZM47.749 174.892L47.749 172.792L46.249 172.792L46.249 174.892L47.749 174.892Z" fill="#9EA0A9"/>
<path d="M50.925 28.7925H42.255C38.865 28.7925 36.585 31.1725 36.585 34.7125V42.8835C36.585 46.4125 38.865 48.7925 42.255 48.7925H50.925C54.315 48.7925 56.585 46.4125 56.585 42.8835V34.7125C56.585 31.1725 54.315 28.7925 50.925 28.7925Z" fill="#171717"/>
<path d="M50.7654 37.0326L46.0154 41.7826C45.8454 41.9526 45.6254 42.0326 45.3954 42.0326C45.1754 42.0326 44.9554 41.9526 44.7854 41.7826L42.4054 39.4126C42.0654 39.0626 42.0654 38.5126 42.4054 38.1726C42.7454 37.8326 43.3054 37.8326 43.6454 38.1726L45.3954 39.9226L49.5254 35.7926C49.8654 35.4526 50.4254 35.4526 50.7654 35.7926C51.1054 36.1426 51.1054 36.6926 50.7654 37.0326Z" fill="white"/>
<path d="M50.925 91.2075H42.255C38.865 91.2075 36.585 93.5875 36.585 97.1275V105.299C36.585 108.828 38.865 111.208 42.255 111.208H50.925C54.315 111.208 56.585 108.828 56.585 105.299V97.1275C56.585 93.5875 54.315 91.2075 50.925 91.2075Z" fill="white"/>
<path d="M50.925 91.2075H42.255C38.865 91.2075 36.585 93.5875 36.585 97.1275V105.299C36.585 108.828 38.865 111.208 42.255 111.208H50.925C54.315 111.208 56.585 108.828 56.585 105.299V97.1275C56.585 93.5875 54.315 91.2075 50.925 91.2075Z" fill="url(#paint0_linear_79_82642)"/>
<circle cx="47.085" cy="101.708" r="2.5" fill="white"/>
<path d="M73.3287 40.6911C73.3287 43.0772 75.1654 44.3959 77.7085 44.3959C79.9376 44.3959 81.6173 43.3441 81.6173 41.3975C81.6173 39.7963 80.7068 38.8701 78.7603 38.5091L76.9393 38.1794C76.0445 38.0067 75.5264 37.7556 75.5264 37.0334C75.5264 36.1857 76.1858 35.6677 77.3474 35.6677C78.6975 35.6677 79.5766 36.3741 79.6394 37.7242L81.4447 37.6614C81.4133 35.4636 79.9533 34.1293 77.3631 34.1293C75.0555 34.1293 73.5956 35.3223 73.5956 37.1747C73.5956 38.8073 74.663 39.655 76.2015 39.9376L78.0852 40.283C79.1213 40.487 79.7179 40.7696 79.7179 41.5231C79.7179 42.3551 78.9329 42.8418 77.7085 42.8418C76.327 42.8418 75.2125 42.1511 75.134 40.6126L73.3287 40.6911ZM88.0377 41.79C87.7708 42.5749 87.2214 42.9674 86.2952 42.9674C85.2748 42.9674 84.4742 42.2452 84.4114 41.2249H89.6075V40.5498C89.6075 38.6661 88.4458 37.0962 86.1853 37.0962C84.1131 37.0962 82.559 38.6661 82.559 40.8481C82.559 43.0302 84.0974 44.3959 86.2324 44.3959C88.0063 44.3959 89.1993 43.4854 89.5604 41.947L88.0377 41.79ZM84.4428 40.0475C84.6155 39.1841 85.1335 38.4777 86.1696 38.4777C87.2214 38.4777 87.708 39.2469 87.7708 40.0475H84.4428ZM92.7 40.5027C92.7 39.3411 93.2966 38.5876 94.2542 38.5876C95.1804 38.5876 95.6042 39.1998 95.6042 40.2673V44.2075H97.488V39.8905C97.488 38.3521 96.813 37.0962 94.9606 37.0962C93.9245 37.0962 93.0454 37.63 92.7 38.4149V37.2846H90.8162V44.2075H92.7V40.5027ZM99.2381 42.4493C99.2381 43.925 100.133 44.3959 101.2 44.3959C102.048 44.3959 102.613 44.1761 103.116 43.7994V42.5592C102.707 42.7476 102.315 42.8889 101.938 42.8889C101.373 42.8889 101.106 42.622 101.106 42.0255V38.6033H102.99V37.2846H101.106V35.3694H99.9602L99.7404 36.3113C99.5835 36.9549 99.3951 37.3003 98.7201 37.4102L98.2491 37.4887V38.6033H99.2381V42.4493Z" fill="url(#paint1_linear_79_82642)"/>
<path d="M73.3287 40.6911C73.3287 43.0772 75.1654 44.3959 77.7085 44.3959C79.9376 44.3959 81.6173 43.3441 81.6173 41.3975C81.6173 39.7963 80.7068 38.8701 78.7603 38.5091L76.9393 38.1794C76.0445 38.0067 75.5264 37.7556 75.5264 37.0334C75.5264 36.1857 76.1858 35.6677 77.3474 35.6677C78.6975 35.6677 79.5766 36.3741 79.6394 37.7242L81.4447 37.6614C81.4133 35.4636 79.9533 34.1293 77.3631 34.1293C75.0555 34.1293 73.5956 35.3223 73.5956 37.1747C73.5956 38.8073 74.663 39.655 76.2015 39.9376L78.0852 40.283C79.1213 40.487 79.7179 40.7696 79.7179 41.5231C79.7179 42.3551 78.9329 42.8418 77.7085 42.8418C76.327 42.8418 75.2125 42.1511 75.134 40.6126L73.3287 40.6911ZM88.0377 41.79C87.7708 42.5749 87.2214 42.9674 86.2952 42.9674C85.2748 42.9674 84.4742 42.2452 84.4114 41.2249H89.6075V40.5498C89.6075 38.6661 88.4458 37.0962 86.1853 37.0962C84.1131 37.0962 82.559 38.6661 82.559 40.8481C82.559 43.0302 84.0974 44.3959 86.2324 44.3959C88.0063 44.3959 89.1993 43.4854 89.5604 41.947L88.0377 41.79ZM84.4428 40.0475C84.6155 39.1841 85.1335 38.4777 86.1696 38.4777C87.2214 38.4777 87.708 39.2469 87.7708 40.0475H84.4428ZM92.7 40.5027C92.7 39.3411 93.2966 38.5876 94.2542 38.5876C95.1804 38.5876 95.6042 39.1998 95.6042 40.2673V44.2075H97.488V39.8905C97.488 38.3521 96.813 37.0962 94.9606 37.0962C93.9245 37.0962 93.0454 37.63 92.7 38.4149V37.2846H90.8162V44.2075H92.7V40.5027ZM99.2381 42.4493C99.2381 43.925 100.133 44.3959 101.2 44.3959C102.048 44.3959 102.613 44.1761 103.116 43.7994V42.5592C102.707 42.7476 102.315 42.8889 101.938 42.8889C101.373 42.8889 101.106 42.622 101.106 42.0255V38.6033H102.99V37.2846H101.106V35.3694H99.9602L99.7404 36.3113C99.5835 36.9549 99.3951 37.3003 98.7201 37.4102L98.2491 37.4887V38.6033H99.2381V42.4493Z" fill="#171717"/>
<path d="M73.1378 59.5204H74.7749V66.2075H75.9819V57.4116H75.1911C74.872 58.3272 74.3587 58.7434 73.1378 58.7434V59.5204ZM83.3358 57.4671H78.2164C78.1748 58.9099 77.8835 61.1436 77.6615 62.3506L78.8546 62.4339C79.1737 61.8373 79.798 61.324 80.7692 61.324C82.004 61.324 82.7531 62.1703 82.7531 63.3218C82.7531 64.5982 82.004 65.4167 80.7692 65.4167C79.3957 65.4167 78.6881 64.5288 78.6881 63.2108L77.5227 63.1137C77.4256 65.056 78.6326 66.374 80.7414 66.374C82.6421 66.374 83.9185 65.1254 83.9185 63.3079C83.9185 61.6986 82.8919 60.3667 80.9079 60.3667C79.9368 60.3667 79.2292 60.769 78.8269 61.2546C78.924 60.8106 79.1321 59.0209 79.146 58.5492H83.3358V57.4671ZM92.1606 63.3495C92.1606 64.6814 91.3282 65.4583 90.2322 65.4583C89.039 65.4583 88.3731 64.5704 88.3731 63.183C88.3731 61.7957 89.039 60.9077 90.2322 60.9077C91.3282 60.9077 92.1606 61.6847 92.1606 63.0027V63.3495ZM92.1468 66.2075H93.2983V57.4671H92.1468V61.4211C91.8693 60.6719 91.1062 59.9782 89.9686 59.9782C88.165 59.9782 87.1938 61.3933 87.1938 63.183C87.1938 64.9728 88.165 66.374 89.9686 66.374C91.1062 66.374 91.8693 65.6942 92.1468 64.945V66.2075ZM98.6451 63.5021C98.6451 64.723 97.8265 65.5277 96.7583 65.5277C96.0646 65.5277 95.7177 65.1392 95.7177 64.6259C95.7177 63.8906 96.3282 63.7102 97.2855 63.5021L98.6451 63.2108V63.5021ZM99.755 62.2951C99.755 60.7551 98.8532 59.9782 97.3271 59.9782C95.8981 59.9782 94.9963 60.8106 94.7604 61.9483L95.7871 62.087C95.9675 61.3795 96.4392 60.8661 97.3132 60.8661C98.1595 60.8661 98.6451 61.3795 98.6451 62.2119V62.4477L97.008 62.7807C95.5512 63.0721 94.5662 63.5438 94.5662 64.6953C94.5662 65.7358 95.3293 66.374 96.5085 66.374C97.4936 66.374 98.3537 65.8468 98.6867 65.1392C98.7561 65.8607 99.2 66.3324 99.8244 66.3324C100.296 66.3324 100.546 66.1798 100.754 65.9717V65.3473C100.587 65.4445 100.365 65.4861 100.227 65.4861C99.9353 65.4861 99.755 65.3335 99.755 65.0144V62.2951ZM103.427 68.5383L106.923 60.1447H105.785L103.926 64.8063H103.871L101.942 60.1447H100.735L103.288 66.1936L102.303 68.5383H103.427ZM107.312 64.1681C107.423 65.6664 108.575 66.374 110.087 66.374C111.502 66.374 112.57 65.7219 112.57 64.5149C112.57 63.4189 111.849 62.9611 110.628 62.753L109.49 62.5726C108.866 62.4616 108.561 62.2119 108.561 61.7263C108.561 61.1713 109.06 60.8245 109.823 60.8245C110.85 60.8245 111.419 61.2546 111.558 62.1841L112.487 62.1286C112.376 60.7274 111.433 59.9782 109.823 59.9782C108.422 59.9782 107.493 60.7274 107.493 61.8373C107.493 62.8778 108.172 63.3634 109.31 63.5438L110.337 63.7241C111.086 63.8629 111.488 64.0571 111.488 64.6259C111.488 65.2364 110.892 65.5277 110.087 65.5277C109.046 65.5277 108.394 65.0283 108.283 64.0987L107.312 64.1681ZM120.025 63.5021C120.025 64.723 119.206 65.5277 118.138 65.5277C117.444 65.5277 117.097 65.1392 117.097 64.6259C117.097 63.8906 117.708 63.7102 118.665 63.5021L120.025 63.2108V63.5021ZM121.135 62.2951C121.135 60.7551 120.233 59.9782 118.707 59.9782C117.278 59.9782 116.376 60.8106 116.14 61.9483L117.167 62.087C117.347 61.3795 117.819 60.8661 118.693 60.8661C119.539 60.8661 120.025 61.3795 120.025 62.2119V62.4477L118.388 62.7807C116.931 63.0721 115.946 63.5438 115.946 64.6953C115.946 65.7358 116.709 66.374 117.888 66.374C118.873 66.374 119.733 65.8468 120.066 65.1392C120.136 65.8607 120.58 66.3324 121.204 66.3324C121.676 66.3324 121.925 66.1798 122.134 65.9717V65.3473C121.967 65.4445 121.745 65.4861 121.606 65.4861C121.315 65.4861 121.135 65.3335 121.135 65.0144V62.2951ZM128.047 62.0454C128.047 61.6569 127.936 61.3101 127.756 61.0187C128.061 60.8661 128.519 60.769 128.921 60.769V59.7701C128.269 59.7701 127.7 60.1169 127.381 60.6025C126.923 60.2141 126.243 59.9782 125.48 59.9782C123.996 59.9782 122.941 60.769 122.941 62.0454C122.941 62.7113 123.233 63.2524 123.732 63.6131C123.191 63.849 122.817 64.2236 122.817 64.7508C122.817 65.2086 123.066 65.6109 123.621 65.7913C122.872 65.93 122.373 66.374 122.373 67.0677C122.373 68.1915 123.732 68.7048 125.369 68.7048C127.173 68.7048 128.866 68.1221 128.866 66.6099C128.866 65.6664 128.172 64.9728 126.854 64.9728H124.481C123.954 64.9728 123.746 64.7785 123.746 64.4456C123.746 64.1681 123.94 63.9738 124.149 63.849C124.523 64.0155 124.981 64.0987 125.48 64.0987C126.979 64.0987 128.047 63.3079 128.047 62.0454ZM123.469 66.8457C123.469 66.1936 124.01 65.9855 124.634 65.9855H126.59C127.298 65.9855 127.756 66.1798 127.756 66.7347C127.756 67.6088 126.757 67.9417 125.369 67.9417C124.246 67.9417 123.469 67.6088 123.469 66.8457ZM126.882 62.0593C126.882 62.8917 126.354 63.3634 125.494 63.3634C124.648 63.3634 124.121 62.8917 124.121 62.0593C124.121 61.1991 124.648 60.7274 125.494 60.7274C126.354 60.7274 126.882 61.1991 126.882 62.0593ZM130.428 63.183C130.428 61.8234 131.108 60.88 132.329 60.88C133.563 60.88 134.257 61.8234 134.257 63.183C134.257 64.5288 133.563 65.4861 132.329 65.4861C131.108 65.4861 130.428 64.5288 130.428 63.183ZM135.436 63.183C135.436 61.2962 134.118 59.9782 132.329 59.9782C130.553 59.9782 129.249 61.2962 129.249 63.183C129.249 65.0699 130.553 66.374 132.329 66.374C134.118 66.374 135.436 65.0699 135.436 63.183Z" fill="url(#paint2_linear_79_82642)"/>
<path d="M73.1378 59.5204H74.7749V66.2075H75.9819V57.4116H75.1911C74.872 58.3272 74.3587 58.7434 73.1378 58.7434V59.5204ZM83.3358 57.4671H78.2164C78.1748 58.9099 77.8835 61.1436 77.6615 62.3506L78.8546 62.4339C79.1737 61.8373 79.798 61.324 80.7692 61.324C82.004 61.324 82.7531 62.1703 82.7531 63.3218C82.7531 64.5982 82.004 65.4167 80.7692 65.4167C79.3957 65.4167 78.6881 64.5288 78.6881 63.2108L77.5227 63.1137C77.4256 65.056 78.6326 66.374 80.7414 66.374C82.6421 66.374 83.9185 65.1254 83.9185 63.3079C83.9185 61.6986 82.8919 60.3667 80.9079 60.3667C79.9368 60.3667 79.2292 60.769 78.8269 61.2546C78.924 60.8106 79.1321 59.0209 79.146 58.5492H83.3358V57.4671ZM92.1606 63.3495C92.1606 64.6814 91.3282 65.4583 90.2322 65.4583C89.039 65.4583 88.3731 64.5704 88.3731 63.183C88.3731 61.7957 89.039 60.9077 90.2322 60.9077C91.3282 60.9077 92.1606 61.6847 92.1606 63.0027V63.3495ZM92.1468 66.2075H93.2983V57.4671H92.1468V61.4211C91.8693 60.6719 91.1062 59.9782 89.9686 59.9782C88.165 59.9782 87.1938 61.3933 87.1938 63.183C87.1938 64.9728 88.165 66.374 89.9686 66.374C91.1062 66.374 91.8693 65.6942 92.1468 64.945V66.2075ZM98.6451 63.5021C98.6451 64.723 97.8265 65.5277 96.7583 65.5277C96.0646 65.5277 95.7177 65.1392 95.7177 64.6259C95.7177 63.8906 96.3282 63.7102 97.2855 63.5021L98.6451 63.2108V63.5021ZM99.755 62.2951C99.755 60.7551 98.8532 59.9782 97.3271 59.9782C95.8981 59.9782 94.9963 60.8106 94.7604 61.9483L95.7871 62.087C95.9675 61.3795 96.4392 60.8661 97.3132 60.8661C98.1595 60.8661 98.6451 61.3795 98.6451 62.2119V62.4477L97.008 62.7807C95.5512 63.0721 94.5662 63.5438 94.5662 64.6953C94.5662 65.7358 95.3293 66.374 96.5085 66.374C97.4936 66.374 98.3537 65.8468 98.6867 65.1392C98.7561 65.8607 99.2 66.3324 99.8244 66.3324C100.296 66.3324 100.546 66.1798 100.754 65.9717V65.3473C100.587 65.4445 100.365 65.4861 100.227 65.4861C99.9353 65.4861 99.755 65.3335 99.755 65.0144V62.2951ZM103.427 68.5383L106.923 60.1447H105.785L103.926 64.8063H103.871L101.942 60.1447H100.735L103.288 66.1936L102.303 68.5383H103.427ZM107.312 64.1681C107.423 65.6664 108.575 66.374 110.087 66.374C111.502 66.374 112.57 65.7219 112.57 64.5149C112.57 63.4189 111.849 62.9611 110.628 62.753L109.49 62.5726C108.866 62.4616 108.561 62.2119 108.561 61.7263C108.561 61.1713 109.06 60.8245 109.823 60.8245C110.85 60.8245 111.419 61.2546 111.558 62.1841L112.487 62.1286C112.376 60.7274 111.433 59.9782 109.823 59.9782C108.422 59.9782 107.493 60.7274 107.493 61.8373C107.493 62.8778 108.172 63.3634 109.31 63.5438L110.337 63.7241C111.086 63.8629 111.488 64.0571 111.488 64.6259C111.488 65.2364 110.892 65.5277 110.087 65.5277C109.046 65.5277 108.394 65.0283 108.283 64.0987L107.312 64.1681ZM120.025 63.5021C120.025 64.723 119.206 65.5277 118.138 65.5277C117.444 65.5277 117.097 65.1392 117.097 64.6259C117.097 63.8906 117.708 63.7102 118.665 63.5021L120.025 63.2108V63.5021ZM121.135 62.2951C121.135 60.7551 120.233 59.9782 118.707 59.9782C117.278 59.9782 116.376 60.8106 116.14 61.9483L117.167 62.087C117.347 61.3795 117.819 60.8661 118.693 60.8661C119.539 60.8661 120.025 61.3795 120.025 62.2119V62.4477L118.388 62.7807C116.931 63.0721 115.946 63.5438 115.946 64.6953C115.946 65.7358 116.709 66.374 117.888 66.374C118.873 66.374 119.733 65.8468 120.066 65.1392C120.136 65.8607 120.58 66.3324 121.204 66.3324C121.676 66.3324 121.925 66.1798 122.134 65.9717V65.3473C121.967 65.4445 121.745 65.4861 121.606 65.4861C121.315 65.4861 121.135 65.3335 121.135 65.0144V62.2951ZM128.047 62.0454C128.047 61.6569 127.936 61.3101 127.756 61.0187C128.061 60.8661 128.519 60.769 128.921 60.769V59.7701C128.269 59.7701 127.7 60.1169 127.381 60.6025C126.923 60.2141 126.243 59.9782 125.48 59.9782C123.996 59.9782 122.941 60.769 122.941 62.0454C122.941 62.7113 123.233 63.2524 123.732 63.6131C123.191 63.849 122.817 64.2236 122.817 64.7508C122.817 65.2086 123.066 65.6109 123.621 65.7913C122.872 65.93 122.373 66.374 122.373 67.0677C122.373 68.1915 123.732 68.7048 125.369 68.7048C127.173 68.7048 128.866 68.1221 128.866 66.6099C128.866 65.6664 128.172 64.9728 126.854 64.9728H124.481C123.954 64.9728 123.746 64.7785 123.746 64.4456C123.746 64.1681 123.94 63.9738 124.149 63.849C124.523 64.0155 124.981 64.0987 125.48 64.0987C126.979 64.0987 128.047 63.3079 128.047 62.0454ZM123.469 66.8457C123.469 66.1936 124.01 65.9855 124.634 65.9855H126.59C127.298 65.9855 127.756 66.1798 127.756 66.7347C127.756 67.6088 126.757 67.9417 125.369 67.9417C124.246 67.9417 123.469 67.6088 123.469 66.8457ZM126.882 62.0593C126.882 62.8917 126.354 63.3634 125.494 63.3634C124.648 63.3634 124.121 62.8917 124.121 62.0593C124.121 61.1991 124.648 60.7274 125.494 60.7274C126.354 60.7274 126.882 61.1991 126.882 62.0593ZM130.428 63.183C130.428 61.8234 131.108 60.88 132.329 60.88C133.563 60.88 134.257 61.8234 134.257 63.183C134.257 64.5288 133.563 65.4861 132.329 65.4861C131.108 65.4861 130.428 64.5288 130.428 63.183ZM135.436 63.183C135.436 61.2962 134.118 59.9782 132.329 59.9782C130.553 59.9782 129.249 61.2962 129.249 63.183C129.249 65.0699 130.553 66.374 132.329 66.374C134.118 66.374 135.436 65.0699 135.436 63.183Z" fill="#9EA0A9"/>
<g opacity="0.4">
<path d="M50.925 152.792H42.255C38.865 152.792 36.585 155.172 36.585 158.712V166.883C36.585 170.412 38.865 172.792 42.255 172.792H50.925C54.315 172.792 56.585 170.412 56.585 166.883V158.712C56.585 155.172 54.315 152.792 50.925 152.792Z" fill="#9EA0A9"/>
<path d="M50.7654 161.033L46.0154 165.783C45.8454 165.953 45.6254 166.033 45.3954 166.033C45.1754 166.033 44.9554 165.953 44.7854 165.783L42.4054 163.413C42.0654 163.063 42.0654 162.513 42.4054 162.173C42.7454 161.833 43.3054 161.833 43.6454 162.173L45.3954 163.923L49.5254 159.793C49.8654 159.453 50.4254 159.453 50.7654 159.793C51.1054 160.143 51.1054 160.693 50.7654 161.033Z" fill="white"/>
</g>
<g opacity="0.4">
<path d="M50.925 213.792H42.255C38.865 213.792 36.585 216.172 36.585 219.712V227.883C36.585 231.412 38.865 233.792 42.255 233.792H50.925C54.315 233.792 56.585 231.412 56.585 227.883V219.712C56.585 216.172 54.315 213.792 50.925 213.792Z" fill="#9EA0A9"/>
<path d="M50.7654 222.033L46.0154 226.783C45.8454 226.953 45.6254 227.033 45.3954 227.033C45.1754 227.033 44.9554 226.953 44.7854 226.783L42.4054 224.413C42.0654 224.063 42.0654 223.513 42.4054 223.173C42.7454 222.833 43.3054 222.833 43.6454 223.173L45.3954 224.923L49.5254 220.793C49.8654 220.453 50.4254 220.453 50.7654 220.793C51.1054 221.143 51.1054 221.693 50.7654 222.033Z" fill="white"/>
</g>
<path d="M83.4383 102.263C83.4383 99.2171 81.3034 97.1293 78.4306 97.1293C75.5421 97.1293 73.4072 99.2171 73.4072 102.263C73.4072 105.308 75.5421 107.396 78.4306 107.396C81.3034 107.396 83.4383 105.308 83.4383 102.263ZM81.4133 102.263C81.4133 104.335 80.2516 105.669 78.4306 105.669C76.6096 105.669 75.4479 104.335 75.4479 102.263C75.4479 100.19 76.6096 98.8561 78.4306 98.8561C80.2516 98.8561 81.4133 100.19 81.4133 102.263ZM88.7956 107.208L91.5271 100.285H89.6904L87.8694 105.12H87.8066L85.9699 100.285H83.9919L86.7234 107.208H88.7956ZM97.3125 104.79C97.0456 105.575 96.4962 105.967 95.57 105.967C94.5496 105.967 93.749 105.245 93.6862 104.225H98.8823V103.55C98.8823 101.666 97.7206 100.096 95.4601 100.096C93.3879 100.096 91.8338 101.666 91.8338 103.848C91.8338 106.03 93.3722 107.396 95.5072 107.396C97.2811 107.396 98.4742 106.485 98.8352 104.947L97.3125 104.79ZM93.7176 103.047C93.8903 102.184 94.4083 101.478 95.4444 101.478C96.4962 101.478 96.9828 102.247 97.0456 103.047H93.7176ZM104.879 100.379C104.675 100.206 104.33 100.096 103.906 100.096C102.948 100.096 102.226 100.818 101.975 101.603V100.285H100.091V107.208H101.975V103.785C101.975 102.529 102.634 101.839 103.607 101.839C104.063 101.839 104.377 101.933 104.738 102.137L104.879 100.379ZM110.712 103.879C110.712 105.151 109.943 105.92 108.876 105.92C107.698 105.92 107.086 105.057 107.086 103.754C107.086 102.435 107.698 101.572 108.876 101.572C109.943 101.572 110.712 102.357 110.712 103.613V103.879ZM110.697 107.208H112.58V97.3176H110.697V101.619C110.383 100.771 109.535 100.096 108.31 100.096C106.254 100.096 105.186 101.713 105.186 103.754C105.186 105.795 106.254 107.396 108.31 107.396C109.535 107.396 110.383 106.721 110.697 105.889V107.208ZM118.78 103.989C118.78 105.167 118.214 105.92 117.288 105.92C116.362 105.92 115.97 105.292 115.97 104.241V100.285H114.086V104.617C114.086 106.156 114.714 107.396 116.55 107.396C117.602 107.396 118.418 106.878 118.78 106.077V107.208H120.663V100.285H118.78V103.989ZM127.329 104.79C127.062 105.575 126.513 105.967 125.587 105.967C124.566 105.967 123.766 105.245 123.703 104.225H128.899V103.55C128.899 101.666 127.737 100.096 125.477 100.096C123.405 100.096 121.851 101.666 121.851 103.848C121.851 106.03 123.389 107.396 125.524 107.396C127.298 107.396 128.491 106.485 128.852 104.947L127.329 104.79ZM123.734 103.047C123.907 102.184 124.425 101.478 125.461 101.478C126.513 101.478 127 102.247 127.062 103.047H123.734Z" fill="url(#paint3_linear_79_82642)"/>
<path d="M83.4383 102.263C83.4383 99.2171 81.3034 97.1293 78.4306 97.1293C75.5421 97.1293 73.4072 99.2171 73.4072 102.263C73.4072 105.308 75.5421 107.396 78.4306 107.396C81.3034 107.396 83.4383 105.308 83.4383 102.263ZM81.4133 102.263C81.4133 104.335 80.2516 105.669 78.4306 105.669C76.6096 105.669 75.4479 104.335 75.4479 102.263C75.4479 100.19 76.6096 98.8561 78.4306 98.8561C80.2516 98.8561 81.4133 100.19 81.4133 102.263ZM88.7956 107.208L91.5271 100.285H89.6904L87.8694 105.12H87.8066L85.9699 100.285H83.9919L86.7234 107.208H88.7956ZM97.3125 104.79C97.0456 105.575 96.4962 105.967 95.57 105.967C94.5496 105.967 93.749 105.245 93.6862 104.225H98.8823V103.55C98.8823 101.666 97.7206 100.096 95.4601 100.096C93.3879 100.096 91.8338 101.666 91.8338 103.848C91.8338 106.03 93.3722 107.396 95.5072 107.396C97.2811 107.396 98.4742 106.485 98.8352 104.947L97.3125 104.79ZM93.7176 103.047C93.8903 102.184 94.4083 101.478 95.4444 101.478C96.4962 101.478 96.9828 102.247 97.0456 103.047H93.7176ZM104.879 100.379C104.675 100.206 104.33 100.096 103.906 100.096C102.948 100.096 102.226 100.818 101.975 101.603V100.285H100.091V107.208H101.975V103.785C101.975 102.529 102.634 101.839 103.607 101.839C104.063 101.839 104.377 101.933 104.738 102.137L104.879 100.379ZM110.712 103.879C110.712 105.151 109.943 105.92 108.876 105.92C107.698 105.92 107.086 105.057 107.086 103.754C107.086 102.435 107.698 101.572 108.876 101.572C109.943 101.572 110.712 102.357 110.712 103.613V103.879ZM110.697 107.208H112.58V97.3176H110.697V101.619C110.383 100.771 109.535 100.096 108.31 100.096C106.254 100.096 105.186 101.713 105.186 103.754C105.186 105.795 106.254 107.396 108.31 107.396C109.535 107.396 110.383 106.721 110.697 105.889V107.208ZM118.78 103.989C118.78 105.167 118.214 105.92 117.288 105.92C116.362 105.92 115.97 105.292 115.97 104.241V100.285H114.086V104.617C114.086 106.156 114.714 107.396 116.55 107.396C117.602 107.396 118.418 106.878 118.78 106.077V107.208H120.663V100.285H118.78V103.989ZM127.329 104.79C127.062 105.575 126.513 105.967 125.587 105.967C124.566 105.967 123.766 105.245 123.703 104.225H128.899V103.55C128.899 101.666 127.737 100.096 125.477 100.096C123.405 100.096 121.851 101.666 121.851 103.848C121.851 106.03 123.389 107.396 125.524 107.396C127.298 107.396 128.491 106.485 128.852 104.947L127.329 104.79ZM123.734 103.047C123.907 102.184 124.425 101.478 125.461 101.478C126.513 101.478 127 102.247 127.062 103.047H123.734Z" fill="#171717"/>
<path d="M79.3255 120.467H74.206C74.1644 121.91 73.8731 124.144 73.6511 125.351L74.8442 125.434C75.1633 124.837 75.7876 124.324 76.7588 124.324C77.9936 124.324 78.7428 125.17 78.7428 126.322C78.7428 127.598 77.9936 128.417 76.7588 128.417C75.3853 128.417 74.6777 127.529 74.6777 126.211L73.5124 126.114C73.4152 128.056 74.6223 129.374 76.7311 129.374C78.6318 129.374 79.9082 128.125 79.9082 126.308C79.9082 124.699 78.8815 123.367 76.8975 123.367C75.9264 123.367 75.2188 123.769 74.8165 124.255C74.9136 123.811 75.1217 122.021 75.1356 121.549H79.3255V120.467ZM88.1502 126.35C88.1502 127.681 87.3178 128.458 86.2218 128.458C85.0286 128.458 84.3627 127.57 84.3627 126.183C84.3627 124.796 85.0286 123.908 86.2218 123.908C87.3178 123.908 88.1502 124.685 88.1502 126.003V126.35ZM88.1364 129.208H89.2879V120.467H88.1364V124.421C87.8589 123.672 87.0958 122.978 85.9582 122.978C84.1546 122.978 83.1834 124.393 83.1834 126.183C83.1834 127.973 84.1546 129.374 85.9582 129.374C87.0958 129.374 87.8589 128.694 88.1364 127.945V129.208ZM94.6347 126.502C94.6347 127.723 93.8162 128.528 92.7479 128.528C92.0542 128.528 91.7073 128.139 91.7073 127.626C91.7073 126.891 92.3178 126.71 93.2751 126.502L94.6347 126.211V126.502ZM95.7446 125.295C95.7446 123.755 94.8428 122.978 93.3167 122.978C91.8877 122.978 90.9859 123.811 90.7501 124.948L91.7767 125.087C91.9571 124.379 92.4288 123.866 93.3028 123.866C94.1491 123.866 94.6347 124.379 94.6347 125.212V125.448L92.9976 125.781C91.5409 126.072 90.5558 126.544 90.5558 127.695C90.5558 128.736 91.3189 129.374 92.4981 129.374C93.4832 129.374 94.3434 128.847 94.6763 128.139C94.7457 128.861 95.1897 129.332 95.814 129.332C96.2857 129.332 96.5354 129.18 96.7435 128.972V128.347C96.577 128.444 96.355 128.486 96.2163 128.486C95.925 128.486 95.7446 128.333 95.7446 128.014V125.295ZM99.4164 131.538L102.913 123.145H101.775L99.9158 127.806H99.8603L97.9319 123.145H96.7249L99.2776 129.194L98.2926 131.538H99.4164ZM103.302 127.168C103.413 128.666 104.564 129.374 106.077 129.374C107.492 129.374 108.56 128.722 108.56 127.515C108.56 126.419 107.839 125.961 106.618 125.753L105.48 125.573C104.856 125.462 104.55 125.212 104.55 124.726C104.55 124.171 105.05 123.825 105.813 123.825C106.84 123.825 107.408 124.255 107.547 125.184L108.477 125.129C108.366 123.727 107.422 122.978 105.813 122.978C104.412 122.978 103.482 123.727 103.482 124.837C103.482 125.878 104.162 126.363 105.3 126.544L106.326 126.724C107.075 126.863 107.478 127.057 107.478 127.626C107.478 128.236 106.881 128.528 106.077 128.528C105.036 128.528 104.384 128.028 104.273 127.099L103.302 127.168ZM116.014 126.502C116.014 127.723 115.196 128.528 114.128 128.528C113.434 128.528 113.087 128.139 113.087 127.626C113.087 126.891 113.697 126.71 114.655 126.502L116.014 126.211V126.502ZM117.124 125.295C117.124 123.755 116.222 122.978 114.696 122.978C113.267 122.978 112.366 123.811 112.13 124.948L113.156 125.087C113.337 124.379 113.808 123.866 114.682 123.866C115.529 123.866 116.014 124.379 116.014 125.212V125.448L114.377 125.781C112.921 126.072 111.935 126.544 111.935 127.695C111.935 128.736 112.699 129.374 113.878 129.374C114.863 129.374 115.723 128.847 116.056 128.139C116.125 128.861 116.569 129.332 117.194 129.332C117.665 129.332 117.915 129.18 118.123 128.972V128.347C117.957 128.444 117.735 128.486 117.596 128.486C117.305 128.486 117.124 128.333 117.124 128.014V125.295ZM124.037 125.045C124.037 124.657 123.926 124.31 123.745 124.019C124.051 123.866 124.508 123.769 124.911 123.769V122.77C124.259 122.77 123.69 123.117 123.371 123.603C122.913 123.214 122.233 122.978 121.47 122.978C119.986 122.978 118.931 123.769 118.931 125.045C118.931 125.711 119.222 126.252 119.722 126.613C119.181 126.849 118.806 127.224 118.806 127.751C118.806 128.209 119.056 128.611 119.611 128.791C118.862 128.93 118.362 129.374 118.362 130.068C118.362 131.191 119.722 131.705 121.359 131.705C123.163 131.705 124.855 131.122 124.855 129.61C124.855 128.666 124.162 127.973 122.844 127.973H120.471C119.944 127.973 119.736 127.779 119.736 127.446C119.736 127.168 119.93 126.974 120.138 126.849C120.513 127.015 120.971 127.099 121.47 127.099C122.968 127.099 124.037 126.308 124.037 125.045ZM119.458 129.846C119.458 129.194 119.999 128.986 120.624 128.986H122.58C123.287 128.986 123.745 129.18 123.745 129.735C123.745 130.609 122.746 130.942 121.359 130.942C120.235 130.942 119.458 130.609 119.458 129.846ZM122.871 125.059C122.871 125.892 122.344 126.363 121.484 126.363C120.638 126.363 120.11 125.892 120.11 125.059C120.11 124.199 120.638 123.727 121.484 123.727C122.344 123.727 122.871 124.199 122.871 125.059ZM126.418 126.183C126.418 124.823 127.097 123.88 128.318 123.88C129.553 123.88 130.247 124.823 130.247 126.183C130.247 127.529 129.553 128.486 128.318 128.486C127.097 128.486 126.418 127.529 126.418 126.183ZM131.426 126.183C131.426 124.296 130.108 122.978 128.318 122.978C126.542 122.978 125.238 124.296 125.238 126.183C125.238 128.07 126.542 129.374 128.318 129.374C130.108 129.374 131.426 128.07 131.426 126.183Z" fill="url(#paint4_linear_79_82642)"/>
<path d="M79.3255 120.467H74.206C74.1644 121.91 73.8731 124.144 73.6511 125.351L74.8442 125.434C75.1633 124.837 75.7876 124.324 76.7588 124.324C77.9936 124.324 78.7428 125.17 78.7428 126.322C78.7428 127.598 77.9936 128.417 76.7588 128.417C75.3853 128.417 74.6777 127.529 74.6777 126.211L73.5124 126.114C73.4152 128.056 74.6223 129.374 76.7311 129.374C78.6318 129.374 79.9082 128.125 79.9082 126.308C79.9082 124.699 78.8815 123.367 76.8975 123.367C75.9264 123.367 75.2188 123.769 74.8165 124.255C74.9136 123.811 75.1217 122.021 75.1356 121.549H79.3255V120.467ZM88.1502 126.35C88.1502 127.681 87.3178 128.458 86.2218 128.458C85.0286 128.458 84.3627 127.57 84.3627 126.183C84.3627 124.796 85.0286 123.908 86.2218 123.908C87.3178 123.908 88.1502 124.685 88.1502 126.003V126.35ZM88.1364 129.208H89.2879V120.467H88.1364V124.421C87.8589 123.672 87.0958 122.978 85.9582 122.978C84.1546 122.978 83.1834 124.393 83.1834 126.183C83.1834 127.973 84.1546 129.374 85.9582 129.374C87.0958 129.374 87.8589 128.694 88.1364 127.945V129.208ZM94.6347 126.502C94.6347 127.723 93.8162 128.528 92.7479 128.528C92.0542 128.528 91.7073 128.139 91.7073 127.626C91.7073 126.891 92.3178 126.71 93.2751 126.502L94.6347 126.211V126.502ZM95.7446 125.295C95.7446 123.755 94.8428 122.978 93.3167 122.978C91.8877 122.978 90.9859 123.811 90.7501 124.948L91.7767 125.087C91.9571 124.379 92.4288 123.866 93.3028 123.866C94.1491 123.866 94.6347 124.379 94.6347 125.212V125.448L92.9976 125.781C91.5409 126.072 90.5558 126.544 90.5558 127.695C90.5558 128.736 91.3189 129.374 92.4981 129.374C93.4832 129.374 94.3434 128.847 94.6763 128.139C94.7457 128.861 95.1897 129.332 95.814 129.332C96.2857 129.332 96.5354 129.18 96.7435 128.972V128.347C96.577 128.444 96.355 128.486 96.2163 128.486C95.925 128.486 95.7446 128.333 95.7446 128.014V125.295ZM99.4164 131.538L102.913 123.145H101.775L99.9158 127.806H99.8603L97.9319 123.145H96.7249L99.2776 129.194L98.2926 131.538H99.4164ZM103.302 127.168C103.413 128.666 104.564 129.374 106.077 129.374C107.492 129.374 108.56 128.722 108.56 127.515C108.56 126.419 107.839 125.961 106.618 125.753L105.48 125.573C104.856 125.462 104.55 125.212 104.55 124.726C104.55 124.171 105.05 123.825 105.813 123.825C106.84 123.825 107.408 124.255 107.547 125.184L108.477 125.129C108.366 123.727 107.422 122.978 105.813 122.978C104.412 122.978 103.482 123.727 103.482 124.837C103.482 125.878 104.162 126.363 105.3 126.544L106.326 126.724C107.075 126.863 107.478 127.057 107.478 127.626C107.478 128.236 106.881 128.528 106.077 128.528C105.036 128.528 104.384 128.028 104.273 127.099L103.302 127.168ZM116.014 126.502C116.014 127.723 115.196 128.528 114.128 128.528C113.434 128.528 113.087 128.139 113.087 127.626C113.087 126.891 113.697 126.71 114.655 126.502L116.014 126.211V126.502ZM117.124 125.295C117.124 123.755 116.222 122.978 114.696 122.978C113.267 122.978 112.366 123.811 112.13 124.948L113.156 125.087C113.337 124.379 113.808 123.866 114.682 123.866C115.529 123.866 116.014 124.379 116.014 125.212V125.448L114.377 125.781C112.921 126.072 111.935 126.544 111.935 127.695C111.935 128.736 112.699 129.374 113.878 129.374C114.863 129.374 115.723 128.847 116.056 128.139C116.125 128.861 116.569 129.332 117.194 129.332C117.665 129.332 117.915 129.18 118.123 128.972V128.347C117.957 128.444 117.735 128.486 117.596 128.486C117.305 128.486 117.124 128.333 117.124 128.014V125.295ZM124.037 125.045C124.037 124.657 123.926 124.31 123.745 124.019C124.051 123.866 124.508 123.769 124.911 123.769V122.77C124.259 122.77 123.69 123.117 123.371 123.603C122.913 123.214 122.233 122.978 121.47 122.978C119.986 122.978 118.931 123.769 118.931 125.045C118.931 125.711 119.222 126.252 119.722 126.613C119.181 126.849 118.806 127.224 118.806 127.751C118.806 128.209 119.056 128.611 119.611 128.791C118.862 128.93 118.362 129.374 118.362 130.068C118.362 131.191 119.722 131.705 121.359 131.705C123.163 131.705 124.855 131.122 124.855 129.61C124.855 128.666 124.162 127.973 122.844 127.973H120.471C119.944 127.973 119.736 127.779 119.736 127.446C119.736 127.168 119.93 126.974 120.138 126.849C120.513 127.015 120.971 127.099 121.47 127.099C122.968 127.099 124.037 126.308 124.037 125.045ZM119.458 129.846C119.458 129.194 119.999 128.986 120.624 128.986H122.58C123.287 128.986 123.745 129.18 123.745 129.735C123.745 130.609 122.746 130.942 121.359 130.942C120.235 130.942 119.458 130.609 119.458 129.846ZM122.871 125.059C122.871 125.892 122.344 126.363 121.484 126.363C120.638 126.363 120.11 125.892 120.11 125.059C120.11 124.199 120.638 123.727 121.484 123.727C122.344 123.727 122.871 124.199 122.871 125.059ZM126.418 126.183C126.418 124.823 127.097 123.88 128.318 123.88C129.553 123.88 130.247 124.823 130.247 126.183C130.247 127.529 129.553 128.486 128.318 128.486C127.097 128.486 126.418 127.529 126.418 126.183ZM131.426 126.183C131.426 124.296 130.108 122.978 128.318 122.978C126.542 122.978 125.238 124.296 125.238 126.183C125.238 128.07 126.542 129.374 128.318 129.374C130.108 129.374 131.426 128.07 131.426 126.183Z" fill="#9EA0A9"/>
<path d="M83.4383 161.848C83.4383 158.802 81.3034 156.714 78.4306 156.714C75.5421 156.714 73.4072 158.802 73.4072 161.848C73.4072 164.893 75.5421 166.981 78.4306 166.981C81.3034 166.981 83.4383 164.893 83.4383 161.848ZM81.4133 161.848C81.4133 163.92 80.2516 165.254 78.4306 165.254C76.6096 165.254 75.4479 163.92 75.4479 161.848C75.4479 159.775 76.6096 158.441 78.4306 158.441C80.2516 158.441 81.4133 159.775 81.4133 161.848ZM86.5216 163.198C86.5216 161.942 87.2751 161.157 88.3426 161.157C89.5356 161.157 90.1478 162.02 90.1478 163.339C90.1478 164.642 89.5356 165.505 88.3426 165.505C87.2751 165.505 86.5216 164.736 86.5216 163.464V163.198ZM86.5373 165.474C86.8512 166.306 87.6832 166.981 88.9234 166.981C90.9642 166.981 92.0473 165.38 92.0473 163.339C92.0473 161.298 90.9642 159.681 88.9234 159.681C87.6832 159.681 86.8512 160.356 86.5373 161.204V159.87H84.6535V169.367H86.5373V165.474ZM98.3549 164.375C98.0881 165.16 97.5386 165.552 96.6124 165.552C95.5921 165.552 94.7915 164.83 94.7287 163.81H99.9248V163.135C99.9248 161.251 98.7631 159.681 96.5026 159.681C94.4304 159.681 92.8763 161.251 92.8763 163.433C92.8763 165.615 94.4147 166.981 96.5497 166.981C98.3235 166.981 99.5166 166.07 99.8777 164.532L98.3549 164.375ZM94.7601 162.632C94.9327 161.769 95.4508 161.063 96.4869 161.063C97.5386 161.063 98.0253 161.832 98.0881 162.632H94.7601ZM103.017 163.088C103.017 161.926 103.614 161.173 104.571 161.173C105.498 161.173 105.921 161.785 105.921 162.852V166.792H107.805V162.475C107.805 160.937 107.13 159.681 105.278 159.681C104.242 159.681 103.363 160.215 103.017 161V159.87H101.134V166.792H103.017V163.088ZM114.39 164.375C114.124 165.16 113.574 165.552 112.648 165.552C111.628 165.552 110.827 164.83 110.764 163.81H115.96V163.135C115.96 161.251 114.799 159.681 112.538 159.681C110.466 159.681 108.912 161.251 108.912 163.433C108.912 165.615 110.45 166.981 112.585 166.981C114.359 166.981 115.552 166.07 115.913 164.532L114.39 164.375ZM110.796 162.632C110.968 161.769 111.486 161.063 112.522 161.063C113.574 161.063 114.061 161.832 114.124 162.632H110.796ZM122.348 163.464C122.348 164.736 121.579 165.505 120.511 165.505C119.334 165.505 118.722 164.642 118.722 163.339C118.722 162.02 119.334 161.157 120.511 161.157C121.579 161.157 122.348 161.942 122.348 163.198V163.464ZM122.332 166.792H124.216V156.903H122.332V161.204C122.018 160.356 121.171 159.681 119.946 159.681C117.89 159.681 116.822 161.298 116.822 163.339C116.822 165.38 117.89 166.981 119.946 166.981C121.171 166.981 122.018 166.306 122.332 165.474V166.792Z" fill="url(#paint5_linear_79_82642)"/>
<path d="M83.4383 161.848C83.4383 158.802 81.3034 156.714 78.4306 156.714C75.5421 156.714 73.4072 158.802 73.4072 161.848C73.4072 164.893 75.5421 166.981 78.4306 166.981C81.3034 166.981 83.4383 164.893 83.4383 161.848ZM81.4133 161.848C81.4133 163.92 80.2516 165.254 78.4306 165.254C76.6096 165.254 75.4479 163.92 75.4479 161.848C75.4479 159.775 76.6096 158.441 78.4306 158.441C80.2516 158.441 81.4133 159.775 81.4133 161.848ZM86.5216 163.198C86.5216 161.942 87.2751 161.157 88.3426 161.157C89.5356 161.157 90.1478 162.02 90.1478 163.339C90.1478 164.642 89.5356 165.505 88.3426 165.505C87.2751 165.505 86.5216 164.736 86.5216 163.464V163.198ZM86.5373 165.474C86.8512 166.306 87.6832 166.981 88.9234 166.981C90.9642 166.981 92.0473 165.38 92.0473 163.339C92.0473 161.298 90.9642 159.681 88.9234 159.681C87.6832 159.681 86.8512 160.356 86.5373 161.204V159.87H84.6535V169.367H86.5373V165.474ZM98.3549 164.375C98.0881 165.16 97.5386 165.552 96.6124 165.552C95.5921 165.552 94.7915 164.83 94.7287 163.81H99.9248V163.135C99.9248 161.251 98.7631 159.681 96.5026 159.681C94.4304 159.681 92.8763 161.251 92.8763 163.433C92.8763 165.615 94.4147 166.981 96.5497 166.981C98.3235 166.981 99.5166 166.07 99.8777 164.532L98.3549 164.375ZM94.7601 162.632C94.9327 161.769 95.4508 161.063 96.4869 161.063C97.5386 161.063 98.0253 161.832 98.0881 162.632H94.7601ZM103.017 163.088C103.017 161.926 103.614 161.173 104.571 161.173C105.498 161.173 105.921 161.785 105.921 162.852V166.792H107.805V162.475C107.805 160.937 107.13 159.681 105.278 159.681C104.242 159.681 103.363 160.215 103.017 161V159.87H101.134V166.792H103.017V163.088ZM114.39 164.375C114.124 165.16 113.574 165.552 112.648 165.552C111.628 165.552 110.827 164.83 110.764 163.81H115.96V163.135C115.96 161.251 114.799 159.681 112.538 159.681C110.466 159.681 108.912 161.251 108.912 163.433C108.912 165.615 110.45 166.981 112.585 166.981C114.359 166.981 115.552 166.07 115.913 164.532L114.39 164.375ZM110.796 162.632C110.968 161.769 111.486 161.063 112.522 161.063C113.574 161.063 114.061 161.832 114.124 162.632H110.796ZM122.348 163.464C122.348 164.736 121.579 165.505 120.511 165.505C119.334 165.505 118.722 164.642 118.722 163.339C118.722 162.02 119.334 161.157 120.511 161.157C121.579 161.157 122.348 161.942 122.348 163.198V163.464ZM122.332 166.792H124.216V156.903H122.332V161.204C122.018 160.356 121.171 159.681 119.946 159.681C117.89 159.681 116.822 161.298 116.822 163.339C116.822 165.38 117.89 166.981 119.946 166.981C121.171 166.981 122.018 166.306 122.332 165.474V166.792Z" fill="#171717"/>
<path d="M75.809 224.785V221.488H77.7399C79.2155 221.488 79.8591 222.085 79.8591 223.152C79.8591 224.22 79.2155 224.785 77.7399 224.785H75.809ZM75.809 226.386H77.8027C80.3301 226.386 81.7743 225.193 81.7743 223.136C81.7743 221.08 80.3301 219.903 77.8027 219.903H73.8624V229.792H75.809V226.386ZM86.7439 226.794C86.7439 227.909 85.9904 228.662 85.0014 228.662C84.4049 228.662 84.0438 228.38 84.0438 227.909C84.0438 227.218 84.6247 227.077 85.441 226.904L86.7439 226.621V226.794ZM88.5806 225.35C88.5806 223.529 87.4032 222.681 85.6136 222.681C83.7769 222.681 82.6938 223.67 82.4583 225.083L84.1694 225.24C84.3264 224.565 84.7502 224.094 85.5351 224.094C86.3358 224.094 86.7439 224.565 86.7439 225.334V225.491L84.8444 225.868C83.2746 226.182 82.2071 226.731 82.2071 228.05C82.2071 229.243 83.0862 229.965 84.5305 229.965C85.5508 229.965 86.4927 229.541 86.8852 228.741C87.0579 229.494 87.5602 229.949 88.3451 229.949C88.9731 229.949 89.3498 229.745 89.6481 229.51V228.505C89.444 228.599 89.2556 228.647 89.0672 228.647C88.769 228.647 88.5806 228.474 88.5806 228.113V225.35ZM90.5403 222.87V229.792H92.4241V222.87H90.5403ZM90.5089 221.739H92.4398V219.903H90.5089V221.739ZM99.1226 226.464C99.1226 227.736 98.3534 228.505 97.2859 228.505C96.1085 228.505 95.4963 227.642 95.4963 226.339C95.4963 225.02 96.1085 224.157 97.2859 224.157C98.3534 224.157 99.1226 224.942 99.1226 226.198V226.464ZM99.1069 229.792H100.991V219.903H99.1069V224.204C98.7929 223.356 97.9452 222.681 96.7207 222.681C94.6643 222.681 93.5968 224.298 93.5968 226.339C93.5968 228.38 94.6643 229.981 96.7207 229.981C97.9452 229.981 98.7929 229.306 99.1069 228.474V229.792Z" fill="url(#paint6_linear_79_82642)"/>
<path d="M75.809 224.785V221.488H77.7399C79.2155 221.488 79.8591 222.085 79.8591 223.152C79.8591 224.22 79.2155 224.785 77.7399 224.785H75.809ZM75.809 226.386H77.8027C80.3301 226.386 81.7743 225.193 81.7743 223.136C81.7743 221.08 80.3301 219.903 77.8027 219.903H73.8624V229.792H75.809V226.386ZM86.7439 226.794C86.7439 227.909 85.9904 228.662 85.0014 228.662C84.4049 228.662 84.0438 228.38 84.0438 227.909C84.0438 227.218 84.6247 227.077 85.441 226.904L86.7439 226.621V226.794ZM88.5806 225.35C88.5806 223.529 87.4032 222.681 85.6136 222.681C83.7769 222.681 82.6938 223.67 82.4583 225.083L84.1694 225.24C84.3264 224.565 84.7502 224.094 85.5351 224.094C86.3358 224.094 86.7439 224.565 86.7439 225.334V225.491L84.8444 225.868C83.2746 226.182 82.2071 226.731 82.2071 228.05C82.2071 229.243 83.0862 229.965 84.5305 229.965C85.5508 229.965 86.4927 229.541 86.8852 228.741C87.0579 229.494 87.5602 229.949 88.3451 229.949C88.9731 229.949 89.3498 229.745 89.6481 229.51V228.505C89.444 228.599 89.2556 228.647 89.0672 228.647C88.769 228.647 88.5806 228.474 88.5806 228.113V225.35ZM90.5403 222.87V229.792H92.4241V222.87H90.5403ZM90.5089 221.739H92.4398V219.903H90.5089V221.739ZM99.1226 226.464C99.1226 227.736 98.3534 228.505 97.2859 228.505C96.1085 228.505 95.4963 227.642 95.4963 226.339C95.4963 225.02 96.1085 224.157 97.2859 224.157C98.3534 224.157 99.1226 224.942 99.1226 226.198V226.464ZM99.1069 229.792H100.991V219.903H99.1069V224.204C98.7929 223.356 97.9452 222.681 96.7207 222.681C94.6643 222.681 93.5968 224.298 93.5968 226.339C93.5968 228.38 94.6643 229.981 96.7207 229.981C97.9452 229.981 98.7929 229.306 99.1069 228.474V229.792Z" fill="#171717"/>
</g>
<defs>
<filter id="filter0_d_79_82642" x="0" y="0.20752" width="207" height="287.458" filterUnits="userSpaceOnUse" color-interpolation-filters="sRGB">
<feFlood flood-opacity="0" result="BackgroundImageFix"/>
<feColorMatrix in="SourceAlpha" type="matrix" values="0 0 0 0 0 0 0 0 0 0 0 0 0 0 0 0 0 0 127 0" result="hardAlpha"/>
<feOffset dx="2" dy="10"/>
<feGaussianBlur stdDeviation="12.5"/>
<feComposite in2="hardAlpha" operator="out"/>
<feColorMatrix type="matrix" values="0 0 0 0 0.00784314 0 0 0 0 0.0196078 0 0 0 0 0.258824 0 0 0 0.12 0"/>
<feBlend mode="normal" in2="BackgroundImageFix" result="effect1_dropShadow_79_82642"/>
<feBlend mode="normal" in="SourceGraphic" in2="effect1_dropShadow_79_82642" result="shape"/>
</filter>
<linearGradient id="paint0_linear_79_82642" x1="61.1304" y1="120.98" x2="60.841" y2="90.8209" gradientUnits="userSpaceOnUse">
<stop offset="0.198969" stop-color="#B5DEF9"/>
<stop offset="0.498642" stop-color="#C6B5D4"/>
<stop offset="0.70029" stop-color="#D19CBE"/>
<stop offset="1" stop-color="#F8F1E9"/>
</linearGradient>
<linearGradient id="paint1_linear_79_82642" x1="72.999" y1="38.2075" x2="108.999" y2="38.2075" gradientUnits="userSpaceOnUse">
<stop stop-color="#F1A4DE"/>
<stop offset="0.505236" stop-color="#B166EB"/>
<stop offset="1" stop-color="#7D39F5"/>
</linearGradient>
<linearGradient id="paint2_linear_79_82642" x1="72.999" y1="61.7075" x2="138.999" y2="61.7075" gradientUnits="userSpaceOnUse">
<stop stop-color="#F1A4DE"/>
<stop offset="0.505236" stop-color="#B166EB"/>
<stop offset="1" stop-color="#7D39F5"/>
</linearGradient>
<linearGradient id="paint3_linear_79_82642" x1="72.999" y1="101.208" x2="138.999" y2="101.208" gradientUnits="userSpaceOnUse">
<stop stop-color="#F1A4DE"/>
<stop offset="0.505236" stop-color="#B166EB"/>
<stop offset="1" stop-color="#7D39F5"/>
</linearGradient>
<linearGradient id="paint4_linear_79_82642" x1="72.999" y1="124.708" x2="138.999" y2="124.708" gradientUnits="userSpaceOnUse">
<stop stop-color="#F1A4DE"/>
<stop offset="0.505236" stop-color="#B166EB"/>
<stop offset="1" stop-color="#7D39F5"/>
</linearGradient>
<linearGradient id="paint5_linear_79_82642" x1="72.999" y1="160.792" x2="138.999" y2="160.792" gradientUnits="userSpaceOnUse">
<stop stop-color="#F1A4DE"/>
<stop offset="0.505236" stop-color="#B166EB"/>
<stop offset="1" stop-color="#7D39F5"/>
</linearGradient>
<linearGradient id="paint6_linear_79_82642" x1="72.999" y1="223.792" x2="138.999" y2="223.792" gradientUnits="userSpaceOnUse">
<stop stop-color="#F1A4DE"/>
<stop offset="0.505236" stop-color="#B166EB"/>
<stop offset="1" stop-color="#7D39F5"/>
</linearGradient>
</defs>
</svg>
