<svg width="248" height="172" viewBox="0 0 248 172" fill="none" xmlns="http://www.w3.org/2000/svg">
<g filter="url(#filter0_d_79_82793)">
<rect x="87" y="15" width="127.17" height="43.1701" rx="6.95103" fill="white"/>
<path d="M98.585 36.585C98.585 42.115 103.065 46.585 108.585 46.585C114.115 46.585 118.585 42.115 118.585 36.585C118.585 31.065 114.115 26.585 108.585 26.585C103.065 26.585 98.585 31.065 98.585 36.585Z" fill="#171717"/>
<path d="M98.585 36.585C98.585 42.115 103.065 46.585 108.585 46.585C114.115 46.585 118.585 42.115 118.585 36.585C118.585 31.065 114.115 26.585 108.585 26.585C103.065 26.585 98.585 31.065 98.585 36.585Z" fill="url(#paint0_linear_79_82793)"/>
<path d="M113.2 35.08L108.45 39.83C108.28 40 108.06 40.08 107.83 40.08C107.61 40.08 107.39 40 107.22 39.83L104.84 37.46C104.5 37.11 104.5 36.56 104.84 36.22C105.18 35.88 105.74 35.88 106.08 36.22L107.83 37.97L111.96 33.84C112.3 33.5 112.86 33.5 113.2 33.84C113.54 34.19 113.54 34.74 113.2 35.08Z" fill="white"/>
<path d="M136.411 40.0151V33.2649H138.059C140.147 33.2649 141.324 34.5208 141.324 36.6243C141.324 38.7593 140.147 40.0151 138.059 40.0151H136.411ZM134.448 41.585H138.185C141.371 41.585 143.349 39.7326 143.349 36.64C143.349 33.5475 141.371 31.6951 138.185 31.6951H134.448V41.585ZM149.727 39.1674C149.461 39.9523 148.911 40.3448 147.985 40.3448C146.964 40.3448 146.164 39.6227 146.101 38.6023H151.297V37.9273C151.297 36.0435 150.136 34.4737 147.875 34.4737C145.803 34.4737 144.249 36.0435 144.249 38.2255C144.249 40.4076 145.787 41.7733 147.922 41.7733C149.696 41.7733 150.889 40.8628 151.25 39.3244L149.727 39.1674ZM146.132 37.4249C146.305 36.5615 146.823 35.8551 147.859 35.8551C148.911 35.8551 149.398 36.6243 149.461 37.4249H146.132ZM154.374 37.9901C154.374 36.7342 155.128 35.9493 156.195 35.9493C157.388 35.9493 158 36.8127 158 38.1314C158 39.4343 157.388 40.2977 156.195 40.2977C155.128 40.2977 154.374 39.5285 154.374 38.2569V37.9901ZM154.296 40.2506C154.657 41.114 155.536 41.7733 156.744 41.7733C158.817 41.7733 159.9 40.1721 159.9 38.1314C159.9 36.0906 158.817 34.4737 156.776 34.4737C155.536 34.4737 154.704 35.1487 154.39 35.9964V31.6951H152.506V41.585H153.95L154.296 40.2506ZM161.091 34.662V41.585H162.975V34.662H161.091ZM161.06 33.5318H162.99V31.6951H161.06V33.5318ZM164.791 39.8268C164.791 41.3024 165.686 41.7733 166.753 41.7733C167.601 41.7733 168.166 41.5536 168.669 41.1768V39.9366C168.26 40.125 167.868 40.2663 167.491 40.2663C166.926 40.2663 166.659 39.9994 166.659 39.4029V35.9807H168.543V34.662H166.659V32.7469H165.513L165.293 33.6888C165.136 34.3324 164.948 34.6777 164.273 34.7876L163.802 34.8661V35.9807H164.791V39.8268ZM172.15 38.1314C172.15 40.3291 173.673 41.7733 175.808 41.7733C177.864 41.7733 178.994 40.4233 179.151 38.7593L177.566 38.618C177.424 39.6698 176.844 40.3291 175.808 40.3291C174.771 40.3291 174.049 39.5599 174.049 38.1314C174.049 36.6871 174.771 35.9179 175.808 35.9179C176.844 35.9179 177.424 36.5615 177.566 37.5976L179.151 37.4877C178.994 35.8237 177.864 34.4737 175.808 34.4737C173.673 34.4737 172.15 35.9336 172.15 38.1314ZM184.475 38.5866C184.475 39.7012 183.722 40.4547 182.733 40.4547C182.136 40.4547 181.775 40.1721 181.775 39.7012C181.775 39.0105 182.356 38.8692 183.172 38.6965L184.475 38.4139V38.5866ZM186.312 37.1424C186.312 35.3214 185.134 34.4737 183.345 34.4737C181.508 34.4737 180.425 35.4627 180.19 36.8755L181.901 37.0325C182.058 36.3575 182.481 35.8865 183.266 35.8865C184.067 35.8865 184.475 36.3575 184.475 37.1267V37.2837L182.576 37.6604C181.006 37.9744 179.938 38.5238 179.938 39.8425C179.938 41.0355 180.817 41.7576 182.262 41.7576C183.282 41.7576 184.224 41.3338 184.616 40.5332C184.789 41.2867 185.291 41.7419 186.076 41.7419C186.704 41.7419 187.081 41.5379 187.379 41.3024V40.2977C187.175 40.3919 186.987 40.439 186.798 40.439C186.5 40.439 186.312 40.2663 186.312 39.9053V37.1424ZM193.059 34.7562C192.855 34.5836 192.51 34.4737 192.086 34.4737C191.129 34.4737 190.406 35.1958 190.155 35.9807V34.662H188.272V41.585H190.155V38.1628C190.155 36.9069 190.815 36.2162 191.788 36.2162C192.243 36.2162 192.557 36.3104 192.918 36.5144L193.059 34.7562ZM198.893 38.2569C198.893 39.5285 198.123 40.2977 197.056 40.2977C195.879 40.2977 195.266 39.4343 195.266 38.1314C195.266 36.8127 195.879 35.9493 197.056 35.9493C198.123 35.9493 198.893 36.7342 198.893 37.9901V38.2569ZM198.877 41.585H200.761V31.6951H198.877V35.9964C198.563 35.1487 197.715 34.4737 196.491 34.4737C194.434 34.4737 193.367 36.0906 193.367 38.1314C193.367 40.1721 194.434 41.7733 196.491 41.7733C197.715 41.7733 198.563 41.0983 198.877 40.2663V41.585Z" fill="url(#paint1_linear_79_82793)"/>
<path d="M136.411 40.0151V33.2649H138.059C140.147 33.2649 141.324 34.5208 141.324 36.6243C141.324 38.7593 140.147 40.0151 138.059 40.0151H136.411ZM134.448 41.585H138.185C141.371 41.585 143.349 39.7326 143.349 36.64C143.349 33.5475 141.371 31.6951 138.185 31.6951H134.448V41.585ZM149.727 39.1674C149.461 39.9523 148.911 40.3448 147.985 40.3448C146.964 40.3448 146.164 39.6227 146.101 38.6023H151.297V37.9273C151.297 36.0435 150.136 34.4737 147.875 34.4737C145.803 34.4737 144.249 36.0435 144.249 38.2255C144.249 40.4076 145.787 41.7733 147.922 41.7733C149.696 41.7733 150.889 40.8628 151.25 39.3244L149.727 39.1674ZM146.132 37.4249C146.305 36.5615 146.823 35.8551 147.859 35.8551C148.911 35.8551 149.398 36.6243 149.461 37.4249H146.132ZM154.374 37.9901C154.374 36.7342 155.128 35.9493 156.195 35.9493C157.388 35.9493 158 36.8127 158 38.1314C158 39.4343 157.388 40.2977 156.195 40.2977C155.128 40.2977 154.374 39.5285 154.374 38.2569V37.9901ZM154.296 40.2506C154.657 41.114 155.536 41.7733 156.744 41.7733C158.817 41.7733 159.9 40.1721 159.9 38.1314C159.9 36.0906 158.817 34.4737 156.776 34.4737C155.536 34.4737 154.704 35.1487 154.39 35.9964V31.6951H152.506V41.585H153.95L154.296 40.2506ZM161.091 34.662V41.585H162.975V34.662H161.091ZM161.06 33.5318H162.99V31.6951H161.06V33.5318ZM164.791 39.8268C164.791 41.3024 165.686 41.7733 166.753 41.7733C167.601 41.7733 168.166 41.5536 168.669 41.1768V39.9366C168.26 40.125 167.868 40.2663 167.491 40.2663C166.926 40.2663 166.659 39.9994 166.659 39.4029V35.9807H168.543V34.662H166.659V32.7469H165.513L165.293 33.6888C165.136 34.3324 164.948 34.6777 164.273 34.7876L163.802 34.8661V35.9807H164.791V39.8268ZM172.15 38.1314C172.15 40.3291 173.673 41.7733 175.808 41.7733C177.864 41.7733 178.994 40.4233 179.151 38.7593L177.566 38.618C177.424 39.6698 176.844 40.3291 175.808 40.3291C174.771 40.3291 174.049 39.5599 174.049 38.1314C174.049 36.6871 174.771 35.9179 175.808 35.9179C176.844 35.9179 177.424 36.5615 177.566 37.5976L179.151 37.4877C178.994 35.8237 177.864 34.4737 175.808 34.4737C173.673 34.4737 172.15 35.9336 172.15 38.1314ZM184.475 38.5866C184.475 39.7012 183.722 40.4547 182.733 40.4547C182.136 40.4547 181.775 40.1721 181.775 39.7012C181.775 39.0105 182.356 38.8692 183.172 38.6965L184.475 38.4139V38.5866ZM186.312 37.1424C186.312 35.3214 185.134 34.4737 183.345 34.4737C181.508 34.4737 180.425 35.4627 180.19 36.8755L181.901 37.0325C182.058 36.3575 182.481 35.8865 183.266 35.8865C184.067 35.8865 184.475 36.3575 184.475 37.1267V37.2837L182.576 37.6604C181.006 37.9744 179.938 38.5238 179.938 39.8425C179.938 41.0355 180.817 41.7576 182.262 41.7576C183.282 41.7576 184.224 41.3338 184.616 40.5332C184.789 41.2867 185.291 41.7419 186.076 41.7419C186.704 41.7419 187.081 41.5379 187.379 41.3024V40.2977C187.175 40.3919 186.987 40.439 186.798 40.439C186.5 40.439 186.312 40.2663 186.312 39.9053V37.1424ZM193.059 34.7562C192.855 34.5836 192.51 34.4737 192.086 34.4737C191.129 34.4737 190.406 35.1958 190.155 35.9807V34.662H188.272V41.585H190.155V38.1628C190.155 36.9069 190.815 36.2162 191.788 36.2162C192.243 36.2162 192.557 36.3104 192.918 36.5144L193.059 34.7562ZM198.893 38.2569C198.893 39.5285 198.123 40.2977 197.056 40.2977C195.879 40.2977 195.266 39.4343 195.266 38.1314C195.266 36.8127 195.879 35.9493 197.056 35.9493C198.123 35.9493 198.893 36.7342 198.893 37.9901V38.2569ZM198.877 41.585H200.761V31.6951H198.877V35.9964C198.563 35.1487 197.715 34.4737 196.491 34.4737C194.434 34.4737 193.367 36.0906 193.367 38.1314C193.367 40.1721 194.434 41.7733 196.491 41.7733C197.715 41.7733 198.563 41.0983 198.877 40.2663V41.585Z" fill="#171717"/>
</g>
<g filter="url(#filter1_d_79_82793)">
<rect x="23" y="76" width="197.17" height="60.1701" rx="6.95103" fill="white"/>
<path d="M34.585 97.585C34.585 103.115 39.065 107.585 44.585 107.585C50.115 107.585 54.585 103.115 54.585 97.585C54.585 92.065 50.115 87.585 44.585 87.585C39.065 87.585 34.585 92.065 34.585 97.585Z" fill="#171717"/>
<path d="M34.585 97.585C34.585 103.115 39.065 107.585 44.585 107.585C50.115 107.585 54.585 103.115 54.585 97.585C54.585 92.065 50.115 87.585 44.585 87.585C39.065 87.585 34.585 92.065 34.585 97.585Z" fill="url(#paint2_linear_79_82793)"/>
<path d="M49.2 96.08L44.45 100.83C44.28 101 44.06 101.08 43.83 101.08C43.61 101.08 43.39 101 43.22 100.83L40.84 98.46C40.5 98.11 40.5 97.56 40.84 97.22C41.18 96.88 41.74 96.88 42.08 97.22L43.83 98.97L47.96 94.84C48.3 94.5 48.86 94.5 49.2 94.84C49.54 95.19 49.54 95.74 49.2 96.08Z" fill="white"/>
<path d="M78.7056 100.869C78.7056 99.4563 77.7794 98.6714 76.5864 98.4516C77.6538 98.279 78.4074 97.4941 78.4074 96.3795C78.4074 94.7626 77.3399 93.6951 74.8439 93.6951H70.4484V103.585H75.095C77.4027 103.585 78.7056 102.58 78.7056 100.869ZM74.8753 99.2993C76.0997 99.2993 76.6963 99.8331 76.6963 100.665C76.6963 101.481 76.0997 101.999 74.8753 101.999H72.3635V99.2993H74.8753ZM72.3635 95.2806H74.7183C75.8956 95.2806 76.398 95.8143 76.398 96.5522C76.398 97.29 75.8956 97.808 74.7183 97.808H72.3635V95.2806ZM84.127 100.587C84.127 101.701 83.3735 102.455 82.3845 102.455C81.788 102.455 81.4269 102.172 81.4269 101.701C81.4269 101.01 82.0078 100.869 82.8241 100.696L84.127 100.414V100.587ZM85.9637 99.1424C85.9637 97.3214 84.7863 96.4737 82.9968 96.4737C81.1601 96.4737 80.0769 97.4627 79.8414 98.8755L81.5525 99.0325C81.7095 98.3575 82.1334 97.8865 82.9183 97.8865C83.7189 97.8865 84.127 98.3575 84.127 99.1267V99.2837L82.2275 99.6604C80.6577 99.9744 79.5902 100.524 79.5902 101.842C79.5902 103.036 80.4693 103.758 81.9136 103.758C82.934 103.758 83.8759 103.334 84.2683 102.533C84.441 103.287 84.9433 103.742 85.7282 103.742C86.3562 103.742 86.7329 103.538 87.0312 103.302V102.298C86.8271 102.392 86.6387 102.439 86.4504 102.439C86.1521 102.439 85.9637 102.266 85.9637 101.905V99.1424ZM89.8072 99.8802C89.8072 98.7185 90.4037 97.965 91.3613 97.965C92.2875 97.965 92.7114 98.5772 92.7114 99.6447V103.585H94.5952V99.268C94.5952 97.7295 93.9201 96.4737 92.0677 96.4737C91.0317 96.4737 90.1526 97.0074 89.8072 97.7923V96.662H87.9234V103.585H89.8072V99.8802ZM97.9936 101.23L98.7942 100.492L101.18 103.585H103.331L100.176 99.4406L103.221 96.662H100.945L97.9936 99.4406V93.6951H96.1098V103.585H97.9936V101.23ZM110.245 93.6951L106.242 103.585H108.22L109.177 101.136H113.385L114.374 103.585H116.461L112.427 93.6951H110.245ZM111.234 95.9242H111.297L112.788 99.629H109.774L111.234 95.9242ZM116.827 100.131C116.827 102.329 118.349 103.773 120.484 103.773C122.541 103.773 123.671 102.423 123.828 100.759L122.243 100.618C122.101 101.67 121.521 102.329 120.484 102.329C119.448 102.329 118.726 101.56 118.726 100.131C118.726 98.6871 119.448 97.9179 120.484 97.9179C121.521 97.9179 122.101 98.5615 122.243 99.5976L123.828 99.4877C123.671 97.8237 122.541 96.4737 120.484 96.4737C118.349 96.4737 116.827 97.9336 116.827 100.131ZM124.645 100.131C124.645 102.329 126.168 103.773 128.303 103.773C130.359 103.773 131.49 102.423 131.647 100.759L130.061 100.618C129.92 101.67 129.339 102.329 128.303 102.329C127.267 102.329 126.545 101.56 126.545 100.131C126.545 98.6871 127.267 97.9179 128.303 97.9179C129.339 97.9179 129.92 98.5615 130.061 99.5976L131.647 99.4877C131.49 97.8237 130.359 96.4737 128.303 96.4737C126.168 96.4737 124.645 97.9336 124.645 100.131ZM134.363 100.131C134.363 98.8127 134.96 97.9022 136.106 97.9022C137.267 97.9022 137.864 98.8127 137.864 100.131C137.864 101.434 137.267 102.345 136.106 102.345C134.96 102.345 134.363 101.434 134.363 100.131ZM139.763 100.131C139.763 97.9807 138.256 96.4737 136.106 96.4737C133.971 96.4737 132.464 97.9807 132.464 100.131C132.464 102.282 133.971 103.773 136.106 103.773C138.256 103.773 139.763 102.282 139.763 100.131ZM145.566 100.367C145.566 101.544 145.001 102.298 144.075 102.298C143.149 102.298 142.756 101.67 142.756 100.618V96.662H140.872V100.995C140.872 102.533 141.5 103.773 143.337 103.773C144.389 103.773 145.205 103.255 145.566 102.455V103.585H147.45V96.662H145.566V100.367ZM150.929 99.8802C150.929 98.7185 151.526 97.965 152.483 97.965C153.409 97.965 153.833 98.5772 153.833 99.6447V103.585H155.717V99.268C155.717 97.7295 155.042 96.4737 153.19 96.4737C152.154 96.4737 151.274 97.0074 150.929 97.7923V96.662H149.045V103.585H150.929V99.8802ZM157.467 101.827C157.467 103.302 158.362 103.773 159.429 103.773C160.277 103.773 160.842 103.554 161.345 103.177V101.937C160.936 102.125 160.544 102.266 160.167 102.266C159.602 102.266 159.335 101.999 159.335 101.403V97.9807H161.219V96.662H159.335V94.7469H158.189L157.969 95.6888C157.812 96.3324 157.624 96.6777 156.949 96.7876L156.478 96.8661V97.9807H157.467V101.827ZM75.409 122.585V114.328H78.9568V112.695H69.946V114.328H73.4467V122.585H75.409ZM84.0651 115.756C83.861 115.584 83.5157 115.474 83.0918 115.474C82.1342 115.474 81.4121 116.196 81.1609 116.981V115.662H79.2771V122.585H81.1609V119.163C81.1609 117.907 81.8202 117.216 82.7935 117.216C83.2488 117.216 83.5627 117.31 83.9238 117.514L84.0651 115.756ZM88.9867 119.587C88.9867 120.701 88.2332 121.455 87.2442 121.455C86.6477 121.455 86.2866 121.172 86.2866 120.701C86.2866 120.01 86.8675 119.869 87.6838 119.696L88.9867 119.414V119.587ZM90.8234 118.142C90.8234 116.321 89.646 115.474 87.8565 115.474C86.0198 115.474 84.9366 116.463 84.7011 117.875L86.4122 118.032C86.5692 117.357 86.9931 116.887 87.778 116.887C88.5786 116.887 88.9867 117.357 88.9867 118.127V118.284L87.0872 118.66C85.5174 118.974 84.4499 119.524 84.4499 120.842C84.4499 122.036 85.329 122.758 86.7733 122.758C87.7937 122.758 88.7356 122.334 89.128 121.533C89.3007 122.287 89.803 122.742 90.5879 122.742C91.2159 122.742 91.5926 122.538 91.8909 122.302V121.298C91.6868 121.392 91.4984 121.439 91.3101 121.439C91.0118 121.439 90.8234 121.266 90.8234 120.905V118.142ZM94.6669 118.88C94.6669 117.719 95.2634 116.965 96.221 116.965C97.1472 116.965 97.5711 117.577 97.5711 118.645V122.585H99.4549V118.268C99.4549 116.73 98.7798 115.474 96.9274 115.474C95.8914 115.474 95.0123 116.007 94.6669 116.792V115.662H92.7831V122.585H94.6669V118.88ZM100.467 120.293C100.593 121.988 101.974 122.773 103.779 122.773C105.569 122.773 106.794 121.988 106.794 120.576C106.794 119.273 105.93 118.66 104.47 118.425L103.152 118.205C102.649 118.127 102.398 117.907 102.398 117.53C102.398 117.059 102.838 116.761 103.513 116.761C104.502 116.761 105.035 117.153 105.161 117.938L106.715 117.875C106.589 116.337 105.443 115.474 103.528 115.474C101.77 115.474 100.656 116.384 100.656 117.703C100.656 118.99 101.472 119.54 102.947 119.775L104.046 119.963C104.737 120.073 105.051 120.277 105.051 120.748C105.051 121.251 104.486 121.486 103.795 121.486C102.838 121.486 102.21 121.062 102.1 120.23L100.467 120.293ZM108.242 116.981V122.585H110.11V116.981H111.963V115.662H110.11V114.94C110.11 114.296 110.362 113.857 110.942 113.857C111.429 113.857 111.727 114.155 111.884 114.595L113.093 114.202C112.795 113.103 112.026 112.507 110.77 112.507C109.216 112.507 108.242 113.464 108.242 115.081V115.662H107.222V116.981H108.242ZM117.752 120.167C117.485 120.952 116.936 121.345 116.01 121.345C114.989 121.345 114.189 120.623 114.126 119.602H119.322V118.927C119.322 117.043 118.161 115.474 115.9 115.474C113.828 115.474 112.274 117.043 112.274 119.226C112.274 121.408 113.812 122.773 115.947 122.773C117.721 122.773 118.914 121.863 119.275 120.324L117.752 120.167ZM114.157 118.425C114.33 117.562 114.848 116.855 115.884 116.855C116.936 116.855 117.423 117.624 117.485 118.425H114.157ZM125.319 115.756C125.115 115.584 124.769 115.474 124.346 115.474C123.388 115.474 122.666 116.196 122.415 116.981V115.662H120.531V122.585H122.415V119.163C122.415 117.907 123.074 117.216 124.047 117.216C124.503 117.216 124.817 117.31 125.178 117.514L125.319 115.756ZM125.67 120.293C125.796 121.988 127.177 122.773 128.982 122.773C130.772 122.773 131.997 121.988 131.997 120.576C131.997 119.273 131.133 118.66 129.673 118.425L128.355 118.205C127.852 118.127 127.601 117.907 127.601 117.53C127.601 117.059 128.041 116.761 128.716 116.761C129.705 116.761 130.238 117.153 130.364 117.938L131.918 117.875C131.792 116.337 130.646 115.474 128.731 115.474C126.973 115.474 125.859 116.384 125.859 117.703C125.859 118.99 126.675 119.54 128.15 119.775L129.249 119.963C129.94 120.073 130.254 120.277 130.254 120.748C130.254 121.251 129.689 121.486 128.998 121.486C128.041 121.486 127.413 121.062 127.303 120.23L125.67 120.293Z" fill="url(#paint3_linear_79_82793)"/>
<path d="M78.7056 100.869C78.7056 99.4563 77.7794 98.6714 76.5864 98.4516C77.6538 98.279 78.4074 97.4941 78.4074 96.3795C78.4074 94.7626 77.3399 93.6951 74.8439 93.6951H70.4484V103.585H75.095C77.4027 103.585 78.7056 102.58 78.7056 100.869ZM74.8753 99.2993C76.0997 99.2993 76.6963 99.8331 76.6963 100.665C76.6963 101.481 76.0997 101.999 74.8753 101.999H72.3635V99.2993H74.8753ZM72.3635 95.2806H74.7183C75.8956 95.2806 76.398 95.8143 76.398 96.5522C76.398 97.29 75.8956 97.808 74.7183 97.808H72.3635V95.2806ZM84.127 100.587C84.127 101.701 83.3735 102.455 82.3845 102.455C81.788 102.455 81.4269 102.172 81.4269 101.701C81.4269 101.01 82.0078 100.869 82.8241 100.696L84.127 100.414V100.587ZM85.9637 99.1424C85.9637 97.3214 84.7863 96.4737 82.9968 96.4737C81.1601 96.4737 80.0769 97.4627 79.8414 98.8755L81.5525 99.0325C81.7095 98.3575 82.1334 97.8865 82.9183 97.8865C83.7189 97.8865 84.127 98.3575 84.127 99.1267V99.2837L82.2275 99.6604C80.6577 99.9744 79.5902 100.524 79.5902 101.842C79.5902 103.036 80.4693 103.758 81.9136 103.758C82.934 103.758 83.8759 103.334 84.2683 102.533C84.441 103.287 84.9433 103.742 85.7282 103.742C86.3562 103.742 86.7329 103.538 87.0312 103.302V102.298C86.8271 102.392 86.6387 102.439 86.4504 102.439C86.1521 102.439 85.9637 102.266 85.9637 101.905V99.1424ZM89.8072 99.8802C89.8072 98.7185 90.4037 97.965 91.3613 97.965C92.2875 97.965 92.7114 98.5772 92.7114 99.6447V103.585H94.5952V99.268C94.5952 97.7295 93.9201 96.4737 92.0677 96.4737C91.0317 96.4737 90.1526 97.0074 89.8072 97.7923V96.662H87.9234V103.585H89.8072V99.8802ZM97.9936 101.23L98.7942 100.492L101.18 103.585H103.331L100.176 99.4406L103.221 96.662H100.945L97.9936 99.4406V93.6951H96.1098V103.585H97.9936V101.23ZM110.245 93.6951L106.242 103.585H108.22L109.177 101.136H113.385L114.374 103.585H116.461L112.427 93.6951H110.245ZM111.234 95.9242H111.297L112.788 99.629H109.774L111.234 95.9242ZM116.827 100.131C116.827 102.329 118.349 103.773 120.484 103.773C122.541 103.773 123.671 102.423 123.828 100.759L122.243 100.618C122.101 101.67 121.521 102.329 120.484 102.329C119.448 102.329 118.726 101.56 118.726 100.131C118.726 98.6871 119.448 97.9179 120.484 97.9179C121.521 97.9179 122.101 98.5615 122.243 99.5976L123.828 99.4877C123.671 97.8237 122.541 96.4737 120.484 96.4737C118.349 96.4737 116.827 97.9336 116.827 100.131ZM124.645 100.131C124.645 102.329 126.168 103.773 128.303 103.773C130.359 103.773 131.49 102.423 131.647 100.759L130.061 100.618C129.92 101.67 129.339 102.329 128.303 102.329C127.267 102.329 126.545 101.56 126.545 100.131C126.545 98.6871 127.267 97.9179 128.303 97.9179C129.339 97.9179 129.92 98.5615 130.061 99.5976L131.647 99.4877C131.49 97.8237 130.359 96.4737 128.303 96.4737C126.168 96.4737 124.645 97.9336 124.645 100.131ZM134.363 100.131C134.363 98.8127 134.96 97.9022 136.106 97.9022C137.267 97.9022 137.864 98.8127 137.864 100.131C137.864 101.434 137.267 102.345 136.106 102.345C134.96 102.345 134.363 101.434 134.363 100.131ZM139.763 100.131C139.763 97.9807 138.256 96.4737 136.106 96.4737C133.971 96.4737 132.464 97.9807 132.464 100.131C132.464 102.282 133.971 103.773 136.106 103.773C138.256 103.773 139.763 102.282 139.763 100.131ZM145.566 100.367C145.566 101.544 145.001 102.298 144.075 102.298C143.149 102.298 142.756 101.67 142.756 100.618V96.662H140.872V100.995C140.872 102.533 141.5 103.773 143.337 103.773C144.389 103.773 145.205 103.255 145.566 102.455V103.585H147.45V96.662H145.566V100.367ZM150.929 99.8802C150.929 98.7185 151.526 97.965 152.483 97.965C153.409 97.965 153.833 98.5772 153.833 99.6447V103.585H155.717V99.268C155.717 97.7295 155.042 96.4737 153.19 96.4737C152.154 96.4737 151.274 97.0074 150.929 97.7923V96.662H149.045V103.585H150.929V99.8802ZM157.467 101.827C157.467 103.302 158.362 103.773 159.429 103.773C160.277 103.773 160.842 103.554 161.345 103.177V101.937C160.936 102.125 160.544 102.266 160.167 102.266C159.602 102.266 159.335 101.999 159.335 101.403V97.9807H161.219V96.662H159.335V94.7469H158.189L157.969 95.6888C157.812 96.3324 157.624 96.6777 156.949 96.7876L156.478 96.8661V97.9807H157.467V101.827ZM75.409 122.585V114.328H78.9568V112.695H69.946V114.328H73.4467V122.585H75.409ZM84.0651 115.756C83.861 115.584 83.5157 115.474 83.0918 115.474C82.1342 115.474 81.4121 116.196 81.1609 116.981V115.662H79.2771V122.585H81.1609V119.163C81.1609 117.907 81.8202 117.216 82.7935 117.216C83.2488 117.216 83.5627 117.31 83.9238 117.514L84.0651 115.756ZM88.9867 119.587C88.9867 120.701 88.2332 121.455 87.2442 121.455C86.6477 121.455 86.2866 121.172 86.2866 120.701C86.2866 120.01 86.8675 119.869 87.6838 119.696L88.9867 119.414V119.587ZM90.8234 118.142C90.8234 116.321 89.646 115.474 87.8565 115.474C86.0198 115.474 84.9366 116.463 84.7011 117.875L86.4122 118.032C86.5692 117.357 86.9931 116.887 87.778 116.887C88.5786 116.887 88.9867 117.357 88.9867 118.127V118.284L87.0872 118.66C85.5174 118.974 84.4499 119.524 84.4499 120.842C84.4499 122.036 85.329 122.758 86.7733 122.758C87.7937 122.758 88.7356 122.334 89.128 121.533C89.3007 122.287 89.803 122.742 90.5879 122.742C91.2159 122.742 91.5926 122.538 91.8909 122.302V121.298C91.6868 121.392 91.4984 121.439 91.3101 121.439C91.0118 121.439 90.8234 121.266 90.8234 120.905V118.142ZM94.6669 118.88C94.6669 117.719 95.2634 116.965 96.221 116.965C97.1472 116.965 97.5711 117.577 97.5711 118.645V122.585H99.4549V118.268C99.4549 116.73 98.7798 115.474 96.9274 115.474C95.8914 115.474 95.0123 116.007 94.6669 116.792V115.662H92.7831V122.585H94.6669V118.88ZM100.467 120.293C100.593 121.988 101.974 122.773 103.779 122.773C105.569 122.773 106.794 121.988 106.794 120.576C106.794 119.273 105.93 118.66 104.47 118.425L103.152 118.205C102.649 118.127 102.398 117.907 102.398 117.53C102.398 117.059 102.838 116.761 103.513 116.761C104.502 116.761 105.035 117.153 105.161 117.938L106.715 117.875C106.589 116.337 105.443 115.474 103.528 115.474C101.77 115.474 100.656 116.384 100.656 117.703C100.656 118.99 101.472 119.54 102.947 119.775L104.046 119.963C104.737 120.073 105.051 120.277 105.051 120.748C105.051 121.251 104.486 121.486 103.795 121.486C102.838 121.486 102.21 121.062 102.1 120.23L100.467 120.293ZM108.242 116.981V122.585H110.11V116.981H111.963V115.662H110.11V114.94C110.11 114.296 110.362 113.857 110.942 113.857C111.429 113.857 111.727 114.155 111.884 114.595L113.093 114.202C112.795 113.103 112.026 112.507 110.77 112.507C109.216 112.507 108.242 113.464 108.242 115.081V115.662H107.222V116.981H108.242ZM117.752 120.167C117.485 120.952 116.936 121.345 116.01 121.345C114.989 121.345 114.189 120.623 114.126 119.602H119.322V118.927C119.322 117.043 118.161 115.474 115.9 115.474C113.828 115.474 112.274 117.043 112.274 119.226C112.274 121.408 113.812 122.773 115.947 122.773C117.721 122.773 118.914 121.863 119.275 120.324L117.752 120.167ZM114.157 118.425C114.33 117.562 114.848 116.855 115.884 116.855C116.936 116.855 117.423 117.624 117.485 118.425H114.157ZM125.319 115.756C125.115 115.584 124.769 115.474 124.346 115.474C123.388 115.474 122.666 116.196 122.415 116.981V115.662H120.531V122.585H122.415V119.163C122.415 117.907 123.074 117.216 124.047 117.216C124.503 117.216 124.817 117.31 125.178 117.514L125.319 115.756ZM125.67 120.293C125.796 121.988 127.177 122.773 128.982 122.773C130.772 122.773 131.997 121.988 131.997 120.576C131.997 119.273 131.133 118.66 129.673 118.425L128.355 118.205C127.852 118.127 127.601 117.907 127.601 117.53C127.601 117.059 128.041 116.761 128.716 116.761C129.705 116.761 130.238 117.153 130.364 117.938L131.918 117.875C131.792 116.337 130.646 115.474 128.731 115.474C126.973 115.474 125.859 116.384 125.859 117.703C125.859 118.99 126.675 119.54 128.15 119.775L129.249 119.963C129.94 120.073 130.254 120.277 130.254 120.748C130.254 121.251 129.689 121.486 128.998 121.486C128.041 121.486 127.413 121.062 127.303 120.23L125.67 120.293Z" fill="#171717"/>
</g>
<defs>
<filter id="filter0_d_79_82793" x="64" y="0" width="177.17" height="93.1699" filterUnits="userSpaceOnUse" color-interpolation-filters="sRGB">
<feFlood flood-opacity="0" result="BackgroundImageFix"/>
<feColorMatrix in="SourceAlpha" type="matrix" values="0 0 0 0 0 0 0 0 0 0 0 0 0 0 0 0 0 0 127 0" result="hardAlpha"/>
<feOffset dx="2" dy="10"/>
<feGaussianBlur stdDeviation="12.5"/>
<feComposite in2="hardAlpha" operator="out"/>
<feColorMatrix type="matrix" values="0 0 0 0 0.00784314 0 0 0 0 0.0196078 0 0 0 0 0.258824 0 0 0 0.12 0"/>
<feBlend mode="normal" in2="BackgroundImageFix" result="effect1_dropShadow_79_82793"/>
<feBlend mode="normal" in="SourceGraphic" in2="effect1_dropShadow_79_82793" result="shape"/>
</filter>
<filter id="filter1_d_79_82793" x="0" y="61" width="247.17" height="110.17" filterUnits="userSpaceOnUse" color-interpolation-filters="sRGB">
<feFlood flood-opacity="0" result="BackgroundImageFix"/>
<feColorMatrix in="SourceAlpha" type="matrix" values="0 0 0 0 0 0 0 0 0 0 0 0 0 0 0 0 0 0 127 0" result="hardAlpha"/>
<feOffset dx="2" dy="10"/>
<feGaussianBlur stdDeviation="12.5"/>
<feComposite in2="hardAlpha" operator="out"/>
<feColorMatrix type="matrix" values="0 0 0 0 0.00784314 0 0 0 0 0.0196078 0 0 0 0 0.258824 0 0 0 0.12 0"/>
<feBlend mode="normal" in2="BackgroundImageFix" result="effect1_dropShadow_79_82793"/>
<feBlend mode="normal" in="SourceGraphic" in2="effect1_dropShadow_79_82793" result="shape"/>
</filter>
<linearGradient id="paint0_linear_79_82793" x1="123.13" y1="56.3577" x2="122.841" y2="26.1983" gradientUnits="userSpaceOnUse">
<stop offset="0.198969" stop-color="#B5DEF9"/>
<stop offset="0.498642" stop-color="#C6B5D4"/>
<stop offset="0.70029" stop-color="#D19CBE"/>
<stop offset="1" stop-color="#F8F1E9"/>
</linearGradient>
<linearGradient id="paint1_linear_79_82793" x1="133.585" y1="36.585" x2="202.585" y2="36.585" gradientUnits="userSpaceOnUse">
<stop stop-color="#F1A4DE"/>
<stop offset="0.505236" stop-color="#B166EB"/>
<stop offset="1" stop-color="#7D39F5"/>
</linearGradient>
<linearGradient id="paint2_linear_79_82793" x1="59.1304" y1="117.358" x2="58.841" y2="87.1983" gradientUnits="userSpaceOnUse">
<stop offset="0.198969" stop-color="#B5DEF9"/>
<stop offset="0.498642" stop-color="#C6B5D4"/>
<stop offset="0.70029" stop-color="#D19CBE"/>
<stop offset="1" stop-color="#F8F1E9"/>
</linearGradient>
<linearGradient id="paint3_linear_79_82793" x1="69.585" y1="108.085" x2="208.585" y2="108.085" gradientUnits="userSpaceOnUse">
<stop stop-color="#F1A4DE"/>
<stop offset="0.505236" stop-color="#B166EB"/>
<stop offset="1" stop-color="#7D39F5"/>
</linearGradient>
</defs>
</svg>
