<svg width="349" height="226" viewBox="0 0 349 226" fill="none" xmlns="http://www.w3.org/2000/svg">
<g filter="url(#filter0_d_79_82795)">
<rect x="53" y="15.2529" width="261.892" height="52.1617" rx="6.896" fill="#F4F5F7"/>
<path d="M240.455 41.4912V37.6552H242.593C244.261 37.6552 245.064 38.3375 245.064 39.5656C245.064 40.8089 244.261 41.4912 242.593 41.4912H240.455ZM240.455 42.5678H242.623C244.989 42.5678 246.338 41.4458 246.338 39.5656C246.338 37.7007 244.989 36.5787 242.623 36.5787H239.151V46.1309H240.455V42.5678ZM251.373 43.1742C251.373 44.5085 250.479 45.3879 249.311 45.3879C248.553 45.3879 248.174 44.9634 248.174 44.4024C248.174 43.5988 248.841 43.4017 249.887 43.1742L251.373 42.8558V43.1742ZM252.586 41.8551C252.586 40.1721 251.601 39.323 249.933 39.323C248.371 39.323 247.385 40.2328 247.128 41.4761L248.25 41.6277C248.447 40.8544 248.962 40.2934 249.918 40.2934C250.842 40.2934 251.373 40.8544 251.373 41.7642V42.0219L249.584 42.3858C247.992 42.7042 246.915 43.2197 246.915 44.4782C246.915 45.6153 247.749 46.3128 249.038 46.3128C250.115 46.3128 251.055 45.7366 251.419 44.9634C251.494 45.7518 251.98 46.2673 252.662 46.2673C253.177 46.2673 253.45 46.1005 253.678 45.8731V45.1908C253.496 45.2969 253.253 45.3424 253.102 45.3424C252.783 45.3424 252.586 45.1756 252.586 44.8269V41.8551ZM254.667 39.505V46.1309H255.926V39.505H254.667ZM254.637 38.0039H255.941V36.5787H254.637V38.0039ZM262.647 43.0075C262.647 44.463 261.737 45.3121 260.539 45.3121C259.235 45.3121 258.508 44.3417 258.508 42.8255C258.508 41.3093 259.235 40.3389 260.539 40.3389C261.737 40.3389 262.647 41.188 262.647 42.6284V43.0075ZM262.632 46.1309H263.89V36.5787H262.632V40.8999C262.328 40.0812 261.495 39.323 260.251 39.323C258.28 39.323 257.219 40.8696 257.219 42.8255C257.219 44.7814 258.28 46.3128 260.251 46.3128C261.495 46.3128 262.328 45.5699 262.632 44.7511V46.1309Z" fill="#1C35F0"/>
<path d="M240.455 41.4912V37.6552H242.593C244.261 37.6552 245.064 38.3375 245.064 39.5656C245.064 40.8089 244.261 41.4912 242.593 41.4912H240.455ZM240.455 42.5678H242.623C244.989 42.5678 246.338 41.4458 246.338 39.5656C246.338 37.7007 244.989 36.5787 242.623 36.5787H239.151V46.1309H240.455V42.5678ZM251.373 43.1742C251.373 44.5085 250.479 45.3879 249.311 45.3879C248.553 45.3879 248.174 44.9634 248.174 44.4024C248.174 43.5988 248.841 43.4017 249.887 43.1742L251.373 42.8558V43.1742ZM252.586 41.8551C252.586 40.1721 251.601 39.323 249.933 39.323C248.371 39.323 247.385 40.2328 247.128 41.4761L248.25 41.6277C248.447 40.8544 248.962 40.2934 249.918 40.2934C250.842 40.2934 251.373 40.8544 251.373 41.7642V42.0219L249.584 42.3858C247.992 42.7042 246.915 43.2197 246.915 44.4782C246.915 45.6153 247.749 46.3128 249.038 46.3128C250.115 46.3128 251.055 45.7366 251.419 44.9634C251.494 45.7518 251.98 46.2673 252.662 46.2673C253.177 46.2673 253.45 46.1005 253.678 45.8731V45.1908C253.496 45.2969 253.253 45.3424 253.102 45.3424C252.783 45.3424 252.586 45.1756 252.586 44.8269V41.8551ZM254.667 39.505V46.1309H255.926V39.505H254.667ZM254.637 38.0039H255.941V36.5787H254.637V38.0039ZM262.647 43.0075C262.647 44.463 261.737 45.3121 260.539 45.3121C259.235 45.3121 258.508 44.3417 258.508 42.8255C258.508 41.3093 259.235 40.3389 260.539 40.3389C261.737 40.3389 262.647 41.188 262.647 42.6284V43.0075ZM262.632 46.1309H263.89V36.5787H262.632V40.8999C262.328 40.0812 261.495 39.323 260.251 39.323C258.28 39.323 257.219 40.8696 257.219 42.8255C257.219 44.7814 258.28 46.3128 260.251 46.3128C261.495 46.3128 262.328 45.5699 262.632 44.7511V46.1309Z" fill="#5D6381"/>
</g>
<rect x="58.5137" y="20.8921" width="126.811" height="40.8835" rx="6.89189" fill="white"/>
<path d="M104.986 46.3133C107.139 46.3133 108.868 45.2671 108.868 42.4773V36.5792H107.579V42.5076C107.579 44.3119 106.654 45.2065 104.986 45.2065C103.318 45.2065 102.424 44.3119 102.424 42.4924V36.5792H101.12V42.4773C101.12 45.2671 102.833 46.3133 104.986 46.3133ZM111.782 42.3256C111.782 41.1127 112.57 40.3242 113.571 40.3242C114.617 40.3242 115.148 41.0217 115.148 42.1285V46.1313H116.406V42.0224C116.406 40.4759 115.709 39.3235 113.98 39.3235C112.995 39.3235 112.1 39.8845 111.782 40.6881V39.5055H110.524V46.1313H111.782V42.3256ZM119.273 42.6289C119.273 41.1885 120.198 40.3394 121.396 40.3394C122.7 40.3394 123.413 41.3098 123.413 42.826C123.413 44.3422 122.7 45.3126 121.396 45.3126C120.198 45.3126 119.273 44.4635 119.273 43.0079V42.6289ZM119.304 44.7516C119.592 45.5703 120.441 46.3133 121.684 46.3133C123.64 46.3133 124.717 44.7819 124.717 42.826C124.717 40.8701 123.64 39.3235 121.684 39.3235C120.441 39.3235 119.592 40.0816 119.304 40.9004V39.5055H118.045V48.6786H119.304V44.7516ZM130.15 43.1747C130.15 44.509 129.256 45.3884 128.088 45.3884C127.33 45.3884 126.951 44.9639 126.951 44.4029C126.951 43.5993 127.618 43.4022 128.664 43.1747L130.15 42.8563V43.1747ZM131.363 41.8556C131.363 40.1726 130.378 39.3235 128.71 39.3235C127.148 39.3235 126.163 40.2333 125.905 41.4766L127.027 41.6282C127.224 40.8549 127.74 40.2939 128.695 40.2939C129.62 40.2939 130.15 40.8549 130.15 41.7646V42.0224L128.361 42.3863C126.769 42.7047 125.693 43.2202 125.693 44.4787C125.693 45.6158 126.527 46.3133 127.815 46.3133C128.892 46.3133 129.832 45.7371 130.196 44.9639C130.272 45.7523 130.757 46.2678 131.439 46.2678C131.955 46.2678 132.228 46.101 132.455 45.8736V45.1913C132.273 45.2974 132.03 45.3429 131.879 45.3429C131.56 45.3429 131.363 45.1761 131.363 44.8274V41.8556ZM133.444 39.5055V46.1313H134.703V39.5055H133.444ZM133.414 38.0044H134.718V36.5792H133.414V38.0044ZM141.424 43.0079C141.424 44.4635 140.514 45.3126 139.317 45.3126C138.013 45.3126 137.285 44.3422 137.285 42.826C137.285 41.3098 138.013 40.3394 139.317 40.3394C140.514 40.3394 141.424 41.1885 141.424 42.6289V43.0079ZM141.409 46.1313H142.667V36.5792H141.409V40.9004C141.106 40.0816 140.272 39.3235 139.028 39.3235C137.057 39.3235 135.996 40.8701 135.996 42.826C135.996 44.7819 137.057 46.3133 139.028 46.3133C140.272 46.3133 141.106 45.5703 141.409 44.7516V46.1313Z" fill="#1C35F0"/>
<path d="M104.986 46.3133C107.139 46.3133 108.868 45.2671 108.868 42.4773V36.5792H107.579V42.5076C107.579 44.3119 106.654 45.2065 104.986 45.2065C103.318 45.2065 102.424 44.3119 102.424 42.4924V36.5792H101.12V42.4773C101.12 45.2671 102.833 46.3133 104.986 46.3133ZM111.782 42.3256C111.782 41.1127 112.57 40.3242 113.571 40.3242C114.617 40.3242 115.148 41.0217 115.148 42.1285V46.1313H116.406V42.0224C116.406 40.4759 115.709 39.3235 113.98 39.3235C112.995 39.3235 112.1 39.8845 111.782 40.6881V39.5055H110.524V46.1313H111.782V42.3256ZM119.273 42.6289C119.273 41.1885 120.198 40.3394 121.396 40.3394C122.7 40.3394 123.413 41.3098 123.413 42.826C123.413 44.3422 122.7 45.3126 121.396 45.3126C120.198 45.3126 119.273 44.4635 119.273 43.0079V42.6289ZM119.304 44.7516C119.592 45.5703 120.441 46.3133 121.684 46.3133C123.64 46.3133 124.717 44.7819 124.717 42.826C124.717 40.8701 123.64 39.3235 121.684 39.3235C120.441 39.3235 119.592 40.0816 119.304 40.9004V39.5055H118.045V48.6786H119.304V44.7516ZM130.15 43.1747C130.15 44.509 129.256 45.3884 128.088 45.3884C127.33 45.3884 126.951 44.9639 126.951 44.4029C126.951 43.5993 127.618 43.4022 128.664 43.1747L130.15 42.8563V43.1747ZM131.363 41.8556C131.363 40.1726 130.378 39.3235 128.71 39.3235C127.148 39.3235 126.163 40.2333 125.905 41.4766L127.027 41.6282C127.224 40.8549 127.74 40.2939 128.695 40.2939C129.62 40.2939 130.15 40.8549 130.15 41.7646V42.0224L128.361 42.3863C126.769 42.7047 125.693 43.2202 125.693 44.4787C125.693 45.6158 126.527 46.3133 127.815 46.3133C128.892 46.3133 129.832 45.7371 130.196 44.9639C130.272 45.7523 130.757 46.2678 131.439 46.2678C131.955 46.2678 132.228 46.101 132.455 45.8736V45.1913C132.273 45.2974 132.03 45.3429 131.879 45.3429C131.56 45.3429 131.363 45.1761 131.363 44.8274V41.8556ZM133.444 39.5055V46.1313H134.703V39.5055H133.444ZM133.414 38.0044H134.718V36.5792H133.414V38.0044ZM141.424 43.0079C141.424 44.4635 140.514 45.3126 139.317 45.3126C138.013 45.3126 137.285 44.3422 137.285 42.826C137.285 41.3098 138.013 40.3394 139.317 40.3394C140.514 40.3394 141.424 41.1885 141.424 42.6289V43.0079ZM141.409 46.1313H142.667V36.5792H141.409V40.9004C141.106 40.0816 140.272 39.3235 139.028 39.3235C137.057 39.3235 135.996 40.8701 135.996 42.826C135.996 44.7819 137.057 46.3133 139.028 46.3133C140.272 46.3133 141.106 45.5703 141.409 44.7516V46.1313Z" fill="#171717"/>
<g filter="url(#filter1_d_79_82795)">
<rect x="23" y="103.212" width="298.895" height="87" rx="6.95103" fill="white"/>
<path d="M45.6321 120.602C45.6321 118.019 43.9011 116.248 41.4643 116.248C39.0142 116.248 37.2965 118.019 37.2965 120.602C37.2965 123.186 39.0142 124.957 41.4643 124.957C43.9011 124.957 45.6321 123.186 45.6321 120.602ZM44.4337 120.602C44.4337 122.653 43.2752 123.971 41.4643 123.971C39.6534 123.971 38.4816 122.653 38.4816 120.602C38.4816 118.552 39.6534 117.234 41.4643 117.234C43.2752 117.234 44.4337 118.552 44.4337 120.602ZM51.094 124.797L54.4762 116.408H53.3044L50.548 123.465H50.4948L47.6585 116.408H46.4734L49.8423 124.797H51.094ZM62.0928 123.838H57.2325V120.949H61.0009V120.003H57.2325V117.367H61.9729V116.408H56.114V124.797H62.0928V123.838ZM70.7594 124.797C70.4797 124.491 70.4398 124.011 70.3332 122.786C70.2534 121.801 69.7607 121.175 68.7354 120.975C69.7607 120.855 70.6395 120.176 70.6395 118.885C70.6395 117.393 69.6142 116.408 67.4837 116.408H64.0749V124.797H65.2067V121.415H67.5769C68.722 121.415 69.1615 122.041 69.2147 122.973C69.2813 123.958 69.4011 124.571 69.5609 124.797H70.7594ZM65.2067 120.496V117.353H67.4171C68.8419 117.353 69.481 117.966 69.481 118.925C69.481 119.963 68.8419 120.496 67.4171 120.496H65.2067ZM73.8703 123.851V117.353H75.6813C77.7319 117.353 78.8504 118.565 78.8504 120.602C78.8504 122.64 77.7319 123.851 75.6813 123.851H73.8703ZM72.7119 124.797H75.7479C78.3844 124.797 80.0488 123.226 80.0488 120.602C80.0488 117.979 78.3844 116.408 75.7479 116.408H72.7119V124.797ZM85.2231 124.957C87.1139 124.957 88.6319 124.038 88.6319 121.588V116.408H87.5V121.614C87.5 123.199 86.6878 123.985 85.2231 123.985C83.7583 123.985 82.9727 123.199 82.9727 121.601V116.408H81.8275V121.588C81.8275 124.038 83.3322 124.957 85.2231 124.957ZM96.7839 123.838H91.9237V120.949H95.692V120.003H91.9237V117.367H96.6641V116.408H90.8052V124.797H96.7839V123.838Z" fill="#1C35F0"/>
<path d="M45.6321 120.602C45.6321 118.019 43.9011 116.248 41.4643 116.248C39.0142 116.248 37.2965 118.019 37.2965 120.602C37.2965 123.186 39.0142 124.957 41.4643 124.957C43.9011 124.957 45.6321 123.186 45.6321 120.602ZM44.4337 120.602C44.4337 122.653 43.2752 123.971 41.4643 123.971C39.6534 123.971 38.4816 122.653 38.4816 120.602C38.4816 118.552 39.6534 117.234 41.4643 117.234C43.2752 117.234 44.4337 118.552 44.4337 120.602ZM51.094 124.797L54.4762 116.408H53.3044L50.548 123.465H50.4948L47.6585 116.408H46.4734L49.8423 124.797H51.094ZM62.0928 123.838H57.2325V120.949H61.0009V120.003H57.2325V117.367H61.9729V116.408H56.114V124.797H62.0928V123.838ZM70.7594 124.797C70.4797 124.491 70.4398 124.011 70.3332 122.786C70.2534 121.801 69.7607 121.175 68.7354 120.975C69.7607 120.855 70.6395 120.176 70.6395 118.885C70.6395 117.393 69.6142 116.408 67.4837 116.408H64.0749V124.797H65.2067V121.415H67.5769C68.722 121.415 69.1615 122.041 69.2147 122.973C69.2813 123.958 69.4011 124.571 69.5609 124.797H70.7594ZM65.2067 120.496V117.353H67.4171C68.8419 117.353 69.481 117.966 69.481 118.925C69.481 119.963 68.8419 120.496 67.4171 120.496H65.2067ZM73.8703 123.851V117.353H75.6813C77.7319 117.353 78.8504 118.565 78.8504 120.602C78.8504 122.64 77.7319 123.851 75.6813 123.851H73.8703ZM72.7119 124.797H75.7479C78.3844 124.797 80.0488 123.226 80.0488 120.602C80.0488 117.979 78.3844 116.408 75.7479 116.408H72.7119V124.797ZM85.2231 124.957C87.1139 124.957 88.6319 124.038 88.6319 121.588V116.408H87.5V121.614C87.5 123.199 86.6878 123.985 85.2231 123.985C83.7583 123.985 82.9727 123.199 82.9727 121.601V116.408H81.8275V121.588C81.8275 124.038 83.3322 124.957 85.2231 124.957ZM96.7839 123.838H91.9237V120.949H95.692V120.003H91.9237V117.367H96.6641V116.408H90.8052V124.797H96.7839V123.838Z" fill="#9EA0A9"/>
<rect x="34.585" y="148.506" width="30.1211" height="30.1211" rx="6.14755" fill="#F4F5F7"/>
<path d="M78.2207 151.013V155.729C78.2207 156.939 77.7298 157.532 76.7137 157.532C75.6747 157.532 75.1267 156.836 75.0468 155.672L74.1106 155.729C74.1791 157.441 75.1724 158.343 76.6909 158.343C78.2207 158.343 79.2026 157.475 79.2026 155.751V151.013H78.2207ZM81.0951 155.717C81.0951 154.598 81.6545 153.822 82.6592 153.822C83.6753 153.822 84.2462 154.598 84.2462 155.717C84.2462 156.825 83.6753 157.612 82.6592 157.612C81.6545 157.612 81.0951 156.825 81.0951 155.717ZM85.2166 155.717C85.2166 154.164 84.132 153.08 82.6592 153.08C81.1978 153.08 80.1247 154.164 80.1247 155.717C80.1247 157.27 81.1978 158.343 82.6592 158.343C84.132 158.343 85.2166 157.27 85.2166 155.717ZM87.145 155.34C87.145 154.427 87.7386 153.833 88.4922 153.833C89.2799 153.833 89.6795 154.359 89.6795 155.192V158.206H90.6271V155.112C90.6271 153.948 90.1019 153.08 88.8004 153.08C88.0583 153.08 87.3847 153.502 87.145 154.107V151.013H86.1974V158.206H87.145V155.34ZM92.8088 155.34C92.8088 154.427 93.4025 153.833 94.156 153.833C94.9438 153.833 95.3434 154.359 95.3434 155.192V158.206H96.291V155.112C96.291 153.948 95.7658 153.08 94.4643 153.08C93.7222 153.08 93.0486 153.502 92.8088 154.107V153.217H91.8612V158.206H92.8088V155.34ZM103.607 158.206L105.707 152.018H105.753V158.206H106.746V151.013H105.182L103.264 156.87H103.23L101.209 151.013H99.6222V158.206H100.547V152.018H100.593L102.773 158.206H103.607ZM108.745 155.717C108.745 154.598 109.305 153.822 110.309 153.822C111.326 153.822 111.896 154.598 111.896 155.717C111.896 156.825 111.326 157.612 110.309 157.612C109.305 157.612 108.745 156.825 108.745 155.717ZM112.867 155.717C112.867 154.164 111.782 153.08 110.309 153.08C108.848 153.08 107.775 154.164 107.775 155.717C107.775 157.27 108.848 158.343 110.309 158.343C111.782 158.343 112.867 157.27 112.867 155.717ZM113.561 155.717C113.561 157.304 114.612 158.343 116.119 158.343C117.58 158.343 118.368 157.373 118.471 156.162L117.637 156.083C117.557 156.962 117.032 157.59 116.107 157.59C115.171 157.59 114.532 156.87 114.532 155.717C114.532 154.564 115.171 153.845 116.107 153.845C117.032 153.845 117.557 154.438 117.637 155.318L118.471 155.26C118.368 154.062 117.58 153.08 116.119 153.08C114.612 153.08 113.561 154.13 113.561 155.717ZM120.392 156.402L121.089 155.786L123.075 158.206H124.194L121.796 155.26L124.091 153.217H122.904L120.392 155.477V151.013H119.445V158.206H120.392V156.402ZM125.313 155.717C125.313 154.598 125.873 153.822 126.877 153.822C127.893 153.822 128.464 154.598 128.464 155.717C128.464 156.825 127.893 157.612 126.877 157.612C125.873 157.612 125.313 156.825 125.313 155.717ZM129.435 155.717C129.435 154.164 128.35 153.08 126.877 153.08C125.416 153.08 124.343 154.164 124.343 155.717C124.343 157.27 125.416 158.343 126.877 158.343C128.35 158.343 129.435 157.27 129.435 155.717ZM132.735 158.206L134.79 153.217H133.866L132.347 157.053H132.301L130.749 153.217H129.755L131.81 158.206H132.735ZM135.522 153.217V158.206H136.469V153.217H135.522ZM135.499 152.087H136.481V151.013H135.499V152.087ZM140.868 155.98C140.868 156.984 140.195 157.647 139.316 157.647C138.745 157.647 138.459 157.327 138.459 156.905C138.459 156.299 138.962 156.151 139.749 155.98L140.868 155.74V155.98ZM141.782 154.986C141.782 153.719 141.04 153.08 139.784 153.08C138.608 153.08 137.866 153.765 137.672 154.701L138.516 154.815C138.665 154.233 139.053 153.811 139.772 153.811C140.469 153.811 140.868 154.233 140.868 154.918V155.112L139.521 155.386C138.322 155.626 137.512 156.014 137.512 156.962C137.512 157.818 138.14 158.343 139.11 158.343C139.921 158.343 140.629 157.909 140.903 157.327C140.96 157.921 141.325 158.309 141.839 158.309C142.227 158.309 142.432 158.183 142.604 158.012V157.498C142.467 157.578 142.284 157.612 142.17 157.612C141.93 157.612 141.782 157.487 141.782 157.224V154.986ZM144.296 156.402L144.993 155.786L146.979 158.206H148.098L145.701 155.26L147.995 153.217H146.808L144.296 155.477V151.013H143.349V158.206H144.296V156.402Z" fill="url(#paint0_linear_79_82795)"/>
<path d="M78.2207 151.013V155.729C78.2207 156.939 77.7298 157.532 76.7137 157.532C75.6747 157.532 75.1267 156.836 75.0468 155.672L74.1106 155.729C74.1791 157.441 75.1724 158.343 76.6909 158.343C78.2207 158.343 79.2026 157.475 79.2026 155.751V151.013H78.2207ZM81.0951 155.717C81.0951 154.598 81.6545 153.822 82.6592 153.822C83.6753 153.822 84.2462 154.598 84.2462 155.717C84.2462 156.825 83.6753 157.612 82.6592 157.612C81.6545 157.612 81.0951 156.825 81.0951 155.717ZM85.2166 155.717C85.2166 154.164 84.132 153.08 82.6592 153.08C81.1978 153.08 80.1247 154.164 80.1247 155.717C80.1247 157.27 81.1978 158.343 82.6592 158.343C84.132 158.343 85.2166 157.27 85.2166 155.717ZM87.145 155.34C87.145 154.427 87.7386 153.833 88.4922 153.833C89.2799 153.833 89.6795 154.359 89.6795 155.192V158.206H90.6271V155.112C90.6271 153.948 90.1019 153.08 88.8004 153.08C88.0583 153.08 87.3847 153.502 87.145 154.107V151.013H86.1974V158.206H87.145V155.34ZM92.8088 155.34C92.8088 154.427 93.4025 153.833 94.156 153.833C94.9438 153.833 95.3434 154.359 95.3434 155.192V158.206H96.291V155.112C96.291 153.948 95.7658 153.08 94.4643 153.08C93.7222 153.08 93.0486 153.502 92.8088 154.107V153.217H91.8612V158.206H92.8088V155.34ZM103.607 158.206L105.707 152.018H105.753V158.206H106.746V151.013H105.182L103.264 156.87H103.23L101.209 151.013H99.6222V158.206H100.547V152.018H100.593L102.773 158.206H103.607ZM108.745 155.717C108.745 154.598 109.305 153.822 110.309 153.822C111.326 153.822 111.896 154.598 111.896 155.717C111.896 156.825 111.326 157.612 110.309 157.612C109.305 157.612 108.745 156.825 108.745 155.717ZM112.867 155.717C112.867 154.164 111.782 153.08 110.309 153.08C108.848 153.08 107.775 154.164 107.775 155.717C107.775 157.27 108.848 158.343 110.309 158.343C111.782 158.343 112.867 157.27 112.867 155.717ZM113.561 155.717C113.561 157.304 114.612 158.343 116.119 158.343C117.58 158.343 118.368 157.373 118.471 156.162L117.637 156.083C117.557 156.962 117.032 157.59 116.107 157.59C115.171 157.59 114.532 156.87 114.532 155.717C114.532 154.564 115.171 153.845 116.107 153.845C117.032 153.845 117.557 154.438 117.637 155.318L118.471 155.26C118.368 154.062 117.58 153.08 116.119 153.08C114.612 153.08 113.561 154.13 113.561 155.717ZM120.392 156.402L121.089 155.786L123.075 158.206H124.194L121.796 155.26L124.091 153.217H122.904L120.392 155.477V151.013H119.445V158.206H120.392V156.402ZM125.313 155.717C125.313 154.598 125.873 153.822 126.877 153.822C127.893 153.822 128.464 154.598 128.464 155.717C128.464 156.825 127.893 157.612 126.877 157.612C125.873 157.612 125.313 156.825 125.313 155.717ZM129.435 155.717C129.435 154.164 128.35 153.08 126.877 153.08C125.416 153.08 124.343 154.164 124.343 155.717C124.343 157.27 125.416 158.343 126.877 158.343C128.35 158.343 129.435 157.27 129.435 155.717ZM132.735 158.206L134.79 153.217H133.866L132.347 157.053H132.301L130.749 153.217H129.755L131.81 158.206H132.735ZM135.522 153.217V158.206H136.469V153.217H135.522ZM135.499 152.087H136.481V151.013H135.499V152.087ZM140.868 155.98C140.868 156.984 140.195 157.647 139.316 157.647C138.745 157.647 138.459 157.327 138.459 156.905C138.459 156.299 138.962 156.151 139.749 155.98L140.868 155.74V155.98ZM141.782 154.986C141.782 153.719 141.04 153.08 139.784 153.08C138.608 153.08 137.866 153.765 137.672 154.701L138.516 154.815C138.665 154.233 139.053 153.811 139.772 153.811C140.469 153.811 140.868 154.233 140.868 154.918V155.112L139.521 155.386C138.322 155.626 137.512 156.014 137.512 156.962C137.512 157.818 138.14 158.343 139.11 158.343C139.921 158.343 140.629 157.909 140.903 157.327C140.96 157.921 141.325 158.309 141.839 158.309C142.227 158.309 142.432 158.183 142.604 158.012V157.498C142.467 157.578 142.284 157.612 142.17 157.612C141.93 157.612 141.782 157.487 141.782 157.224V154.986ZM144.296 156.402L144.993 155.786L146.979 158.206H148.098L145.701 155.26L147.995 153.217H146.808L144.296 155.477V151.013H143.349V158.206H144.296V156.402Z" fill="#171414"/>
<path d="M267.696 155.096C267.696 156.683 268.77 157.63 270.288 157.779V158.829H270.927V157.79C272.355 157.733 273.382 156.98 273.382 155.712C273.382 154.559 272.72 154.011 271.418 153.76L270.927 153.669V151.146C271.795 151.317 272.32 151.956 272.355 152.961L273.234 152.915C273.222 151.465 272.377 150.54 270.927 150.369V149.342H270.288V150.335C268.804 150.381 267.902 151.191 267.902 152.413C267.902 153.532 268.633 154.137 269.683 154.331L270.288 154.456V157.014C269.318 156.865 268.621 156.192 268.576 155.039L267.696 155.096ZM271.099 154.605C272.023 154.787 272.446 155.119 272.446 155.781C272.446 156.523 271.841 156.991 270.927 157.048V154.571L271.099 154.605ZM268.827 152.356C268.827 151.568 269.341 151.123 270.288 151.088V153.543L270.14 153.509C269.318 153.349 268.827 153.075 268.827 152.356ZM273.881 152.162H275.228V157.665H276.222V150.426H275.571C275.308 151.18 274.886 151.522 273.881 151.522V152.162ZM277.49 157.665H278.026C278.026 158.167 277.912 158.327 277.49 158.361V158.92C278.403 158.909 278.632 158.441 278.632 157.642V156.523H277.49V157.665ZM281.885 157.014C280.915 157.014 280.435 156.443 280.31 155.598L279.362 155.632C279.488 156.98 280.447 157.802 281.874 157.802C283.895 157.802 284.842 156.18 284.842 153.931C284.842 151.728 283.838 150.335 281.92 150.335C280.31 150.335 279.294 151.351 279.294 152.835C279.294 154.251 280.264 155.267 281.817 155.267C282.981 155.267 283.712 154.628 283.963 153.794C283.975 155.678 283.347 157.014 281.885 157.014ZM283.678 152.801C283.678 153.817 283.05 154.479 281.965 154.479C280.869 154.479 280.241 153.817 280.241 152.801C280.241 151.796 280.869 151.134 281.931 151.134C283.004 151.134 283.678 151.808 283.678 152.801ZM288.231 151.066C289.11 151.066 289.727 151.511 289.727 152.401C289.727 153.223 289.11 153.68 288.231 153.68C287.341 153.68 286.736 153.223 286.736 152.401C286.736 151.511 287.341 151.066 288.231 151.066ZM288.231 154.422C289.316 154.422 289.921 154.867 289.921 155.712C289.921 156.557 289.316 157.059 288.231 157.059C287.135 157.059 286.53 156.557 286.53 155.712C286.53 154.867 287.135 154.422 288.231 154.422ZM288.231 157.802C289.921 157.802 290.937 157.014 290.937 155.758C290.937 154.822 290.241 154.182 289.464 154.034C290.218 153.76 290.686 153.178 290.686 152.333C290.686 151.088 289.636 150.335 288.231 150.335C286.816 150.335 285.765 151.088 285.765 152.333C285.765 153.178 286.233 153.76 286.987 154.034C286.211 154.182 285.503 154.822 285.503 155.758C285.503 157.014 286.53 157.802 288.231 157.802ZM291.352 152.162H292.699V157.665H293.693V150.426H293.042C292.779 151.18 292.357 151.522 291.352 151.522V152.162ZM294.961 157.665H296.102V156.523H294.961V157.665ZM302.547 154.068C302.547 151.682 301.44 150.335 299.556 150.335C297.672 150.335 296.576 151.682 296.576 154.068C296.576 156.454 297.672 157.802 299.556 157.802C301.44 157.802 302.547 156.454 302.547 154.068ZM301.508 154.068C301.508 156.021 300.88 157.002 299.556 157.002C298.232 157.002 297.604 156.021 297.604 154.068C297.604 152.116 298.232 151.134 299.556 151.134C300.88 151.134 301.508 152.116 301.508 154.068ZM309.259 154.068C309.259 151.682 308.152 150.335 306.268 150.335C304.384 150.335 303.288 151.682 303.288 154.068C303.288 156.454 304.384 157.802 306.268 157.802C308.152 157.802 309.259 156.454 309.259 154.068ZM308.22 154.068C308.22 156.021 307.592 157.002 306.268 157.002C304.943 157.002 304.316 156.021 304.316 154.068C304.316 152.116 304.943 151.134 306.268 151.134C307.592 151.134 308.22 152.116 308.22 154.068Z" fill="url(#paint1_linear_79_82795)"/>
<path d="M267.696 155.096C267.696 156.683 268.77 157.63 270.288 157.779V158.829H270.927V157.79C272.355 157.733 273.382 156.98 273.382 155.712C273.382 154.559 272.72 154.011 271.418 153.76L270.927 153.669V151.146C271.795 151.317 272.32 151.956 272.355 152.961L273.234 152.915C273.222 151.465 272.377 150.54 270.927 150.369V149.342H270.288V150.335C268.804 150.381 267.902 151.191 267.902 152.413C267.902 153.532 268.633 154.137 269.683 154.331L270.288 154.456V157.014C269.318 156.865 268.621 156.192 268.576 155.039L267.696 155.096ZM271.099 154.605C272.023 154.787 272.446 155.119 272.446 155.781C272.446 156.523 271.841 156.991 270.927 157.048V154.571L271.099 154.605ZM268.827 152.356C268.827 151.568 269.341 151.123 270.288 151.088V153.543L270.14 153.509C269.318 153.349 268.827 153.075 268.827 152.356ZM273.881 152.162H275.228V157.665H276.222V150.426H275.571C275.308 151.18 274.886 151.522 273.881 151.522V152.162ZM277.49 157.665H278.026C278.026 158.167 277.912 158.327 277.49 158.361V158.92C278.403 158.909 278.632 158.441 278.632 157.642V156.523H277.49V157.665ZM281.885 157.014C280.915 157.014 280.435 156.443 280.31 155.598L279.362 155.632C279.488 156.98 280.447 157.802 281.874 157.802C283.895 157.802 284.842 156.18 284.842 153.931C284.842 151.728 283.838 150.335 281.92 150.335C280.31 150.335 279.294 151.351 279.294 152.835C279.294 154.251 280.264 155.267 281.817 155.267C282.981 155.267 283.712 154.628 283.963 153.794C283.975 155.678 283.347 157.014 281.885 157.014ZM283.678 152.801C283.678 153.817 283.05 154.479 281.965 154.479C280.869 154.479 280.241 153.817 280.241 152.801C280.241 151.796 280.869 151.134 281.931 151.134C283.004 151.134 283.678 151.808 283.678 152.801ZM288.231 151.066C289.11 151.066 289.727 151.511 289.727 152.401C289.727 153.223 289.11 153.68 288.231 153.68C287.341 153.68 286.736 153.223 286.736 152.401C286.736 151.511 287.341 151.066 288.231 151.066ZM288.231 154.422C289.316 154.422 289.921 154.867 289.921 155.712C289.921 156.557 289.316 157.059 288.231 157.059C287.135 157.059 286.53 156.557 286.53 155.712C286.53 154.867 287.135 154.422 288.231 154.422ZM288.231 157.802C289.921 157.802 290.937 157.014 290.937 155.758C290.937 154.822 290.241 154.182 289.464 154.034C290.218 153.76 290.686 153.178 290.686 152.333C290.686 151.088 289.636 150.335 288.231 150.335C286.816 150.335 285.765 151.088 285.765 152.333C285.765 153.178 286.233 153.76 286.987 154.034C286.211 154.182 285.503 154.822 285.503 155.758C285.503 157.014 286.53 157.802 288.231 157.802ZM291.352 152.162H292.699V157.665H293.693V150.426H293.042C292.779 151.18 292.357 151.522 291.352 151.522V152.162ZM294.961 157.665H296.102V156.523H294.961V157.665ZM302.547 154.068C302.547 151.682 301.44 150.335 299.556 150.335C297.672 150.335 296.576 151.682 296.576 154.068C296.576 156.454 297.672 157.802 299.556 157.802C301.44 157.802 302.547 156.454 302.547 154.068ZM301.508 154.068C301.508 156.021 300.88 157.002 299.556 157.002C298.232 157.002 297.604 156.021 297.604 154.068C297.604 152.116 298.232 151.134 299.556 151.134C300.88 151.134 301.508 152.116 301.508 154.068ZM309.259 154.068C309.259 151.682 308.152 150.335 306.268 150.335C304.384 150.335 303.288 151.682 303.288 154.068C303.288 156.454 304.384 157.802 306.268 157.802C308.152 157.802 309.259 156.454 309.259 154.068ZM308.22 154.068C308.22 156.021 307.592 157.002 306.268 157.002C304.943 157.002 304.316 156.021 304.316 154.068C304.316 152.116 304.943 151.134 306.268 151.134C307.592 151.134 308.22 152.116 308.22 154.068Z" fill="#171414"/>
<path d="M74.5891 166.527V172.884H75.467V166.527H74.5891ZM77.4949 170.351C77.4949 169.544 78.0196 169.019 78.6855 169.019C79.3817 169.019 79.7349 169.483 79.7349 170.22V172.884H80.5723V170.149C80.5723 169.12 80.1082 168.353 78.9579 168.353C78.3021 168.353 77.7068 168.727 77.4949 169.261V168.474H76.6574V172.884H77.4949V170.351ZM83.7427 172.884L85.5589 168.474H84.7416L83.3997 171.865H83.3593L81.9871 168.474H81.1092L82.9254 172.884H83.7427ZM86.7018 170.684C86.7018 169.695 87.1962 169.009 88.0841 169.009C88.9821 169.009 89.4866 169.695 89.4866 170.684C89.4866 171.663 88.9821 172.359 88.0841 172.359C87.1962 172.359 86.7018 171.663 86.7018 170.684ZM90.3443 170.684C90.3443 169.312 89.3857 168.353 88.0841 168.353C86.7926 168.353 85.8441 169.312 85.8441 170.684C85.8441 172.056 86.7926 173.005 88.0841 173.005C89.3857 173.005 90.3443 172.056 90.3443 170.684ZM91.2111 168.474V172.884H92.0485V168.474H91.2111ZM91.1909 167.476H92.0586V166.527H91.1909V167.476ZM92.9091 170.684C92.9091 172.087 93.8374 173.005 95.1693 173.005C96.4608 173.005 97.157 172.147 97.2478 171.078L96.5112 171.007C96.4406 171.784 95.9765 172.339 95.1592 172.339C94.3318 172.339 93.7667 171.703 93.7667 170.684C93.7667 169.665 94.3318 169.029 95.1592 169.029C95.9765 169.029 96.4406 169.554 96.5112 170.331L97.2478 170.281C97.157 169.221 96.4608 168.353 95.1693 168.353C93.8374 168.353 92.9091 169.282 92.9091 170.684ZM101.488 171.32C101.306 171.996 100.872 172.349 100.136 172.349C99.3489 172.349 98.7334 171.744 98.693 170.886H102.204V170.553C102.204 169.352 101.488 168.353 100.085 168.353C98.8141 168.353 97.8556 169.352 97.8556 170.745C97.8556 172.117 98.8141 173.005 100.126 173.005C101.226 173.005 101.962 172.399 102.184 171.401L101.488 171.32ZM98.7132 170.341C98.8141 169.615 99.2883 168.989 100.085 168.989C100.923 168.989 101.316 169.635 101.347 170.341H98.7132ZM109.822 170.614H108.631L109.055 168.797H110.135L110.246 168.202H109.196L109.6 166.527H108.883L108.48 168.202H106.986L107.39 166.527H106.684L106.28 168.202H105.049L104.938 168.797H106.139L105.715 170.614H104.625L104.514 171.199H105.574L105.17 172.884H105.877L106.28 171.199H107.773L107.37 172.884H108.086L108.49 171.199H109.711L109.822 170.614ZM106.845 168.797H108.339L107.915 170.614H106.421L106.845 168.797ZM116.061 169.705C116.061 167.597 115.083 166.406 113.418 166.406C111.753 166.406 110.784 167.597 110.784 169.705C110.784 171.814 111.753 173.005 113.418 173.005C115.083 173.005 116.061 171.814 116.061 169.705ZM115.143 169.705C115.143 171.431 114.588 172.299 113.418 172.299C112.247 172.299 111.692 171.431 111.692 169.705C111.692 167.98 112.247 167.112 113.418 167.112C114.588 167.112 115.143 167.98 115.143 169.705ZM120.46 171.138C120.46 171.895 119.884 172.299 119.057 172.299C118.098 172.299 117.483 171.784 117.463 170.775L116.605 170.735C116.605 172.147 117.533 173.005 119.047 173.005C120.449 173.005 121.337 172.258 121.337 171.199C121.337 170.371 120.752 169.786 119.975 169.675C120.601 169.574 121.206 169.019 121.206 168.202C121.206 167.132 120.429 166.406 119.027 166.406C117.594 166.406 116.716 167.365 116.716 168.676L117.564 168.707C117.564 167.698 118.119 167.112 119.017 167.112C119.894 167.112 120.338 167.587 120.338 168.273C120.338 169.09 119.723 169.362 119.057 169.362C118.774 169.362 118.593 169.352 118.452 169.332V170.048C118.603 170.028 118.805 170.018 119.057 170.018C119.854 170.018 120.46 170.412 120.46 171.138ZM125.19 167.314C123.919 168.656 123.142 170.634 123.111 172.884H124.06C124.08 170.725 124.595 168.717 126.179 167.062V166.527H121.699V167.314H125.19ZM130.808 166.527H127.085C127.055 167.576 126.843 169.201 126.681 170.079L127.549 170.139C127.781 169.705 128.235 169.332 128.942 169.332C129.84 169.332 130.384 169.948 130.384 170.785C130.384 171.713 129.84 172.309 128.942 172.309C127.943 172.309 127.428 171.663 127.428 170.704L126.58 170.634C126.51 172.046 127.388 173.005 128.921 173.005C130.304 173.005 131.232 172.097 131.232 170.775C131.232 169.605 130.485 168.636 129.042 168.636C128.336 168.636 127.822 168.929 127.529 169.282C127.6 168.959 127.751 167.657 127.761 167.314H130.808V166.527Z" fill="url(#paint2_linear_79_82795)"/>
<path d="M74.5891 166.527V172.884H75.467V166.527H74.5891ZM77.4949 170.351C77.4949 169.544 78.0196 169.019 78.6855 169.019C79.3817 169.019 79.7349 169.483 79.7349 170.22V172.884H80.5723V170.149C80.5723 169.12 80.1082 168.353 78.9579 168.353C78.3021 168.353 77.7068 168.727 77.4949 169.261V168.474H76.6574V172.884H77.4949V170.351ZM83.7427 172.884L85.5589 168.474H84.7416L83.3997 171.865H83.3593L81.9871 168.474H81.1092L82.9254 172.884H83.7427ZM86.7018 170.684C86.7018 169.695 87.1962 169.009 88.0841 169.009C88.9821 169.009 89.4866 169.695 89.4866 170.684C89.4866 171.663 88.9821 172.359 88.0841 172.359C87.1962 172.359 86.7018 171.663 86.7018 170.684ZM90.3443 170.684C90.3443 169.312 89.3857 168.353 88.0841 168.353C86.7926 168.353 85.8441 169.312 85.8441 170.684C85.8441 172.056 86.7926 173.005 88.0841 173.005C89.3857 173.005 90.3443 172.056 90.3443 170.684ZM91.2111 168.474V172.884H92.0485V168.474H91.2111ZM91.1909 167.476H92.0586V166.527H91.1909V167.476ZM92.9091 170.684C92.9091 172.087 93.8374 173.005 95.1693 173.005C96.4608 173.005 97.157 172.147 97.2478 171.078L96.5112 171.007C96.4406 171.784 95.9765 172.339 95.1592 172.339C94.3318 172.339 93.7667 171.703 93.7667 170.684C93.7667 169.665 94.3318 169.029 95.1592 169.029C95.9765 169.029 96.4406 169.554 96.5112 170.331L97.2478 170.281C97.157 169.221 96.4608 168.353 95.1693 168.353C93.8374 168.353 92.9091 169.282 92.9091 170.684ZM101.488 171.32C101.306 171.996 100.872 172.349 100.136 172.349C99.3489 172.349 98.7334 171.744 98.693 170.886H102.204V170.553C102.204 169.352 101.488 168.353 100.085 168.353C98.8141 168.353 97.8556 169.352 97.8556 170.745C97.8556 172.117 98.8141 173.005 100.126 173.005C101.226 173.005 101.962 172.399 102.184 171.401L101.488 171.32ZM98.7132 170.341C98.8141 169.615 99.2883 168.989 100.085 168.989C100.923 168.989 101.316 169.635 101.347 170.341H98.7132ZM109.822 170.614H108.631L109.055 168.797H110.135L110.246 168.202H109.196L109.6 166.527H108.883L108.48 168.202H106.986L107.39 166.527H106.684L106.28 168.202H105.049L104.938 168.797H106.139L105.715 170.614H104.625L104.514 171.199H105.574L105.17 172.884H105.877L106.28 171.199H107.773L107.37 172.884H108.086L108.49 171.199H109.711L109.822 170.614ZM106.845 168.797H108.339L107.915 170.614H106.421L106.845 168.797ZM116.061 169.705C116.061 167.597 115.083 166.406 113.418 166.406C111.753 166.406 110.784 167.597 110.784 169.705C110.784 171.814 111.753 173.005 113.418 173.005C115.083 173.005 116.061 171.814 116.061 169.705ZM115.143 169.705C115.143 171.431 114.588 172.299 113.418 172.299C112.247 172.299 111.692 171.431 111.692 169.705C111.692 167.98 112.247 167.112 113.418 167.112C114.588 167.112 115.143 167.98 115.143 169.705ZM120.46 171.138C120.46 171.895 119.884 172.299 119.057 172.299C118.098 172.299 117.483 171.784 117.463 170.775L116.605 170.735C116.605 172.147 117.533 173.005 119.047 173.005C120.449 173.005 121.337 172.258 121.337 171.199C121.337 170.371 120.752 169.786 119.975 169.675C120.601 169.574 121.206 169.019 121.206 168.202C121.206 167.132 120.429 166.406 119.027 166.406C117.594 166.406 116.716 167.365 116.716 168.676L117.564 168.707C117.564 167.698 118.119 167.112 119.017 167.112C119.894 167.112 120.338 167.587 120.338 168.273C120.338 169.09 119.723 169.362 119.057 169.362C118.774 169.362 118.593 169.352 118.452 169.332V170.048C118.603 170.028 118.805 170.018 119.057 170.018C119.854 170.018 120.46 170.412 120.46 171.138ZM125.19 167.314C123.919 168.656 123.142 170.634 123.111 172.884H124.06C124.08 170.725 124.595 168.717 126.179 167.062V166.527H121.699V167.314H125.19ZM130.808 166.527H127.085C127.055 167.576 126.843 169.201 126.681 170.079L127.549 170.139C127.781 169.705 128.235 169.332 128.942 169.332C129.84 169.332 130.384 169.948 130.384 170.785C130.384 171.713 129.84 172.309 128.942 172.309C127.943 172.309 127.428 171.663 127.428 170.704L126.58 170.634C126.51 172.046 127.388 173.005 128.921 173.005C130.304 173.005 131.232 172.097 131.232 170.775C131.232 169.605 130.485 168.636 129.042 168.636C128.336 168.636 127.822 168.929 127.529 169.282C127.6 168.959 127.751 167.657 127.761 167.314H130.808V166.527Z" fill="#9EA0A9"/>
<path d="M250.493 172.496V167.572H251.866C253.419 167.572 254.267 168.49 254.267 170.034C254.267 171.577 253.419 172.496 251.866 172.496H250.493ZM249.615 173.212H251.916C253.914 173.212 255.175 172.021 255.175 170.034C255.175 168.046 253.914 166.855 251.916 166.855H249.615V173.212ZM259.025 171.335C259.025 172.152 258.521 172.677 257.865 172.677C257.169 172.677 256.846 172.203 256.846 171.466V168.803H256.008V171.547C256.008 172.576 256.432 173.333 257.582 173.333C258.248 173.333 258.813 172.96 259.025 172.435V173.212H259.863V168.803H259.025V171.335ZM264.365 171.648C264.183 172.324 263.749 172.677 263.013 172.677C262.226 172.677 261.61 172.072 261.57 171.214H265.081V170.881C265.081 169.68 264.365 168.682 262.962 168.682C261.691 168.682 260.733 169.68 260.733 171.073C260.733 172.445 261.691 173.333 263.003 173.333C264.103 173.333 264.839 172.728 265.061 171.729L264.365 171.648ZM261.59 170.669C261.691 169.943 262.165 169.317 262.962 169.317C263.8 169.317 264.193 169.963 264.224 170.669H261.59ZM271.791 166.855H268.067C268.037 167.905 267.825 169.529 267.664 170.407L268.532 170.467C268.764 170.034 269.218 169.66 269.924 169.66C270.822 169.66 271.367 170.276 271.367 171.113C271.367 172.041 270.822 172.637 269.924 172.637C268.925 172.637 268.41 171.991 268.41 171.032L267.563 170.962C267.492 172.374 268.37 173.333 269.904 173.333C271.286 173.333 272.214 172.425 272.214 171.103C272.214 169.933 271.468 168.964 270.025 168.964C269.319 168.964 268.804 169.257 268.511 169.61C268.582 169.287 268.733 167.985 268.743 167.642H271.791V166.855ZM278.209 171.133C278.209 172.102 277.603 172.667 276.806 172.667C275.938 172.667 275.454 172.021 275.454 171.012C275.454 170.003 275.938 169.358 276.806 169.358C277.603 169.358 278.209 169.923 278.209 170.881V171.133ZM278.199 173.212H279.036V166.855H278.199V169.731C277.997 169.186 277.442 168.682 276.614 168.682C275.303 168.682 274.596 169.711 274.596 171.012C274.596 172.314 275.303 173.333 276.614 173.333C277.442 173.333 277.997 172.839 278.199 172.294V173.212ZM282.925 171.244C282.925 172.132 282.329 172.718 281.552 172.718C281.048 172.718 280.796 172.435 280.796 172.062C280.796 171.527 281.24 171.396 281.936 171.244L282.925 171.032V171.244ZM283.732 170.367C283.732 169.247 283.076 168.682 281.966 168.682C280.927 168.682 280.271 169.287 280.099 170.114L280.846 170.215C280.977 169.701 281.32 169.327 281.956 169.327C282.571 169.327 282.925 169.701 282.925 170.306V170.478L281.734 170.72C280.675 170.932 279.958 171.275 279.958 172.112C279.958 172.869 280.513 173.333 281.371 173.333C282.087 173.333 282.713 172.95 282.955 172.435C283.005 172.96 283.328 173.303 283.782 173.303C284.125 173.303 284.307 173.192 284.458 173.04V172.586C284.337 172.657 284.176 172.687 284.075 172.687C283.863 172.687 283.732 172.576 283.732 172.344V170.367ZM286.402 174.907L288.945 168.803H288.118L286.765 172.193H286.725L285.323 168.803H284.445L286.301 173.202L285.585 174.907H286.402ZM289.228 171.729C289.309 172.818 290.146 173.333 291.246 173.333C292.275 173.333 293.052 172.859 293.052 171.981C293.052 171.184 292.527 170.851 291.639 170.7L290.812 170.568C290.358 170.488 290.136 170.306 290.136 169.953C290.136 169.549 290.499 169.297 291.054 169.297C291.801 169.297 292.215 169.61 292.316 170.286L292.992 170.245C292.911 169.226 292.225 168.682 291.054 168.682C290.035 168.682 289.359 169.226 289.359 170.034C289.359 170.79 289.854 171.143 290.681 171.275L291.428 171.406C291.972 171.507 292.265 171.648 292.265 172.062C292.265 172.506 291.831 172.718 291.246 172.718C290.489 172.718 290.015 172.354 289.934 171.678L289.228 171.729ZM298.473 171.244C298.473 172.132 297.878 172.718 297.101 172.718C296.597 172.718 296.344 172.435 296.344 172.062C296.344 171.527 296.788 171.396 297.485 171.244L298.473 171.032V171.244ZM299.281 170.367C299.281 169.247 298.625 168.682 297.515 168.682C296.476 168.682 295.82 169.287 295.648 170.114L296.395 170.215C296.526 169.701 296.869 169.327 297.505 169.327C298.12 169.327 298.473 169.701 298.473 170.306V170.478L297.283 170.72C296.223 170.932 295.507 171.275 295.507 172.112C295.507 172.869 296.062 173.333 296.92 173.333C297.636 173.333 298.262 172.95 298.504 172.435C298.554 172.96 298.877 173.303 299.331 173.303C299.674 173.303 299.856 173.192 300.007 173.04V172.586C299.886 172.657 299.725 172.687 299.624 172.687C299.412 172.687 299.281 172.576 299.281 172.344V170.367ZM304.308 170.185C304.308 169.902 304.227 169.65 304.096 169.438C304.318 169.327 304.651 169.257 304.944 169.257V168.53C304.469 168.53 304.056 168.782 303.824 169.136C303.491 168.853 302.996 168.682 302.441 168.682C301.362 168.682 300.595 169.257 300.595 170.185C300.595 170.669 300.807 171.063 301.17 171.325C300.776 171.497 300.504 171.769 300.504 172.152C300.504 172.485 300.686 172.778 301.089 172.909C300.544 173.01 300.181 173.333 300.181 173.837C300.181 174.655 301.17 175.028 302.36 175.028C303.672 175.028 304.903 174.604 304.903 173.505C304.903 172.818 304.399 172.314 303.44 172.314H301.715C301.331 172.314 301.18 172.173 301.18 171.93C301.18 171.729 301.321 171.587 301.473 171.497C301.745 171.618 302.078 171.678 302.441 171.678C303.531 171.678 304.308 171.103 304.308 170.185ZM300.978 173.676C300.978 173.202 301.372 173.05 301.826 173.05H303.248C303.763 173.05 304.096 173.192 304.096 173.595C304.096 174.231 303.369 174.473 302.36 174.473C301.543 174.473 300.978 174.231 300.978 173.676ZM303.46 170.195C303.46 170.8 303.077 171.143 302.451 171.143C301.836 171.143 301.452 170.8 301.452 170.195C301.452 169.569 301.836 169.226 302.451 169.226C303.077 169.226 303.46 169.569 303.46 170.195ZM306.039 171.012C306.039 170.023 306.534 169.337 307.422 169.337C308.32 169.337 308.824 170.023 308.824 171.012C308.824 171.991 308.32 172.687 307.422 172.687C306.534 172.687 306.039 171.991 306.039 171.012ZM309.682 171.012C309.682 169.64 308.723 168.682 307.422 168.682C306.13 168.682 305.182 169.64 305.182 171.012C305.182 172.385 306.13 173.333 307.422 173.333C308.723 173.333 309.682 172.385 309.682 171.012Z" fill="url(#paint3_linear_79_82795)"/>
<path d="M250.493 172.496V167.572H251.866C253.419 167.572 254.267 168.49 254.267 170.034C254.267 171.577 253.419 172.496 251.866 172.496H250.493ZM249.615 173.212H251.916C253.914 173.212 255.175 172.021 255.175 170.034C255.175 168.046 253.914 166.855 251.916 166.855H249.615V173.212ZM259.025 171.335C259.025 172.152 258.521 172.677 257.865 172.677C257.169 172.677 256.846 172.203 256.846 171.466V168.803H256.008V171.547C256.008 172.576 256.432 173.333 257.582 173.333C258.248 173.333 258.813 172.96 259.025 172.435V173.212H259.863V168.803H259.025V171.335ZM264.365 171.648C264.183 172.324 263.749 172.677 263.013 172.677C262.226 172.677 261.61 172.072 261.57 171.214H265.081V170.881C265.081 169.68 264.365 168.682 262.962 168.682C261.691 168.682 260.733 169.68 260.733 171.073C260.733 172.445 261.691 173.333 263.003 173.333C264.103 173.333 264.839 172.728 265.061 171.729L264.365 171.648ZM261.59 170.669C261.691 169.943 262.165 169.317 262.962 169.317C263.8 169.317 264.193 169.963 264.224 170.669H261.59ZM271.791 166.855H268.067C268.037 167.905 267.825 169.529 267.664 170.407L268.532 170.467C268.764 170.034 269.218 169.66 269.924 169.66C270.822 169.66 271.367 170.276 271.367 171.113C271.367 172.041 270.822 172.637 269.924 172.637C268.925 172.637 268.41 171.991 268.41 171.032L267.563 170.962C267.492 172.374 268.37 173.333 269.904 173.333C271.286 173.333 272.214 172.425 272.214 171.103C272.214 169.933 271.468 168.964 270.025 168.964C269.319 168.964 268.804 169.257 268.511 169.61C268.582 169.287 268.733 167.985 268.743 167.642H271.791V166.855ZM278.209 171.133C278.209 172.102 277.603 172.667 276.806 172.667C275.938 172.667 275.454 172.021 275.454 171.012C275.454 170.003 275.938 169.358 276.806 169.358C277.603 169.358 278.209 169.923 278.209 170.881V171.133ZM278.199 173.212H279.036V166.855H278.199V169.731C277.997 169.186 277.442 168.682 276.614 168.682C275.303 168.682 274.596 169.711 274.596 171.012C274.596 172.314 275.303 173.333 276.614 173.333C277.442 173.333 277.997 172.839 278.199 172.294V173.212ZM282.925 171.244C282.925 172.132 282.329 172.718 281.552 172.718C281.048 172.718 280.796 172.435 280.796 172.062C280.796 171.527 281.24 171.396 281.936 171.244L282.925 171.032V171.244ZM283.732 170.367C283.732 169.247 283.076 168.682 281.966 168.682C280.927 168.682 280.271 169.287 280.099 170.114L280.846 170.215C280.977 169.701 281.32 169.327 281.956 169.327C282.571 169.327 282.925 169.701 282.925 170.306V170.478L281.734 170.72C280.675 170.932 279.958 171.275 279.958 172.112C279.958 172.869 280.513 173.333 281.371 173.333C282.087 173.333 282.713 172.95 282.955 172.435C283.005 172.96 283.328 173.303 283.782 173.303C284.125 173.303 284.307 173.192 284.458 173.04V172.586C284.337 172.657 284.176 172.687 284.075 172.687C283.863 172.687 283.732 172.576 283.732 172.344V170.367ZM286.402 174.907L288.945 168.803H288.118L286.765 172.193H286.725L285.323 168.803H284.445L286.301 173.202L285.585 174.907H286.402ZM289.228 171.729C289.309 172.818 290.146 173.333 291.246 173.333C292.275 173.333 293.052 172.859 293.052 171.981C293.052 171.184 292.527 170.851 291.639 170.7L290.812 170.568C290.358 170.488 290.136 170.306 290.136 169.953C290.136 169.549 290.499 169.297 291.054 169.297C291.801 169.297 292.215 169.61 292.316 170.286L292.992 170.245C292.911 169.226 292.225 168.682 291.054 168.682C290.035 168.682 289.359 169.226 289.359 170.034C289.359 170.79 289.854 171.143 290.681 171.275L291.428 171.406C291.972 171.507 292.265 171.648 292.265 172.062C292.265 172.506 291.831 172.718 291.246 172.718C290.489 172.718 290.015 172.354 289.934 171.678L289.228 171.729ZM298.473 171.244C298.473 172.132 297.878 172.718 297.101 172.718C296.597 172.718 296.344 172.435 296.344 172.062C296.344 171.527 296.788 171.396 297.485 171.244L298.473 171.032V171.244ZM299.281 170.367C299.281 169.247 298.625 168.682 297.515 168.682C296.476 168.682 295.82 169.287 295.648 170.114L296.395 170.215C296.526 169.701 296.869 169.327 297.505 169.327C298.12 169.327 298.473 169.701 298.473 170.306V170.478L297.283 170.72C296.223 170.932 295.507 171.275 295.507 172.112C295.507 172.869 296.062 173.333 296.92 173.333C297.636 173.333 298.262 172.95 298.504 172.435C298.554 172.96 298.877 173.303 299.331 173.303C299.674 173.303 299.856 173.192 300.007 173.04V172.586C299.886 172.657 299.725 172.687 299.624 172.687C299.412 172.687 299.281 172.576 299.281 172.344V170.367ZM304.308 170.185C304.308 169.902 304.227 169.65 304.096 169.438C304.318 169.327 304.651 169.257 304.944 169.257V168.53C304.469 168.53 304.056 168.782 303.824 169.136C303.491 168.853 302.996 168.682 302.441 168.682C301.362 168.682 300.595 169.257 300.595 170.185C300.595 170.669 300.807 171.063 301.17 171.325C300.776 171.497 300.504 171.769 300.504 172.152C300.504 172.485 300.686 172.778 301.089 172.909C300.544 173.01 300.181 173.333 300.181 173.837C300.181 174.655 301.17 175.028 302.36 175.028C303.672 175.028 304.903 174.604 304.903 173.505C304.903 172.818 304.399 172.314 303.44 172.314H301.715C301.331 172.314 301.18 172.173 301.18 171.93C301.18 171.729 301.321 171.587 301.473 171.497C301.745 171.618 302.078 171.678 302.441 171.678C303.531 171.678 304.308 171.103 304.308 170.185ZM300.978 173.676C300.978 173.202 301.372 173.05 301.826 173.05H303.248C303.763 173.05 304.096 173.192 304.096 173.595C304.096 174.231 303.369 174.473 302.36 174.473C301.543 174.473 300.978 174.231 300.978 173.676ZM303.46 170.195C303.46 170.8 303.077 171.143 302.451 171.143C301.836 171.143 301.452 170.8 301.452 170.195C301.452 169.569 301.836 169.226 302.451 169.226C303.077 169.226 303.46 169.569 303.46 170.195ZM306.039 171.012C306.039 170.023 306.534 169.337 307.422 169.337C308.32 169.337 308.824 170.023 308.824 171.012C308.824 171.991 308.32 172.687 307.422 172.687C306.534 172.687 306.039 171.991 306.039 171.012ZM309.682 171.012C309.682 169.64 308.723 168.682 307.422 168.682C306.13 168.682 305.182 169.64 305.182 171.012C305.182 172.385 306.13 173.333 307.422 173.333C308.723 173.333 309.682 172.385 309.682 171.012Z" fill="#FF4242"/>
<path d="M46.6651 160.247V164.63C46.6651 165.755 46.2088 166.307 45.2643 166.307C44.2986 166.307 43.7892 165.659 43.715 164.577L42.8448 164.63C42.9085 166.222 43.8317 167.06 45.2431 167.06C46.6651 167.06 47.5777 166.253 47.5777 164.651V160.247H46.6651ZM53.0085 166.933L54.9611 161.181H55.0035V166.933H55.9268V160.247H54.473L52.6902 165.691H52.6583L50.78 160.247H49.305V166.933H50.1645V161.181H50.207L52.2338 166.933H53.0085Z" fill="#1C35F0"/>
<path d="M46.6651 160.247V164.63C46.6651 165.755 46.2088 166.307 45.2643 166.307C44.2986 166.307 43.7892 165.659 43.715 164.577L42.8448 164.63C42.9085 166.222 43.8317 167.06 45.2431 167.06C46.6651 167.06 47.5777 166.253 47.5777 164.651V160.247H46.6651ZM53.0085 166.933L54.9611 161.181H55.0035V166.933H55.9268V160.247H54.473L52.6902 165.691H52.6583L50.78 160.247H49.305V166.933H50.1645V161.181H50.207L52.2338 166.933H53.0085Z" fill="#171414"/>
</g>
<defs>
<filter id="filter0_d_79_82795" x="30" y="0.25293" width="311.893" height="102.162" filterUnits="userSpaceOnUse" color-interpolation-filters="sRGB">
<feFlood flood-opacity="0" result="BackgroundImageFix"/>
<feColorMatrix in="SourceAlpha" type="matrix" values="0 0 0 0 0 0 0 0 0 0 0 0 0 0 0 0 0 0 127 0" result="hardAlpha"/>
<feOffset dx="2" dy="10"/>
<feGaussianBlur stdDeviation="12.5"/>
<feComposite in2="hardAlpha" operator="out"/>
<feColorMatrix type="matrix" values="0 0 0 0 0.00784314 0 0 0 0 0.0196078 0 0 0 0 0.258824 0 0 0 0.12 0"/>
<feBlend mode="normal" in2="BackgroundImageFix" result="effect1_dropShadow_79_82795"/>
<feBlend mode="normal" in="SourceGraphic" in2="effect1_dropShadow_79_82795" result="shape"/>
</filter>
<filter id="filter1_d_79_82795" x="0" y="88.2119" width="348.895" height="137" filterUnits="userSpaceOnUse" color-interpolation-filters="sRGB">
<feFlood flood-opacity="0" result="BackgroundImageFix"/>
<feColorMatrix in="SourceAlpha" type="matrix" values="0 0 0 0 0 0 0 0 0 0 0 0 0 0 0 0 0 0 127 0" result="hardAlpha"/>
<feOffset dx="2" dy="10"/>
<feGaussianBlur stdDeviation="12.5"/>
<feComposite in2="hardAlpha" operator="out"/>
<feColorMatrix type="matrix" values="0 0 0 0 0.00784314 0 0 0 0 0.0196078 0 0 0 0 0.258824 0 0 0 0.12 0"/>
<feBlend mode="normal" in2="BackgroundImageFix" result="effect1_dropShadow_79_82795"/>
<feBlend mode="normal" in="SourceGraphic" in2="effect1_dropShadow_79_82795" result="shape"/>
</filter>
<linearGradient id="paint0_linear_79_82795" x1="73.9736" y1="154.597" x2="184.63" y2="154.597" gradientUnits="userSpaceOnUse">
<stop stop-color="#F1A4DE"/>
<stop offset="0.505236" stop-color="#B166EB"/>
<stop offset="1" stop-color="#7D39F5"/>
</linearGradient>
<linearGradient id="paint1_linear_79_82795" x1="267.445" y1="154.299" x2="310.31" y2="154.299" gradientUnits="userSpaceOnUse">
<stop stop-color="#F1A4DE"/>
<stop offset="0.505236" stop-color="#B166EB"/>
<stop offset="1" stop-color="#7D39F5"/>
</linearGradient>
<linearGradient id="paint2_linear_79_82795" x1="73.9736" y1="169.939" x2="143.484" y2="169.939" gradientUnits="userSpaceOnUse">
<stop stop-color="#F1A4DE"/>
<stop offset="0.505236" stop-color="#B166EB"/>
<stop offset="1" stop-color="#7D39F5"/>
</linearGradient>
<linearGradient id="paint3_linear_79_82795" x1="249" y1="170.212" x2="310" y2="170.212" gradientUnits="userSpaceOnUse">
<stop stop-color="#F1A4DE"/>
<stop offset="0.505236" stop-color="#B166EB"/>
<stop offset="1" stop-color="#7D39F5"/>
</linearGradient>
</defs>
</svg>
