<svg width="16" height="12" viewBox="0 0 16 12" fill="none" xmlns="http://www.w3.org/2000/svg">
<path fill-rule="evenodd" clip-rule="evenodd" d="M9.41382 1.0134C9.73245 0.66864 10.2702 0.647454 10.615 0.966075L15.1521 5.15927C15.3212 5.31556 15.4197 5.53377 15.425 5.76397C15.4303 5.99417 15.3419 6.21668 15.1802 6.38057L10.6159 11.0055C10.2861 11.3396 9.74795 11.3431 9.41382 11.0134C9.0797 10.6836 9.07615 10.1455 9.4059 9.81134L12.5421 6.63351L1.4252 6.63351C0.955753 6.63351 0.575195 6.25295 0.575195 5.78351C0.575195 5.31406 0.955753 4.93351 1.42519 4.93351L12.4031 4.93351L9.46114 2.21455C9.11639 1.89592 9.0952 1.35815 9.41382 1.0134Z" fill="white"/>
<path fill-rule="evenodd" clip-rule="evenodd" d="M9.41382 1.0134C9.73245 0.66864 10.2702 0.647454 10.615 0.966075L15.1521 5.15927C15.3212 5.31556 15.4197 5.53377 15.425 5.76397C15.4303 5.99417 15.3419 6.21668 15.1802 6.38057L10.6159 11.0055C10.2861 11.3396 9.74795 11.3431 9.41382 11.0134C9.0797 10.6836 9.07615 10.1455 9.4059 9.81134L12.5421 6.63351L1.4252 6.63351C0.955753 6.63351 0.575195 6.25295 0.575195 5.78351C0.575195 5.31406 0.955753 4.93351 1.42519 4.93351L12.4031 4.93351L9.46114 2.21455C9.11639 1.89592 9.0952 1.35815 9.41382 1.0134Z" fill="url(#paint0_linear_169_77017)"/>
<defs>
<linearGradient id="paint0_linear_169_77017" x1="0.575195" y1="5.99981" x2="15.4252" y2="5.99981" gradientUnits="userSpaceOnUse">
<stop stop-color="#F1A4DE"/>
<stop offset="0.505236" stop-color="#B166EB"/>
<stop offset="1" stop-color="#7D39F5"/>
</linearGradient>
</defs>
</svg>
