<svg width="16" height="16" viewBox="0 0 16 16" fill="none" xmlns="http://www.w3.org/2000/svg">
<path fill-rule="evenodd" clip-rule="evenodd" d="M9.41285 3.01358C9.73147 2.66882 10.2692 2.64764 10.614 2.96626L15.1511 7.15945C15.3202 7.31574 15.4187 7.53395 15.424 7.76415C15.4293 7.99436 15.341 8.21686 15.1792 8.38075L10.6149 13.0057C10.2852 13.3398 9.74697 13.3433 9.41285 13.0136C9.07872 12.6838 9.07517 12.1456 9.40492 11.8115L12.5411 8.63369H1.42422C0.954777 8.63369 0.574219 8.25313 0.574219 7.78369C0.574219 7.31425 0.954776 6.93369 1.42422 6.93369L12.4021 6.93369L9.46017 4.21473C9.11541 3.89611 9.09423 3.35833 9.41285 3.01358Z" fill="white"/>
</svg>
