<svg width="37" height="36" viewBox="0 0 37 36" fill="none" xmlns="http://www.w3.org/2000/svg">
<path d="M1.00195 11.2754C1.00195 9.93005 1.89756 8.74923 3.19306 8.38649L22.1931 3.06649C24.106 2.53086 26.002 3.96884 26.002 5.95538V33C26.002 34.6569 24.6588 36 23.002 36H4.00195C2.3451 36 1.00195 34.6569 1.00195 33V11.2754Z" fill="url(#paint0_linear_79_82340)"/>
<circle cx="26.002" cy="22" r="10" fill="url(#paint1_linear_79_82340)" fill-opacity="0.85"/>
<path fill-rule="evenodd" clip-rule="evenodd" d="M26.002 12V32C20.4791 32 16.002 27.5228 16.002 22C16.002 16.4772 20.4791 12 26.002 12Z" fill="url(#paint2_linear_79_82340)" fill-opacity="0.65"/>
<defs>
<linearGradient id="paint0_linear_79_82340" x1="13.502" y1="9" x2="13.502" y2="36" gradientUnits="userSpaceOnUse">
<stop stop-color="#9E9CED"/>
<stop offset="1" stop-color="#706DEE"/>
</linearGradient>
<linearGradient id="paint1_linear_79_82340" x1="33.0589" y1="10.2254" x2="17.5184" y2="19.0675" gradientUnits="userSpaceOnUse">
<stop stop-color="#A4FCFF"/>
<stop offset="0.597227" stop-color="#61D8FF"/>
</linearGradient>
<linearGradient id="paint2_linear_79_82340" x1="21.5809" y1="-11.1252" x2="19.4898" y2="31.909" gradientUnits="userSpaceOnUse">
<stop offset="0.844085" stop-color="#0A14FF"/>
</linearGradient>
</defs>
</svg>
