<?xml version="1.0"?>
<svg width="27" height="27" xmlns="http://www.w3.org/2000/svg" xmlns:svg="http://www.w3.org/2000/svg">
 <defs>
  <clipPath id="clip0_79_82432">
   <rect fill="white" height="26.4" id="svg_1" width="26.4"/>
  </clipPath>
  <linearGradient id="svg_13" x1="0" x2="0" y1="0" y2="1">
   <stop id="jq_stop_6607" offset="0" stop-color="#d19cbe"/>
   <stop id="jq_stop_8107" offset="1" stop-color="#8f8de2"/>
  </linearGradient>
 </defs>
 <g class="layer">
  <title>Layer 1</title>
  <g clip-path="url(#clip0_79_82432)" id="svg_2">
   <circle cx="12.52" cy="12.52" fill="#000000" fill-opacity="0" id="svg_3" r="10.02" stroke="url(#svg_13)" stroke-linecap="round" stroke-linejoin="round" stroke-width="1.3"/>
   <path d="m10.52,7.2c-0.38,0 -0.63,0.25 -0.63,0.63l0,6.57c0,0.57 -0.57,1.01 -1.26,1.01c-0.7,0 -1.27,-0.44 -1.27,-1.01c0,-0.32 -0.25,-0.63 -0.63,-0.63c-0.38,0 -0.63,0.31 -0.63,0.63c0,1.26 1.14,2.27 2.53,2.27c1.39,0 2.52,-1.01 2.52,-2.27l0,-6.57c0,-0.38 -0.25,-0.63 -0.63,-0.63l0,0z" fill="url(#svg_13)" id="svg_4" stroke="url(#svg_13)" stroke-width="0.14" transform="matrix(1 0 0 1 0 0)"/>
   <path d="m18,13.52c0,3.97 -1.83,4.42 -3.16,4.42c-0.31,0 -0.63,0.31 -0.63,0.63c0,0.31 0.32,0.63 0.63,0.63c2.02,0 4.42,-1.01 4.42,-5.68c0,-0.38 -0.31,-0.64 -0.63,-0.64c-0.31,0 -0.63,0.26 -0.63,0.64z" fill="url(#svg_13)" id="svg_5" stroke="url(#svg_13)" stroke-width="0.14"/>
   <path d="m16.93,13.39c0,-0.38 -0.31,-0.63 -0.63,-0.63c-0.31,0 -0.63,0.25 -0.63,0.63c0,0.38 -0.5,0.76 -1.26,0.76c-0.76,0 -1.27,-0.38 -1.27,-0.76l0,-5.56c0,-0.38 -0.25,-0.63 -0.63,-0.63c-0.38,0 -0.63,0.25 -0.63,0.63l0,5.56c0,1.14 1.14,2.02 2.53,2.02c1.39,0 2.52,-0.88 2.52,-2.02z" fill="url(#svg_13)" id="svg_6" stroke="url(#svg_13)" stroke-width="0.14" transform="matrix(1 0 0 1 0 0)"/>
   <path d="m12.95,17.31c0.35,0 0.63,-0.29 0.63,-0.64c0,-0.35 -0.28,-0.63 -0.63,-0.63c-0.35,0 -0.63,0.28 -0.63,0.63c0,0.35 0.28,0.64 0.63,0.64z" fill="url(#svg_13)" id="svg_7" stroke="url(#svg_13)" stroke-width="0.14"/>
   <path d="m14.84,17.31c0.35,0 0.63,-0.29 0.63,-0.64c0,-0.35 -0.28,-0.63 -0.63,-0.63c-0.35,0 -0.63,0.28 -0.63,0.63c0,0.35 0.28,0.64 0.63,0.64z" fill="url(#svg_13)" id="svg_8" stroke="url(#svg_13)" stroke-width="0.14"/>
  </g>
 </g>
</svg>