<svg width="27" height="27" viewBox="0 0 27 27" fill="none" xmlns="http://www.w3.org/2000/svg">
<g clip-path="url(#clip0_79_82432)">
<circle cx="12.52" cy="12.52" r="10.02" stroke="#171717" stroke-width="1.3" stroke-linecap="round" stroke-linejoin="round"/>
<path d="M10.4211 7.19995C10.0421 7.19995 9.78947 7.45258 9.78947 7.83153V14.4C9.78947 14.9684 9.22105 15.4105 8.52632 15.4105C7.83158 15.4105 7.26316 14.9684 7.26316 14.4C7.26316 14.0842 7.01053 13.7684 6.63158 13.7684C6.25263 13.7684 6 14.0842 6 14.4C6 15.6631 7.13684 16.6736 8.52632 16.6736C9.91579 16.6736 11.0526 15.6631 11.0526 14.4V7.83153C11.0526 7.45258 10.8 7.19995 10.4211 7.19995V7.19995Z" fill="#171717" stroke="#171717" stroke-width="0.14"/>
<path d="M18.0004 13.5159C18.0004 17.4948 16.1688 17.9369 14.8425 17.9369C14.5267 17.9369 14.2109 18.2527 14.2109 18.5685C14.2109 18.8843 14.5267 19.2001 14.8425 19.2001C16.8636 19.2001 19.2636 18.1895 19.2636 13.5159C19.2636 13.1369 18.9478 12.8843 18.632 12.8843C18.3162 12.8843 18.0004 13.1369 18.0004 13.5159Z" fill="#171717" stroke="#171717" stroke-width="0.14"/>
<path d="M16.9335 13.3894C16.9335 13.0105 16.6177 12.7578 16.3019 12.7578C15.9861 12.7578 15.6703 13.0105 15.6703 13.3894C15.6703 13.7684 15.1651 14.1473 14.4072 14.1473C13.6493 14.1473 13.144 13.7684 13.144 13.3894V7.83153C13.144 7.45258 12.8914 7.19995 12.5124 7.19995C12.1335 7.19995 11.8809 7.45258 11.8809 7.83153V13.3894C11.8809 14.5263 13.0177 15.4105 14.4072 15.4105C15.7966 15.4105 16.9335 14.5263 16.9335 13.3894Z" fill="#171717" stroke="#171717" stroke-width="0.14"/>
<path d="M12.948 17.3051C13.2968 17.3051 13.5796 17.0224 13.5796 16.6736C13.5796 16.3248 13.2968 16.042 12.948 16.042C12.5992 16.042 12.3164 16.3248 12.3164 16.6736C12.3164 17.0224 12.5992 17.3051 12.948 17.3051Z" fill="#171717" stroke="#171717" stroke-width="0.14"/>
<path d="M14.8425 17.3051C15.1913 17.3051 15.4741 17.0224 15.4741 16.6736C15.4741 16.3248 15.1913 16.042 14.8425 16.042C14.4937 16.042 14.2109 16.3248 14.2109 16.6736C14.2109 17.0224 14.4937 17.3051 14.8425 17.3051Z" fill="#171717" stroke="#171717" stroke-width="0.14"/>
</g>
<defs>
<clipPath id="clip0_79_82432">
<rect width="26.4" height="26.4" fill="white"/>
</clipPath>
</defs>
</svg>
