<svg width="18" height="18" viewBox="0 0 18 18" fill="none" xmlns="http://www.w3.org/2000/svg">
<mask id="path-1-outside-1_79_67283" maskUnits="userSpaceOnUse" x="0" y="0" width="18" height="18" fill="black">
<rect fill="white" width="18" height="18"/>
<path fill-rule="evenodd" clip-rule="evenodd" d="M8.43556 1.00785C8.37526 1.01493 8.19203 1.03522 8.02838 1.05297C6.99499 1.16505 5.85062 1.55264 4.9272 2.10338C3.75195 2.80427 2.79674 3.75906 2.09554 4.93379C1.54907 5.84927 1.18612 6.91314 1.03803 8.03362C0.987323 8.41723 0.987323 9.59109 1.03803 9.9747C1.18612 11.0952 1.54907 12.159 2.09554 13.0745C2.79674 14.2493 3.75195 15.2041 4.9272 15.9049C5.84307 16.4512 6.90741 16.814 8.02838 16.962C8.41216 17.0127 9.58653 17.0127 9.97031 16.962C11.9206 16.7044 13.5738 15.8482 14.923 14.3969C15.6695 13.594 16.2534 12.5953 16.6118 11.5088C16.8943 10.6524 17 9.97041 17 9.00416C17 8.28934 16.9698 7.97354 16.8414 7.34484C16.4013 5.18927 15.0158 3.26293 13.0715 2.10338C12.165 1.56272 11.0839 1.19226 10.0016 1.05131C9.72695 1.01556 8.62975 0.985093 8.43556 1.00785ZM8.52141 5.20314C8.49416 5.2304 6.13912 5.07734 6.09527 5.04547C6.07542 5.03104 6.35991 4.35526 6.52156 4.03297C7.03996 2.99925 7.72434 2.27379 8.40251 2.03907L8.51386 2.00053L8.52197 3.59751C8.52645 4.47582 8.5262 5.19838 8.52141 5.20314ZM9.84807 2.14849C10.4262 2.43997 11.0264 3.13422 11.4771 4.03297C11.6719 4.42135 11.9209 5.02982 11.8955 5.05524C11.8709 5.07981 10.5857 5.17568 10.0095 5.19593L9.46917 5.21494V3.60446V1.99399L9.58966 2.03647C9.65594 2.05986 9.77224 2.11027 9.84807 2.14849ZM6.38096 2.46865C6.36865 2.49019 6.29235 2.59936 6.21138 2.71128C5.86851 3.18531 5.5116 3.88489 5.25705 4.58193C5.18902 4.76814 5.12246 4.90283 5.0984 4.90283C4.96657 4.90283 3.56546 4.58493 3.52675 4.54623C3.50395 4.52347 3.83549 4.15229 4.11907 3.88304C4.64693 3.38193 5.2115 2.99036 5.88204 2.66034C6.36517 2.42256 6.4192 2.40177 6.38096 2.46865ZM12.1167 2.66034C12.787 2.99027 13.3472 3.37876 13.8827 3.88504C14.1796 4.16578 14.5205 4.56305 14.4891 4.59182C14.4377 4.63912 12.8961 4.96147 12.8712 4.93013C12.8661 4.92374 12.8085 4.77056 12.7432 4.58975C12.4922 3.89491 12.1334 3.18982 11.7873 2.71128C11.6079 2.46329 11.588 2.42951 11.6215 2.42951C11.6359 2.42951 11.8587 2.53339 12.1167 2.66034ZM3.22816 5.44834C3.52572 5.53735 4.34897 5.72951 4.65708 5.78189L4.8721 5.81843L4.85569 5.93201C4.84664 5.99447 4.80364 6.23576 4.76013 6.46822C4.66444 6.97945 4.5914 7.5975 4.56312 8.13537L4.54213 8.53454H3.24708H1.952V8.42114C1.952 8.06871 2.13012 7.21673 2.31724 6.67423C2.47619 6.21338 2.885 5.37245 2.95009 5.37245C2.96356 5.37245 3.08869 5.40661 3.22816 5.44834ZM15.373 5.9435C15.5994 6.413 15.7536 6.83922 15.8698 7.31604C15.9555 7.66785 16.0467 8.23781 16.0467 8.42114V8.53454H14.7516H13.4566L13.4356 8.13537C13.4074 7.59944 13.3345 6.98101 13.239 6.46822C13.1957 6.23576 13.1527 6.00133 13.1435 5.94723L13.1267 5.84892L13.3573 5.81138C13.6654 5.7612 14.4943 5.57764 14.8252 5.48632C15.1427 5.39862 15.0884 5.35329 15.373 5.9435ZM6.31055 6.01298C6.69659 6.05518 7.23193 6.09243 8.16149 6.14178L8.52952 6.16131V7.34794V8.53454H7.01043H5.49133V8.36739C5.49133 7.72739 5.75722 5.9673 5.85391 5.9673C5.87515 5.9673 6.08065 5.98787 6.31055 6.01298ZM12.1941 6.01082C12.1941 6.01752 12.2217 6.15705 12.2555 6.32089C12.3849 6.94983 12.5074 7.94451 12.5074 8.36739V8.53454H10.9883H9.46917V7.34885V6.16316L9.97814 6.14215C10.582 6.11723 11.8597 6.02919 11.8783 6.01122C11.8951 5.99501 12.1941 5.99463 12.1941 6.01082ZM4.57721 10.0147C4.61887 10.607 4.70594 11.2612 4.80642 11.7364C4.87633 12.0669 4.87038 12.1349 4.77162 12.1349C4.65899 12.1349 3.62732 12.3528 3.28476 12.449C3.10262 12.5001 2.93198 12.5419 2.90552 12.5419C2.8367 12.5419 2.45762 11.7509 2.30179 11.2821C2.11111 10.7086 1.952 9.9376 1.952 9.58717V9.47378H3.24561H4.53919L4.57721 10.0147ZM8.52952 10.6478V11.8219L8.16149 11.822C7.71134 11.8222 6.91806 11.8693 6.2936 11.9329C6.03717 11.959 5.82372 11.9764 5.8193 11.9715C5.81485 11.9667 5.77451 11.7838 5.72963 11.5651C5.63146 11.0867 5.53459 10.3445 5.50471 9.84164L5.48281 9.47378H7.00617H8.52952V10.6478ZM12.494 9.84164C12.4641 10.3442 12.3656 11.1001 12.2686 11.5714C12.2243 11.7866 12.1831 11.9709 12.1769 11.9808C12.1708 11.9907 12.07 11.9873 11.9529 11.9731C11.457 11.9132 10.634 11.8517 10.0721 11.8325L9.46917 11.8119V10.6429V9.47378H10.9925H12.5159L12.494 9.84164ZM16.0467 9.58717C16.0467 9.93923 15.8876 10.7087 15.6949 11.2883C15.5294 11.786 15.123 12.6174 15.0575 12.5923C14.8354 12.5071 13.2595 12.1349 13.1208 12.1349C13.1141 12.1349 13.136 12.0117 13.1694 11.861C13.2694 11.4098 13.3806 10.5958 13.4213 10.0174L13.4595 9.47378H14.7531H16.0467V9.58717ZM8.52952 14.3578C8.52952 15.236 8.5242 15.9545 8.51768 15.9545C8.48868 15.9545 8.24938 15.8501 8.10668 15.7751C7.53578 15.4754 6.92868 14.7618 6.50709 13.8952C6.34484 13.5617 6.07704 12.9157 6.09452 12.8999C6.10401 12.8912 7.28841 12.7952 7.54289 12.7824C7.64626 12.7772 7.91055 12.7703 8.13017 12.767L8.52952 12.7611V14.3578ZM11.1449 12.8406C11.4205 12.8651 11.7046 12.8932 11.7762 12.9029L11.9064 12.9206L11.7866 13.2279C11.307 14.458 10.6063 15.4001 9.89201 15.7751C9.74931 15.8501 9.51001 15.9545 9.48101 15.9545C9.47449 15.9545 9.46917 15.2341 9.46917 14.3536V12.7528L10.0564 12.7743C10.3795 12.7862 10.8692 12.816 11.1449 12.8406ZM5.19641 13.2076C5.45782 13.9958 5.85046 14.7431 6.42791 15.5515C6.47123 15.6121 6.46963 15.6121 6.31205 15.55C5.58107 15.262 4.74459 14.717 4.11453 14.1181C3.82753 13.8454 3.43194 13.3974 3.45897 13.3757C3.5089 13.3356 5.07936 13.0116 5.12092 13.0328C5.13251 13.0388 5.1665 13.1174 5.19641 13.2076ZM13.2591 13.1218C13.6328 13.1919 14.4601 13.3903 14.4891 13.4167C14.5231 13.4476 14.1679 13.8552 13.8396 14.162C13.2268 14.7346 12.3949 15.271 11.6866 15.55C11.5291 15.6121 11.5275 15.6121 11.5708 15.5515C12.1483 14.743 12.5409 13.9958 12.8024 13.2073C12.8492 13.0663 12.8666 13.045 12.9249 13.0574C12.9623 13.0654 13.1126 13.0944 13.2591 13.1218Z"/>
</mask>
<path fill-rule="evenodd" clip-rule="evenodd" d="M8.43556 1.00785C8.37526 1.01493 8.19203 1.03522 8.02838 1.05297C6.99499 1.16505 5.85062 1.55264 4.9272 2.10338C3.75195 2.80427 2.79674 3.75906 2.09554 4.93379C1.54907 5.84927 1.18612 6.91314 1.03803 8.03362C0.987323 8.41723 0.987323 9.59109 1.03803 9.9747C1.18612 11.0952 1.54907 12.159 2.09554 13.0745C2.79674 14.2493 3.75195 15.2041 4.9272 15.9049C5.84307 16.4512 6.90741 16.814 8.02838 16.962C8.41216 17.0127 9.58653 17.0127 9.97031 16.962C11.9206 16.7044 13.5738 15.8482 14.923 14.3969C15.6695 13.594 16.2534 12.5953 16.6118 11.5088C16.8943 10.6524 17 9.97041 17 9.00416C17 8.28934 16.9698 7.97354 16.8414 7.34484C16.4013 5.18927 15.0158 3.26293 13.0715 2.10338C12.165 1.56272 11.0839 1.19226 10.0016 1.05131C9.72695 1.01556 8.62975 0.985093 8.43556 1.00785ZM8.52141 5.20314C8.49416 5.2304 6.13912 5.07734 6.09527 5.04547C6.07542 5.03104 6.35991 4.35526 6.52156 4.03297C7.03996 2.99925 7.72434 2.27379 8.40251 2.03907L8.51386 2.00053L8.52197 3.59751C8.52645 4.47582 8.5262 5.19838 8.52141 5.20314ZM9.84807 2.14849C10.4262 2.43997 11.0264 3.13422 11.4771 4.03297C11.6719 4.42135 11.9209 5.02982 11.8955 5.05524C11.8709 5.07981 10.5857 5.17568 10.0095 5.19593L9.46917 5.21494V3.60446V1.99399L9.58966 2.03647C9.65594 2.05986 9.77224 2.11027 9.84807 2.14849ZM6.38096 2.46865C6.36865 2.49019 6.29235 2.59936 6.21138 2.71128C5.86851 3.18531 5.5116 3.88489 5.25705 4.58193C5.18902 4.76814 5.12246 4.90283 5.0984 4.90283C4.96657 4.90283 3.56546 4.58493 3.52675 4.54623C3.50395 4.52347 3.83549 4.15229 4.11907 3.88304C4.64693 3.38193 5.2115 2.99036 5.88204 2.66034C6.36517 2.42256 6.4192 2.40177 6.38096 2.46865ZM12.1167 2.66034C12.787 2.99027 13.3472 3.37876 13.8827 3.88504C14.1796 4.16578 14.5205 4.56305 14.4891 4.59182C14.4377 4.63912 12.8961 4.96147 12.8712 4.93013C12.8661 4.92374 12.8085 4.77056 12.7432 4.58975C12.4922 3.89491 12.1334 3.18982 11.7873 2.71128C11.6079 2.46329 11.588 2.42951 11.6215 2.42951C11.6359 2.42951 11.8587 2.53339 12.1167 2.66034ZM3.22816 5.44834C3.52572 5.53735 4.34897 5.72951 4.65708 5.78189L4.8721 5.81843L4.85569 5.93201C4.84664 5.99447 4.80364 6.23576 4.76013 6.46822C4.66444 6.97945 4.5914 7.5975 4.56312 8.13537L4.54213 8.53454H3.24708H1.952V8.42114C1.952 8.06871 2.13012 7.21673 2.31724 6.67423C2.47619 6.21338 2.885 5.37245 2.95009 5.37245C2.96356 5.37245 3.08869 5.40661 3.22816 5.44834ZM15.373 5.9435C15.5994 6.413 15.7536 6.83922 15.8698 7.31604C15.9555 7.66785 16.0467 8.23781 16.0467 8.42114V8.53454H14.7516H13.4566L13.4356 8.13537C13.4074 7.59944 13.3345 6.98101 13.239 6.46822C13.1957 6.23576 13.1527 6.00133 13.1435 5.94723L13.1267 5.84892L13.3573 5.81138C13.6654 5.7612 14.4943 5.57764 14.8252 5.48632C15.1427 5.39862 15.0884 5.35329 15.373 5.9435ZM6.31055 6.01298C6.69659 6.05518 7.23193 6.09243 8.16149 6.14178L8.52952 6.16131V7.34794V8.53454H7.01043H5.49133V8.36739C5.49133 7.72739 5.75722 5.9673 5.85391 5.9673C5.87515 5.9673 6.08065 5.98787 6.31055 6.01298ZM12.1941 6.01082C12.1941 6.01752 12.2217 6.15705 12.2555 6.32089C12.3849 6.94983 12.5074 7.94451 12.5074 8.36739V8.53454H10.9883H9.46917V7.34885V6.16316L9.97814 6.14215C10.582 6.11723 11.8597 6.02919 11.8783 6.01122C11.8951 5.99501 12.1941 5.99463 12.1941 6.01082ZM4.57721 10.0147C4.61887 10.607 4.70594 11.2612 4.80642 11.7364C4.87633 12.0669 4.87038 12.1349 4.77162 12.1349C4.65899 12.1349 3.62732 12.3528 3.28476 12.449C3.10262 12.5001 2.93198 12.5419 2.90552 12.5419C2.8367 12.5419 2.45762 11.7509 2.30179 11.2821C2.11111 10.7086 1.952 9.9376 1.952 9.58717V9.47378H3.24561H4.53919L4.57721 10.0147ZM8.52952 10.6478V11.8219L8.16149 11.822C7.71134 11.8222 6.91806 11.8693 6.2936 11.9329C6.03717 11.959 5.82372 11.9764 5.8193 11.9715C5.81485 11.9667 5.77451 11.7838 5.72963 11.5651C5.63146 11.0867 5.53459 10.3445 5.50471 9.84164L5.48281 9.47378H7.00617H8.52952V10.6478ZM12.494 9.84164C12.4641 10.3442 12.3656 11.1001 12.2686 11.5714C12.2243 11.7866 12.1831 11.9709 12.1769 11.9808C12.1708 11.9907 12.07 11.9873 11.9529 11.9731C11.457 11.9132 10.634 11.8517 10.0721 11.8325L9.46917 11.8119V10.6429V9.47378H10.9925H12.5159L12.494 9.84164ZM16.0467 9.58717C16.0467 9.93923 15.8876 10.7087 15.6949 11.2883C15.5294 11.786 15.123 12.6174 15.0575 12.5923C14.8354 12.5071 13.2595 12.1349 13.1208 12.1349C13.1141 12.1349 13.136 12.0117 13.1694 11.861C13.2694 11.4098 13.3806 10.5958 13.4213 10.0174L13.4595 9.47378H14.7531H16.0467V9.58717ZM8.52952 14.3578C8.52952 15.236 8.5242 15.9545 8.51768 15.9545C8.48868 15.9545 8.24938 15.8501 8.10668 15.7751C7.53578 15.4754 6.92868 14.7618 6.50709 13.8952C6.34484 13.5617 6.07704 12.9157 6.09452 12.8999C6.10401 12.8912 7.28841 12.7952 7.54289 12.7824C7.64626 12.7772 7.91055 12.7703 8.13017 12.767L8.52952 12.7611V14.3578ZM11.1449 12.8406C11.4205 12.8651 11.7046 12.8932 11.7762 12.9029L11.9064 12.9206L11.7866 13.2279C11.307 14.458 10.6063 15.4001 9.89201 15.7751C9.74931 15.8501 9.51001 15.9545 9.48101 15.9545C9.47449 15.9545 9.46917 15.2341 9.46917 14.3536V12.7528L10.0564 12.7743C10.3795 12.7862 10.8692 12.816 11.1449 12.8406ZM5.19641 13.2076C5.45782 13.9958 5.85046 14.7431 6.42791 15.5515C6.47123 15.6121 6.46963 15.6121 6.31205 15.55C5.58107 15.262 4.74459 14.717 4.11453 14.1181C3.82753 13.8454 3.43194 13.3974 3.45897 13.3757C3.5089 13.3356 5.07936 13.0116 5.12092 13.0328C5.13251 13.0388 5.1665 13.1174 5.19641 13.2076ZM13.2591 13.1218C13.6328 13.1919 14.4601 13.3903 14.4891 13.4167C14.5231 13.4476 14.1679 13.8552 13.8396 14.162C13.2268 14.7346 12.3949 15.271 11.6866 15.55C11.5291 15.6121 11.5275 15.6121 11.5708 15.5515C12.1483 14.743 12.5409 13.9958 12.8024 13.2073C12.8492 13.0663 12.8666 13.045 12.9249 13.0574C12.9623 13.0654 13.1126 13.0944 13.2591 13.1218Z" fill="#171414"/>
<path fill-rule="evenodd" clip-rule="evenodd" d="M8.43556 1.00785C8.37526 1.01493 8.19203 1.03522 8.02838 1.05297C6.99499 1.16505 5.85062 1.55264 4.9272 2.10338C3.75195 2.80427 2.79674 3.75906 2.09554 4.93379C1.54907 5.84927 1.18612 6.91314 1.03803 8.03362C0.987323 8.41723 0.987323 9.59109 1.03803 9.9747C1.18612 11.0952 1.54907 12.159 2.09554 13.0745C2.79674 14.2493 3.75195 15.2041 4.9272 15.9049C5.84307 16.4512 6.90741 16.814 8.02838 16.962C8.41216 17.0127 9.58653 17.0127 9.97031 16.962C11.9206 16.7044 13.5738 15.8482 14.923 14.3969C15.6695 13.594 16.2534 12.5953 16.6118 11.5088C16.8943 10.6524 17 9.97041 17 9.00416C17 8.28934 16.9698 7.97354 16.8414 7.34484C16.4013 5.18927 15.0158 3.26293 13.0715 2.10338C12.165 1.56272 11.0839 1.19226 10.0016 1.05131C9.72695 1.01556 8.62975 0.985093 8.43556 1.00785ZM8.52141 5.20314C8.49416 5.2304 6.13912 5.07734 6.09527 5.04547C6.07542 5.03104 6.35991 4.35526 6.52156 4.03297C7.03996 2.99925 7.72434 2.27379 8.40251 2.03907L8.51386 2.00053L8.52197 3.59751C8.52645 4.47582 8.5262 5.19838 8.52141 5.20314ZM9.84807 2.14849C10.4262 2.43997 11.0264 3.13422 11.4771 4.03297C11.6719 4.42135 11.9209 5.02982 11.8955 5.05524C11.8709 5.07981 10.5857 5.17568 10.0095 5.19593L9.46917 5.21494V3.60446V1.99399L9.58966 2.03647C9.65594 2.05986 9.77224 2.11027 9.84807 2.14849ZM6.38096 2.46865C6.36865 2.49019 6.29235 2.59936 6.21138 2.71128C5.86851 3.18531 5.5116 3.88489 5.25705 4.58193C5.18902 4.76814 5.12246 4.90283 5.0984 4.90283C4.96657 4.90283 3.56546 4.58493 3.52675 4.54623C3.50395 4.52347 3.83549 4.15229 4.11907 3.88304C4.64693 3.38193 5.2115 2.99036 5.88204 2.66034C6.36517 2.42256 6.4192 2.40177 6.38096 2.46865ZM12.1167 2.66034C12.787 2.99027 13.3472 3.37876 13.8827 3.88504C14.1796 4.16578 14.5205 4.56305 14.4891 4.59182C14.4377 4.63912 12.8961 4.96147 12.8712 4.93013C12.8661 4.92374 12.8085 4.77056 12.7432 4.58975C12.4922 3.89491 12.1334 3.18982 11.7873 2.71128C11.6079 2.46329 11.588 2.42951 11.6215 2.42951C11.6359 2.42951 11.8587 2.53339 12.1167 2.66034ZM3.22816 5.44834C3.52572 5.53735 4.34897 5.72951 4.65708 5.78189L4.8721 5.81843L4.85569 5.93201C4.84664 5.99447 4.80364 6.23576 4.76013 6.46822C4.66444 6.97945 4.5914 7.5975 4.56312 8.13537L4.54213 8.53454H3.24708H1.952V8.42114C1.952 8.06871 2.13012 7.21673 2.31724 6.67423C2.47619 6.21338 2.885 5.37245 2.95009 5.37245C2.96356 5.37245 3.08869 5.40661 3.22816 5.44834ZM15.373 5.9435C15.5994 6.413 15.7536 6.83922 15.8698 7.31604C15.9555 7.66785 16.0467 8.23781 16.0467 8.42114V8.53454H14.7516H13.4566L13.4356 8.13537C13.4074 7.59944 13.3345 6.98101 13.239 6.46822C13.1957 6.23576 13.1527 6.00133 13.1435 5.94723L13.1267 5.84892L13.3573 5.81138C13.6654 5.7612 14.4943 5.57764 14.8252 5.48632C15.1427 5.39862 15.0884 5.35329 15.373 5.9435ZM6.31055 6.01298C6.69659 6.05518 7.23193 6.09243 8.16149 6.14178L8.52952 6.16131V7.34794V8.53454H7.01043H5.49133V8.36739C5.49133 7.72739 5.75722 5.9673 5.85391 5.9673C5.87515 5.9673 6.08065 5.98787 6.31055 6.01298ZM12.1941 6.01082C12.1941 6.01752 12.2217 6.15705 12.2555 6.32089C12.3849 6.94983 12.5074 7.94451 12.5074 8.36739V8.53454H10.9883H9.46917V7.34885V6.16316L9.97814 6.14215C10.582 6.11723 11.8597 6.02919 11.8783 6.01122C11.8951 5.99501 12.1941 5.99463 12.1941 6.01082ZM4.57721 10.0147C4.61887 10.607 4.70594 11.2612 4.80642 11.7364C4.87633 12.0669 4.87038 12.1349 4.77162 12.1349C4.65899 12.1349 3.62732 12.3528 3.28476 12.449C3.10262 12.5001 2.93198 12.5419 2.90552 12.5419C2.8367 12.5419 2.45762 11.7509 2.30179 11.2821C2.11111 10.7086 1.952 9.9376 1.952 9.58717V9.47378H3.24561H4.53919L4.57721 10.0147ZM8.52952 10.6478V11.8219L8.16149 11.822C7.71134 11.8222 6.91806 11.8693 6.2936 11.9329C6.03717 11.959 5.82372 11.9764 5.8193 11.9715C5.81485 11.9667 5.77451 11.7838 5.72963 11.5651C5.63146 11.0867 5.53459 10.3445 5.50471 9.84164L5.48281 9.47378H7.00617H8.52952V10.6478ZM12.494 9.84164C12.4641 10.3442 12.3656 11.1001 12.2686 11.5714C12.2243 11.7866 12.1831 11.9709 12.1769 11.9808C12.1708 11.9907 12.07 11.9873 11.9529 11.9731C11.457 11.9132 10.634 11.8517 10.0721 11.8325L9.46917 11.8119V10.6429V9.47378H10.9925H12.5159L12.494 9.84164ZM16.0467 9.58717C16.0467 9.93923 15.8876 10.7087 15.6949 11.2883C15.5294 11.786 15.123 12.6174 15.0575 12.5923C14.8354 12.5071 13.2595 12.1349 13.1208 12.1349C13.1141 12.1349 13.136 12.0117 13.1694 11.861C13.2694 11.4098 13.3806 10.5958 13.4213 10.0174L13.4595 9.47378H14.7531H16.0467V9.58717ZM8.52952 14.3578C8.52952 15.236 8.5242 15.9545 8.51768 15.9545C8.48868 15.9545 8.24938 15.8501 8.10668 15.7751C7.53578 15.4754 6.92868 14.7618 6.50709 13.8952C6.34484 13.5617 6.07704 12.9157 6.09452 12.8999C6.10401 12.8912 7.28841 12.7952 7.54289 12.7824C7.64626 12.7772 7.91055 12.7703 8.13017 12.767L8.52952 12.7611V14.3578ZM11.1449 12.8406C11.4205 12.8651 11.7046 12.8932 11.7762 12.9029L11.9064 12.9206L11.7866 13.2279C11.307 14.458 10.6063 15.4001 9.89201 15.7751C9.74931 15.8501 9.51001 15.9545 9.48101 15.9545C9.47449 15.9545 9.46917 15.2341 9.46917 14.3536V12.7528L10.0564 12.7743C10.3795 12.7862 10.8692 12.816 11.1449 12.8406ZM5.19641 13.2076C5.45782 13.9958 5.85046 14.7431 6.42791 15.5515C6.47123 15.6121 6.46963 15.6121 6.31205 15.55C5.58107 15.262 4.74459 14.717 4.11453 14.1181C3.82753 13.8454 3.43194 13.3974 3.45897 13.3757C3.5089 13.3356 5.07936 13.0116 5.12092 13.0328C5.13251 13.0388 5.1665 13.1174 5.19641 13.2076ZM13.2591 13.1218C13.6328 13.1919 14.4601 13.3903 14.4891 13.4167C14.5231 13.4476 14.1679 13.8552 13.8396 14.162C13.2268 14.7346 12.3949 15.271 11.6866 15.55C11.5291 15.6121 11.5275 15.6121 11.5708 15.5515C12.1483 14.743 12.5409 13.9958 12.8024 13.2073C12.8492 13.0663 12.8666 13.045 12.9249 13.0574C12.9623 13.0654 13.1126 13.0944 13.2591 13.1218Z" stroke="#171414" stroke-width="0.2" mask="url(#path-1-outside-1_79_67283)"/>
</svg>
