<svg width="30" height="30" viewBox="0 0 30 30" fill="none" xmlns="http://www.w3.org/2000/svg">
<rect width="30" height="30" rx="5" fill="#171414"/>
<path fill-rule="evenodd" clip-rule="evenodd" d="M10.9106 8.75056C10.9106 9.72235 10.1792 10.4977 9.00762 10.4977H8.98392C7.85638 10.4977 7.125 9.71896 7.125 8.75056C7.125 7.75508 7.87669 7 9.02793 7C10.1792 7 10.8869 7.75508 10.9106 8.75056ZM10.6905 11.8792H7.32478V22H10.6905V11.8792ZM22.8191 22V16.1964C22.8191 13.088 21.16 11.6422 18.9455 11.6422C17.1577 11.6422 16.3586 12.6207 15.9117 13.3115V11.8792H12.546C12.5868 12.7549 12.5519 20.6455 12.5466 21.8472C12.5462 21.9419 12.546 21.995 12.546 22H15.9117V16.3453C15.9117 16.044 15.9354 15.7426 16.0234 15.5259C16.2672 14.9232 16.8225 14.2968 17.7503 14.2968C18.9658 14.2968 19.4534 15.2246 19.4534 16.5857V22H22.8191ZM15.9117 13.3115V13.3453H15.888C15.8953 13.338 15.9009 13.3288 15.906 13.3205C15.908 13.3173 15.9098 13.3143 15.9117 13.3115Z" fill="white"/>
</svg>
