<svg width="27" height="28" viewBox="0 0 27 28" fill="none" xmlns="http://www.w3.org/2000/svg">
<g clip-path="url(#clip0_92_59186)">
<path fill-rule="evenodd" clip-rule="evenodd" d="M8.66143 22.7667C10.1244 23.6027 11.7854 24.0427 13.4354 24.0427C19.0344 24.0427 23.6764 19.5327 23.6544 13.9337C23.6544 11.2607 22.5104 8.70872 20.6074 6.80572C18.7044 4.89172 16.1634 3.81372 13.4244 3.81372C7.89142 3.81372 3.38143 8.38971 3.38143 13.9227C3.38143 15.7047 3.82142 17.4207 4.71242 18.9497L3.31543 24.1637L8.66143 22.7667ZM17.7478 16.0755L17.7815 16.1226C17.9025 16.2766 18.0125 16.4637 18.0125 16.7167C18.0125 17.0137 17.8585 17.2446 17.7705 17.3436L16.9125 18.2017C16.0105 19.1037 13.6235 18.1137 11.5005 15.9907C9.37747 13.8677 8.43147 11.4807 9.28947 10.5787L10.1475 9.72066C10.2465 9.63266 10.4555 9.47865 10.7415 9.47865C10.9945 9.47865 11.1925 9.59966 11.3685 9.72066C11.3984 9.74166 11.4278 9.76222 11.4566 9.78239C12.1364 10.2586 12.4963 10.5108 12.6335 10.9856C12.8205 11.5796 12.5785 12.1187 12.4795 12.3277C12.5455 12.6357 12.7545 13.4496 13.4805 14.1646C14.2065 14.8796 15.0315 15.0886 15.3395 15.1436C15.5375 15.0116 15.9995 14.7477 16.5165 14.8577C16.9474 14.9546 17.2201 15.3364 17.7478 16.0755Z" fill="#171717"/>
<path fill-rule="evenodd" clip-rule="evenodd" d="M8.66143 22.7667C10.1244 23.6027 11.7854 24.0427 13.4354 24.0427C19.0344 24.0427 23.6764 19.5327 23.6544 13.9337C23.6544 11.2607 22.5104 8.70872 20.6074 6.80572C18.7044 4.89172 16.1634 3.81372 13.4244 3.81372C7.89142 3.81372 3.38143 8.38971 3.38143 13.9227C3.38143 15.7047 3.82142 17.4207 4.71242 18.9497L3.31543 24.1637L8.66143 22.7667ZM17.7478 16.0755L17.7815 16.1226C17.9025 16.2766 18.0125 16.4637 18.0125 16.7167C18.0125 17.0137 17.8585 17.2446 17.7705 17.3436L16.9125 18.2017C16.0105 19.1037 13.6235 18.1137 11.5005 15.9907C9.37747 13.8677 8.43147 11.4807 9.28947 10.5787L10.1475 9.72066C10.2465 9.63266 10.4555 9.47865 10.7415 9.47865C10.9945 9.47865 11.1925 9.59966 11.3685 9.72066C11.3984 9.74166 11.4278 9.76222 11.4566 9.78239C12.1364 10.2586 12.4963 10.5108 12.6335 10.9856C12.8205 11.5796 12.5785 12.1187 12.4795 12.3277C12.5455 12.6357 12.7545 13.4496 13.4805 14.1646C14.2065 14.8796 15.0315 15.0886 15.3395 15.1436C15.5375 15.0116 15.9995 14.7477 16.5165 14.8577C16.9474 14.9546 17.2201 15.3364 17.7478 16.0755Z" fill="#51CD5E"/>
</g>
<defs>
<clipPath id="clip0_92_59186">
<rect width="26.4" height="26.4" fill="white" transform="translate(0.300781 0.799805)"/>
</clipPath>
</defs>
</svg>
