<svg width="28" height="28" viewBox="0 0 28 28" fill="none" xmlns="http://www.w3.org/2000/svg">
<g clip-path="url(#clip0_79_82421)">
<mask id="path-1-outside-1_79_82421" maskUnits="userSpaceOnUse" x="-0.199219" y="-0.200195" width="28" height="28" fill="black">
<rect fill="white" x="-0.199219" y="-0.200195" width="28" height="28"/>
<path fill-rule="evenodd" clip-rule="evenodd" d="M12.4831 1.71717C11.7267 2.23246 10.9832 2.79873 10.7778 3.01589C10.4124 3.40235 10.1184 4.003 10.1184 4.36326V4.53651L9.78003 4.32824C9.43217 4.11419 8.7536 3.9024 8.41556 3.9024C8.2033 3.9024 5.00283 4.49987 4.80469 4.57647C4.73565 4.60315 4.64763 4.68399 4.60902 4.75614C4.526 4.91131 3.90666 8.13483 3.90666 8.41193C3.90666 8.75652 4.12139 9.43835 4.33196 9.76205L4.53857 10.0797L4.25932 10.1287C3.81913 10.206 3.38029 10.4298 3.02311 10.759C2.62415 11.1269 0.800781 13.7842 0.800781 13.9979C0.800781 14.2116 2.62415 16.869 3.02311 17.2368C3.38029 17.566 3.81913 17.7898 4.25932 17.8671L4.53857 17.9161L4.33196 18.2338C4.12139 18.5575 3.90666 19.2394 3.90666 19.584C3.90666 19.861 4.526 23.0846 4.60902 23.2397C4.64763 23.3119 4.73565 23.3925 4.80455 23.419C4.9244 23.465 7.5061 23.9629 8.1169 24.0579C8.51353 24.1195 9.15455 23.9918 9.62346 23.7575C9.8365 23.651 10.035 23.5534 10.0646 23.5405C10.0942 23.5275 10.1184 23.5819 10.1184 23.6614C10.1184 23.9634 10.4208 24.5947 10.7305 24.9391C11.1095 25.3607 13.771 27.1998 14.0022 27.1998C14.2351 27.1998 16.7265 25.4883 17.1876 25.0115C17.5745 24.6116 17.8831 24.0149 17.8831 23.6672C17.8831 23.4898 17.887 23.4904 18.3254 23.7342C18.7792 23.9867 19.415 24.1225 19.8504 24.0602C20.4924 23.9682 22.8638 23.5209 23.0896 23.4492C23.216 23.409 23.3532 23.3132 23.3945 23.2361C23.4798 23.0767 24.0949 19.8659 24.0949 19.5801C24.0949 19.2389 23.8792 18.556 23.6696 18.2338L23.463 17.9161L23.7422 17.8671C24.1824 17.7898 24.6213 17.566 24.9785 17.2368C25.3774 16.869 27.2008 14.2116 27.2008 13.9979C27.2008 13.7842 25.3774 11.1269 24.9785 10.759C24.6213 10.4298 24.1824 10.206 23.7422 10.1287L23.463 10.0797L23.6696 9.76205C23.8802 9.43835 24.0949 8.75652 24.0949 8.41193C24.0949 8.13208 23.4751 4.91054 23.3911 4.75353C23.3517 4.67989 23.216 4.58713 23.0896 4.54731C22.7636 4.4448 19.8181 3.9024 19.5871 3.9024C19.2415 3.9024 18.5601 4.11694 18.2361 4.32775L17.9184 4.53439L17.8694 4.2551C17.7921 3.81485 17.5684 3.37594 17.2392 3.01872C16.8497 2.59605 14.2109 0.794732 13.9886 0.799815C13.8982 0.801863 13.2208 1.21465 12.4831 1.71717ZM15.2474 2.73752C15.9059 3.18731 16.5207 3.66264 16.6257 3.80313C16.8395 4.08899 16.9655 4.57901 16.9655 5.12431V5.49213L15.4831 6.97342L14.0008 8.45471L12.5184 6.97342L11.0361 5.49213L11.0378 5.1032C11.0402 4.56468 11.152 4.12605 11.366 3.81549C11.484 3.64422 11.9688 3.26779 12.7524 2.73887C13.415 2.29163 13.98 1.92565 14.0079 1.92565C14.0358 1.92565 14.5936 2.29099 15.2474 2.73752ZM9.07344 5.07101C9.2017 5.13546 9.47346 5.35051 9.67725 5.54889L10.0478 5.90964V7.97704V10.0444H7.98073H5.91363L5.55292 9.6738C4.84337 8.94459 4.81457 8.75941 5.13751 7.00554C5.27657 6.25014 5.41704 5.58489 5.44958 5.52728C5.53019 5.38475 8.05746 4.88788 8.50873 4.92593C8.69106 4.94125 8.94518 5.00655 9.07344 5.07101ZM21.053 5.14641C21.8137 5.28697 22.4719 5.43784 22.5158 5.48175C22.6428 5.60868 23.1242 8.34041 23.0702 8.62782C22.9994 9.00545 22.8432 9.26828 22.4486 9.6738L22.0879 10.0444H20.0208H17.9537V7.97704V5.90964L18.3243 5.54945C18.781 5.1056 19.1349 4.91491 19.5353 4.89684C19.6094 4.89352 20.2923 5.00577 21.053 5.14641ZM12.8552 9.60186L12.4166 10.0444H11.7264H11.0361V8.47448V6.90444L12.1649 8.03183L13.2938 9.15921L12.8552 9.60186ZM16.9655 8.49128V10.0444H16.2792H15.5928L15.1491 9.60461L14.7054 9.16479L15.8169 8.05145C16.4283 7.43915 16.9368 6.93812 16.947 6.93812C16.9572 6.93812 16.9655 7.63704 16.9655 8.49128ZM14.5829 10.4504L15.1329 10.9975L16.0315 11.0328L16.9302 11.0681L16.9655 11.9669L17.0008 12.8656L17.5639 13.4318L18.1269 13.9979L17.5639 14.5641L17.0008 15.1303L16.9655 16.029L16.9302 16.9278L16.0315 16.9631L15.1329 16.9984L14.5668 17.5615L14.0008 18.1246L13.4347 17.5615L12.8686 16.9984L11.97 16.9631L11.0714 16.9278L11.0361 16.029L11.0008 15.1303L10.4377 14.5641L9.87469 13.9979L10.4377 13.4318L11.0008 12.8656L11.0361 11.9669L11.0714 11.0681L11.9711 11.0328L12.8708 10.9975L13.4176 10.4504C13.7183 10.1495 13.9798 9.90324 13.9987 9.90324C14.0175 9.90324 14.2805 10.1495 14.5829 10.4504ZM6.97725 12.5154L8.45833 13.9979L6.97725 15.4805L5.49617 16.9631L5.1073 16.9614C4.56942 16.959 4.13036 16.8472 3.8209 16.6339C3.65304 16.5182 3.27222 16.0308 2.76208 15.2788C2.32393 14.6329 1.95617 14.0695 1.94473 14.0267C1.91269 13.9067 3.52153 11.591 3.77466 11.3929C4.05695 11.172 4.52523 11.0437 5.072 11.0375L5.49617 11.0328L6.97725 12.5154ZM10.0478 11.7232V12.4136L9.60532 12.8522L9.16273 13.2909L8.03551 12.1618L6.90829 11.0328H8.4781H10.0478V11.7232ZM19.9661 12.1618L18.8388 13.2909L18.3962 12.8522L17.9537 12.4136V11.7232V11.0328H19.5235H21.0933L19.9661 12.1618ZM23.6008 11.1088C24.1579 11.2359 24.3859 11.4627 25.2684 12.7681L26.0994 13.9972L25.2731 15.2237C24.7313 16.0281 24.3559 16.5131 24.1826 16.6325C23.8713 16.8471 23.4331 16.959 22.8943 16.9614L22.5054 16.9631L21.0243 15.4805L19.5432 13.9979L21.0243 12.5154L22.5054 11.0328L22.8943 11.0345C23.1081 11.0355 23.4261 11.0689 23.6008 11.1088ZM10.0478 16.2727V16.9631H8.4781H6.90829L8.03551 15.8341L9.16273 14.705L9.60532 15.1437L10.0478 15.5823V16.2727ZM19.9655 15.8335L21.0933 16.9631H19.5235H17.9537V16.2766V15.5902L18.3929 15.1471C18.6344 14.9034 18.8333 14.7039 18.8349 14.7039C18.8364 14.7039 19.3452 15.2122 19.9655 15.8335ZM10.0478 20.0188V22.0862L9.67725 22.447C8.94384 23.1608 8.7733 23.1867 6.98798 22.8554C6.20558 22.7102 5.52963 22.5561 5.48579 22.5129C5.35902 22.3882 4.87732 19.6558 4.93132 19.3681C5.00212 18.9904 5.15833 18.7276 5.55292 18.3221L5.91363 17.9514H7.98073H10.0478V20.0188ZM12.8552 18.394L13.2938 18.8367L12.1649 19.9641L11.0361 21.0914V19.5214V17.9514H11.7264H12.4166L12.8552 18.394ZM16.9655 19.5214V21.0914L15.8366 19.9641L14.7077 18.8367L15.1464 18.394L15.5849 17.9514H16.2752H16.9655V19.5214ZM22.4486 18.3221C22.8432 18.7276 22.9994 18.9904 23.0702 19.3681C23.1242 19.6555 22.6428 22.3872 22.5158 22.5141C22.3889 22.6411 19.6575 23.1226 19.3701 23.0687C18.9926 22.9979 18.7298 22.8416 18.3243 22.447L17.9537 22.0862V20.0188V17.9514H20.0208H22.0879L22.4486 18.3221ZM15.5001 21.0395L16.9655 22.5038L16.9638 22.8927C16.9614 23.4295 16.8497 23.8696 16.638 24.1769C16.5237 24.3427 16.0201 24.7351 15.2477 25.2602L14.0364 26.0835L13.8245 25.9677C13.2817 25.6709 11.5165 24.3856 11.3604 24.1735C11.1601 23.9015 11.0361 23.4041 11.0361 22.8728V22.5062L12.5001 21.0407C13.3054 20.2347 13.9801 19.5752 13.9995 19.5752C14.0189 19.5752 14.6942 20.2341 15.5001 21.0395Z"/>
</mask>
<path fill-rule="evenodd" clip-rule="evenodd" d="M12.4831 1.71717C11.7267 2.23246 10.9832 2.79873 10.7778 3.01589C10.4124 3.40235 10.1184 4.003 10.1184 4.36326V4.53651L9.78003 4.32824C9.43217 4.11419 8.7536 3.9024 8.41556 3.9024C8.2033 3.9024 5.00283 4.49987 4.80469 4.57647C4.73565 4.60315 4.64763 4.68399 4.60902 4.75614C4.526 4.91131 3.90666 8.13483 3.90666 8.41193C3.90666 8.75652 4.12139 9.43835 4.33196 9.76205L4.53857 10.0797L4.25932 10.1287C3.81913 10.206 3.38029 10.4298 3.02311 10.759C2.62415 11.1269 0.800781 13.7842 0.800781 13.9979C0.800781 14.2116 2.62415 16.869 3.02311 17.2368C3.38029 17.566 3.81913 17.7898 4.25932 17.8671L4.53857 17.9161L4.33196 18.2338C4.12139 18.5575 3.90666 19.2394 3.90666 19.584C3.90666 19.861 4.526 23.0846 4.60902 23.2397C4.64763 23.3119 4.73565 23.3925 4.80455 23.419C4.9244 23.465 7.5061 23.9629 8.1169 24.0579C8.51353 24.1195 9.15455 23.9918 9.62346 23.7575C9.8365 23.651 10.035 23.5534 10.0646 23.5405C10.0942 23.5275 10.1184 23.5819 10.1184 23.6614C10.1184 23.9634 10.4208 24.5947 10.7305 24.9391C11.1095 25.3607 13.771 27.1998 14.0022 27.1998C14.2351 27.1998 16.7265 25.4883 17.1876 25.0115C17.5745 24.6116 17.8831 24.0149 17.8831 23.6672C17.8831 23.4898 17.887 23.4904 18.3254 23.7342C18.7792 23.9867 19.415 24.1225 19.8504 24.0602C20.4924 23.9682 22.8638 23.5209 23.0896 23.4492C23.216 23.409 23.3532 23.3132 23.3945 23.2361C23.4798 23.0767 24.0949 19.8659 24.0949 19.5801C24.0949 19.2389 23.8792 18.556 23.6696 18.2338L23.463 17.9161L23.7422 17.8671C24.1824 17.7898 24.6213 17.566 24.9785 17.2368C25.3774 16.869 27.2008 14.2116 27.2008 13.9979C27.2008 13.7842 25.3774 11.1269 24.9785 10.759C24.6213 10.4298 24.1824 10.206 23.7422 10.1287L23.463 10.0797L23.6696 9.76205C23.8802 9.43835 24.0949 8.75652 24.0949 8.41193C24.0949 8.13208 23.4751 4.91054 23.3911 4.75353C23.3517 4.67989 23.216 4.58713 23.0896 4.54731C22.7636 4.4448 19.8181 3.9024 19.5871 3.9024C19.2415 3.9024 18.5601 4.11694 18.2361 4.32775L17.9184 4.53439L17.8694 4.2551C17.7921 3.81485 17.5684 3.37594 17.2392 3.01872C16.8497 2.59605 14.2109 0.794732 13.9886 0.799815C13.8982 0.801863 13.2208 1.21465 12.4831 1.71717ZM15.2474 2.73752C15.9059 3.18731 16.5207 3.66264 16.6257 3.80313C16.8395 4.08899 16.9655 4.57901 16.9655 5.12431V5.49213L15.4831 6.97342L14.0008 8.45471L12.5184 6.97342L11.0361 5.49213L11.0378 5.1032C11.0402 4.56468 11.152 4.12605 11.366 3.81549C11.484 3.64422 11.9688 3.26779 12.7524 2.73887C13.415 2.29163 13.98 1.92565 14.0079 1.92565C14.0358 1.92565 14.5936 2.29099 15.2474 2.73752ZM9.07344 5.07101C9.2017 5.13546 9.47346 5.35051 9.67725 5.54889L10.0478 5.90964V7.97704V10.0444H7.98073H5.91363L5.55292 9.6738C4.84337 8.94459 4.81457 8.75941 5.13751 7.00554C5.27657 6.25014 5.41704 5.58489 5.44958 5.52728C5.53019 5.38475 8.05746 4.88788 8.50873 4.92593C8.69106 4.94125 8.94518 5.00655 9.07344 5.07101ZM21.053 5.14641C21.8137 5.28697 22.4719 5.43784 22.5158 5.48175C22.6428 5.60868 23.1242 8.34041 23.0702 8.62782C22.9994 9.00545 22.8432 9.26828 22.4486 9.6738L22.0879 10.0444H20.0208H17.9537V7.97704V5.90964L18.3243 5.54945C18.781 5.1056 19.1349 4.91491 19.5353 4.89684C19.6094 4.89352 20.2923 5.00577 21.053 5.14641ZM12.8552 9.60186L12.4166 10.0444H11.7264H11.0361V8.47448V6.90444L12.1649 8.03183L13.2938 9.15921L12.8552 9.60186ZM16.9655 8.49128V10.0444H16.2792H15.5928L15.1491 9.60461L14.7054 9.16479L15.8169 8.05145C16.4283 7.43915 16.9368 6.93812 16.947 6.93812C16.9572 6.93812 16.9655 7.63704 16.9655 8.49128ZM14.5829 10.4504L15.1329 10.9975L16.0315 11.0328L16.9302 11.0681L16.9655 11.9669L17.0008 12.8656L17.5639 13.4318L18.1269 13.9979L17.5639 14.5641L17.0008 15.1303L16.9655 16.029L16.9302 16.9278L16.0315 16.9631L15.1329 16.9984L14.5668 17.5615L14.0008 18.1246L13.4347 17.5615L12.8686 16.9984L11.97 16.9631L11.0714 16.9278L11.0361 16.029L11.0008 15.1303L10.4377 14.5641L9.87469 13.9979L10.4377 13.4318L11.0008 12.8656L11.0361 11.9669L11.0714 11.0681L11.9711 11.0328L12.8708 10.9975L13.4176 10.4504C13.7183 10.1495 13.9798 9.90324 13.9987 9.90324C14.0175 9.90324 14.2805 10.1495 14.5829 10.4504ZM6.97725 12.5154L8.45833 13.9979L6.97725 15.4805L5.49617 16.9631L5.1073 16.9614C4.56942 16.959 4.13036 16.8472 3.8209 16.6339C3.65304 16.5182 3.27222 16.0308 2.76208 15.2788C2.32393 14.6329 1.95617 14.0695 1.94473 14.0267C1.91269 13.9067 3.52153 11.591 3.77466 11.3929C4.05695 11.172 4.52523 11.0437 5.072 11.0375L5.49617 11.0328L6.97725 12.5154ZM10.0478 11.7232V12.4136L9.60532 12.8522L9.16273 13.2909L8.03551 12.1618L6.90829 11.0328H8.4781H10.0478V11.7232ZM19.9661 12.1618L18.8388 13.2909L18.3962 12.8522L17.9537 12.4136V11.7232V11.0328H19.5235H21.0933L19.9661 12.1618ZM23.6008 11.1088C24.1579 11.2359 24.3859 11.4627 25.2684 12.7681L26.0994 13.9972L25.2731 15.2237C24.7313 16.0281 24.3559 16.5131 24.1826 16.6325C23.8713 16.8471 23.4331 16.959 22.8943 16.9614L22.5054 16.9631L21.0243 15.4805L19.5432 13.9979L21.0243 12.5154L22.5054 11.0328L22.8943 11.0345C23.1081 11.0355 23.4261 11.0689 23.6008 11.1088ZM10.0478 16.2727V16.9631H8.4781H6.90829L8.03551 15.8341L9.16273 14.705L9.60532 15.1437L10.0478 15.5823V16.2727ZM19.9655 15.8335L21.0933 16.9631H19.5235H17.9537V16.2766V15.5902L18.3929 15.1471C18.6344 14.9034 18.8333 14.7039 18.8349 14.7039C18.8364 14.7039 19.3452 15.2122 19.9655 15.8335ZM10.0478 20.0188V22.0862L9.67725 22.447C8.94384 23.1608 8.7733 23.1867 6.98798 22.8554C6.20558 22.7102 5.52963 22.5561 5.48579 22.5129C5.35902 22.3882 4.87732 19.6558 4.93132 19.3681C5.00212 18.9904 5.15833 18.7276 5.55292 18.3221L5.91363 17.9514H7.98073H10.0478V20.0188ZM12.8552 18.394L13.2938 18.8367L12.1649 19.9641L11.0361 21.0914V19.5214V17.9514H11.7264H12.4166L12.8552 18.394ZM16.9655 19.5214V21.0914L15.8366 19.9641L14.7077 18.8367L15.1464 18.394L15.5849 17.9514H16.2752H16.9655V19.5214ZM22.4486 18.3221C22.8432 18.7276 22.9994 18.9904 23.0702 19.3681C23.1242 19.6555 22.6428 22.3872 22.5158 22.5141C22.3889 22.6411 19.6575 23.1226 19.3701 23.0687C18.9926 22.9979 18.7298 22.8416 18.3243 22.447L17.9537 22.0862V20.0188V17.9514H20.0208H22.0879L22.4486 18.3221ZM15.5001 21.0395L16.9655 22.5038L16.9638 22.8927C16.9614 23.4295 16.8497 23.8696 16.638 24.1769C16.5237 24.3427 16.0201 24.7351 15.2477 25.2602L14.0364 26.0835L13.8245 25.9677C13.2817 25.6709 11.5165 24.3856 11.3604 24.1735C11.1601 23.9015 11.0361 23.4041 11.0361 22.8728V22.5062L12.5001 21.0407C13.3054 20.2347 13.9801 19.5752 13.9995 19.5752C14.0189 19.5752 14.6942 20.2341 15.5001 21.0395Z" fill="black"/>
<path fill-rule="evenodd" clip-rule="evenodd" d="M12.4831 1.71717C11.7267 2.23246 10.9832 2.79873 10.7778 3.01589C10.4124 3.40235 10.1184 4.003 10.1184 4.36326V4.53651L9.78003 4.32824C9.43217 4.11419 8.7536 3.9024 8.41556 3.9024C8.2033 3.9024 5.00283 4.49987 4.80469 4.57647C4.73565 4.60315 4.64763 4.68399 4.60902 4.75614C4.526 4.91131 3.90666 8.13483 3.90666 8.41193C3.90666 8.75652 4.12139 9.43835 4.33196 9.76205L4.53857 10.0797L4.25932 10.1287C3.81913 10.206 3.38029 10.4298 3.02311 10.759C2.62415 11.1269 0.800781 13.7842 0.800781 13.9979C0.800781 14.2116 2.62415 16.869 3.02311 17.2368C3.38029 17.566 3.81913 17.7898 4.25932 17.8671L4.53857 17.9161L4.33196 18.2338C4.12139 18.5575 3.90666 19.2394 3.90666 19.584C3.90666 19.861 4.526 23.0846 4.60902 23.2397C4.64763 23.3119 4.73565 23.3925 4.80455 23.419C4.9244 23.465 7.5061 23.9629 8.1169 24.0579C8.51353 24.1195 9.15455 23.9918 9.62346 23.7575C9.8365 23.651 10.035 23.5534 10.0646 23.5405C10.0942 23.5275 10.1184 23.5819 10.1184 23.6614C10.1184 23.9634 10.4208 24.5947 10.7305 24.9391C11.1095 25.3607 13.771 27.1998 14.0022 27.1998C14.2351 27.1998 16.7265 25.4883 17.1876 25.0115C17.5745 24.6116 17.8831 24.0149 17.8831 23.6672C17.8831 23.4898 17.887 23.4904 18.3254 23.7342C18.7792 23.9867 19.415 24.1225 19.8504 24.0602C20.4924 23.9682 22.8638 23.5209 23.0896 23.4492C23.216 23.409 23.3532 23.3132 23.3945 23.2361C23.4798 23.0767 24.0949 19.8659 24.0949 19.5801C24.0949 19.2389 23.8792 18.556 23.6696 18.2338L23.463 17.9161L23.7422 17.8671C24.1824 17.7898 24.6213 17.566 24.9785 17.2368C25.3774 16.869 27.2008 14.2116 27.2008 13.9979C27.2008 13.7842 25.3774 11.1269 24.9785 10.759C24.6213 10.4298 24.1824 10.206 23.7422 10.1287L23.463 10.0797L23.6696 9.76205C23.8802 9.43835 24.0949 8.75652 24.0949 8.41193C24.0949 8.13208 23.4751 4.91054 23.3911 4.75353C23.3517 4.67989 23.216 4.58713 23.0896 4.54731C22.7636 4.4448 19.8181 3.9024 19.5871 3.9024C19.2415 3.9024 18.5601 4.11694 18.2361 4.32775L17.9184 4.53439L17.8694 4.2551C17.7921 3.81485 17.5684 3.37594 17.2392 3.01872C16.8497 2.59605 14.2109 0.794732 13.9886 0.799815C13.8982 0.801863 13.2208 1.21465 12.4831 1.71717ZM15.2474 2.73752C15.9059 3.18731 16.5207 3.66264 16.6257 3.80313C16.8395 4.08899 16.9655 4.57901 16.9655 5.12431V5.49213L15.4831 6.97342L14.0008 8.45471L12.5184 6.97342L11.0361 5.49213L11.0378 5.1032C11.0402 4.56468 11.152 4.12605 11.366 3.81549C11.484 3.64422 11.9688 3.26779 12.7524 2.73887C13.415 2.29163 13.98 1.92565 14.0079 1.92565C14.0358 1.92565 14.5936 2.29099 15.2474 2.73752ZM9.07344 5.07101C9.2017 5.13546 9.47346 5.35051 9.67725 5.54889L10.0478 5.90964V7.97704V10.0444H7.98073H5.91363L5.55292 9.6738C4.84337 8.94459 4.81457 8.75941 5.13751 7.00554C5.27657 6.25014 5.41704 5.58489 5.44958 5.52728C5.53019 5.38475 8.05746 4.88788 8.50873 4.92593C8.69106 4.94125 8.94518 5.00655 9.07344 5.07101ZM21.053 5.14641C21.8137 5.28697 22.4719 5.43784 22.5158 5.48175C22.6428 5.60868 23.1242 8.34041 23.0702 8.62782C22.9994 9.00545 22.8432 9.26828 22.4486 9.6738L22.0879 10.0444H20.0208H17.9537V7.97704V5.90964L18.3243 5.54945C18.781 5.1056 19.1349 4.91491 19.5353 4.89684C19.6094 4.89352 20.2923 5.00577 21.053 5.14641ZM12.8552 9.60186L12.4166 10.0444H11.7264H11.0361V8.47448V6.90444L12.1649 8.03183L13.2938 9.15921L12.8552 9.60186ZM16.9655 8.49128V10.0444H16.2792H15.5928L15.1491 9.60461L14.7054 9.16479L15.8169 8.05145C16.4283 7.43915 16.9368 6.93812 16.947 6.93812C16.9572 6.93812 16.9655 7.63704 16.9655 8.49128ZM14.5829 10.4504L15.1329 10.9975L16.0315 11.0328L16.9302 11.0681L16.9655 11.9669L17.0008 12.8656L17.5639 13.4318L18.1269 13.9979L17.5639 14.5641L17.0008 15.1303L16.9655 16.029L16.9302 16.9278L16.0315 16.9631L15.1329 16.9984L14.5668 17.5615L14.0008 18.1246L13.4347 17.5615L12.8686 16.9984L11.97 16.9631L11.0714 16.9278L11.0361 16.029L11.0008 15.1303L10.4377 14.5641L9.87469 13.9979L10.4377 13.4318L11.0008 12.8656L11.0361 11.9669L11.0714 11.0681L11.9711 11.0328L12.8708 10.9975L13.4176 10.4504C13.7183 10.1495 13.9798 9.90324 13.9987 9.90324C14.0175 9.90324 14.2805 10.1495 14.5829 10.4504ZM6.97725 12.5154L8.45833 13.9979L6.97725 15.4805L5.49617 16.9631L5.1073 16.9614C4.56942 16.959 4.13036 16.8472 3.8209 16.6339C3.65304 16.5182 3.27222 16.0308 2.76208 15.2788C2.32393 14.6329 1.95617 14.0695 1.94473 14.0267C1.91269 13.9067 3.52153 11.591 3.77466 11.3929C4.05695 11.172 4.52523 11.0437 5.072 11.0375L5.49617 11.0328L6.97725 12.5154ZM10.0478 11.7232V12.4136L9.60532 12.8522L9.16273 13.2909L8.03551 12.1618L6.90829 11.0328H8.4781H10.0478V11.7232ZM19.9661 12.1618L18.8388 13.2909L18.3962 12.8522L17.9537 12.4136V11.7232V11.0328H19.5235H21.0933L19.9661 12.1618ZM23.6008 11.1088C24.1579 11.2359 24.3859 11.4627 25.2684 12.7681L26.0994 13.9972L25.2731 15.2237C24.7313 16.0281 24.3559 16.5131 24.1826 16.6325C23.8713 16.8471 23.4331 16.959 22.8943 16.9614L22.5054 16.9631L21.0243 15.4805L19.5432 13.9979L21.0243 12.5154L22.5054 11.0328L22.8943 11.0345C23.1081 11.0355 23.4261 11.0689 23.6008 11.1088ZM10.0478 16.2727V16.9631H8.4781H6.90829L8.03551 15.8341L9.16273 14.705L9.60532 15.1437L10.0478 15.5823V16.2727ZM19.9655 15.8335L21.0933 16.9631H19.5235H17.9537V16.2766V15.5902L18.3929 15.1471C18.6344 14.9034 18.8333 14.7039 18.8349 14.7039C18.8364 14.7039 19.3452 15.2122 19.9655 15.8335ZM10.0478 20.0188V22.0862L9.67725 22.447C8.94384 23.1608 8.7733 23.1867 6.98798 22.8554C6.20558 22.7102 5.52963 22.5561 5.48579 22.5129C5.35902 22.3882 4.87732 19.6558 4.93132 19.3681C5.00212 18.9904 5.15833 18.7276 5.55292 18.3221L5.91363 17.9514H7.98073H10.0478V20.0188ZM12.8552 18.394L13.2938 18.8367L12.1649 19.9641L11.0361 21.0914V19.5214V17.9514H11.7264H12.4166L12.8552 18.394ZM16.9655 19.5214V21.0914L15.8366 19.9641L14.7077 18.8367L15.1464 18.394L15.5849 17.9514H16.2752H16.9655V19.5214ZM22.4486 18.3221C22.8432 18.7276 22.9994 18.9904 23.0702 19.3681C23.1242 19.6555 22.6428 22.3872 22.5158 22.5141C22.3889 22.6411 19.6575 23.1226 19.3701 23.0687C18.9926 22.9979 18.7298 22.8416 18.3243 22.447L17.9537 22.0862V20.0188V17.9514H20.0208H22.0879L22.4486 18.3221ZM15.5001 21.0395L16.9655 22.5038L16.9638 22.8927C16.9614 23.4295 16.8497 23.8696 16.638 24.1769C16.5237 24.3427 16.0201 24.7351 15.2477 25.2602L14.0364 26.0835L13.8245 25.9677C13.2817 25.6709 11.5165 24.3856 11.3604 24.1735C11.1601 23.9015 11.0361 23.4041 11.0361 22.8728V22.5062L12.5001 21.0407C13.3054 20.2347 13.9801 19.5752 13.9995 19.5752C14.0189 19.5752 14.6942 20.2341 15.5001 21.0395Z" fill="url(#paint0_linear_79_82421)"/>
<path fill-rule="evenodd" clip-rule="evenodd" d="M12.4831 1.71717C11.7267 2.23246 10.9832 2.79873 10.7778 3.01589C10.4124 3.40235 10.1184 4.003 10.1184 4.36326V4.53651L9.78003 4.32824C9.43217 4.11419 8.7536 3.9024 8.41556 3.9024C8.2033 3.9024 5.00283 4.49987 4.80469 4.57647C4.73565 4.60315 4.64763 4.68399 4.60902 4.75614C4.526 4.91131 3.90666 8.13483 3.90666 8.41193C3.90666 8.75652 4.12139 9.43835 4.33196 9.76205L4.53857 10.0797L4.25932 10.1287C3.81913 10.206 3.38029 10.4298 3.02311 10.759C2.62415 11.1269 0.800781 13.7842 0.800781 13.9979C0.800781 14.2116 2.62415 16.869 3.02311 17.2368C3.38029 17.566 3.81913 17.7898 4.25932 17.8671L4.53857 17.9161L4.33196 18.2338C4.12139 18.5575 3.90666 19.2394 3.90666 19.584C3.90666 19.861 4.526 23.0846 4.60902 23.2397C4.64763 23.3119 4.73565 23.3925 4.80455 23.419C4.9244 23.465 7.5061 23.9629 8.1169 24.0579C8.51353 24.1195 9.15455 23.9918 9.62346 23.7575C9.8365 23.651 10.035 23.5534 10.0646 23.5405C10.0942 23.5275 10.1184 23.5819 10.1184 23.6614C10.1184 23.9634 10.4208 24.5947 10.7305 24.9391C11.1095 25.3607 13.771 27.1998 14.0022 27.1998C14.2351 27.1998 16.7265 25.4883 17.1876 25.0115C17.5745 24.6116 17.8831 24.0149 17.8831 23.6672C17.8831 23.4898 17.887 23.4904 18.3254 23.7342C18.7792 23.9867 19.415 24.1225 19.8504 24.0602C20.4924 23.9682 22.8638 23.5209 23.0896 23.4492C23.216 23.409 23.3532 23.3132 23.3945 23.2361C23.4798 23.0767 24.0949 19.8659 24.0949 19.5801C24.0949 19.2389 23.8792 18.556 23.6696 18.2338L23.463 17.9161L23.7422 17.8671C24.1824 17.7898 24.6213 17.566 24.9785 17.2368C25.3774 16.869 27.2008 14.2116 27.2008 13.9979C27.2008 13.7842 25.3774 11.1269 24.9785 10.759C24.6213 10.4298 24.1824 10.206 23.7422 10.1287L23.463 10.0797L23.6696 9.76205C23.8802 9.43835 24.0949 8.75652 24.0949 8.41193C24.0949 8.13208 23.4751 4.91054 23.3911 4.75353C23.3517 4.67989 23.216 4.58713 23.0896 4.54731C22.7636 4.4448 19.8181 3.9024 19.5871 3.9024C19.2415 3.9024 18.5601 4.11694 18.2361 4.32775L17.9184 4.53439L17.8694 4.2551C17.7921 3.81485 17.5684 3.37594 17.2392 3.01872C16.8497 2.59605 14.2109 0.794732 13.9886 0.799815C13.8982 0.801863 13.2208 1.21465 12.4831 1.71717ZM15.2474 2.73752C15.9059 3.18731 16.5207 3.66264 16.6257 3.80313C16.8395 4.08899 16.9655 4.57901 16.9655 5.12431V5.49213L15.4831 6.97342L14.0008 8.45471L12.5184 6.97342L11.0361 5.49213L11.0378 5.1032C11.0402 4.56468 11.152 4.12605 11.366 3.81549C11.484 3.64422 11.9688 3.26779 12.7524 2.73887C13.415 2.29163 13.98 1.92565 14.0079 1.92565C14.0358 1.92565 14.5936 2.29099 15.2474 2.73752ZM9.07344 5.07101C9.2017 5.13546 9.47346 5.35051 9.67725 5.54889L10.0478 5.90964V7.97704V10.0444H7.98073H5.91363L5.55292 9.6738C4.84337 8.94459 4.81457 8.75941 5.13751 7.00554C5.27657 6.25014 5.41704 5.58489 5.44958 5.52728C5.53019 5.38475 8.05746 4.88788 8.50873 4.92593C8.69106 4.94125 8.94518 5.00655 9.07344 5.07101ZM21.053 5.14641C21.8137 5.28697 22.4719 5.43784 22.5158 5.48175C22.6428 5.60868 23.1242 8.34041 23.0702 8.62782C22.9994 9.00545 22.8432 9.26828 22.4486 9.6738L22.0879 10.0444H20.0208H17.9537V7.97704V5.90964L18.3243 5.54945C18.781 5.1056 19.1349 4.91491 19.5353 4.89684C19.6094 4.89352 20.2923 5.00577 21.053 5.14641ZM12.8552 9.60186L12.4166 10.0444H11.7264H11.0361V8.47448V6.90444L12.1649 8.03183L13.2938 9.15921L12.8552 9.60186ZM16.9655 8.49128V10.0444H16.2792H15.5928L15.1491 9.60461L14.7054 9.16479L15.8169 8.05145C16.4283 7.43915 16.9368 6.93812 16.947 6.93812C16.9572 6.93812 16.9655 7.63704 16.9655 8.49128ZM14.5829 10.4504L15.1329 10.9975L16.0315 11.0328L16.9302 11.0681L16.9655 11.9669L17.0008 12.8656L17.5639 13.4318L18.1269 13.9979L17.5639 14.5641L17.0008 15.1303L16.9655 16.029L16.9302 16.9278L16.0315 16.9631L15.1329 16.9984L14.5668 17.5615L14.0008 18.1246L13.4347 17.5615L12.8686 16.9984L11.97 16.9631L11.0714 16.9278L11.0361 16.029L11.0008 15.1303L10.4377 14.5641L9.87469 13.9979L10.4377 13.4318L11.0008 12.8656L11.0361 11.9669L11.0714 11.0681L11.9711 11.0328L12.8708 10.9975L13.4176 10.4504C13.7183 10.1495 13.9798 9.90324 13.9987 9.90324C14.0175 9.90324 14.2805 10.1495 14.5829 10.4504ZM6.97725 12.5154L8.45833 13.9979L6.97725 15.4805L5.49617 16.9631L5.1073 16.9614C4.56942 16.959 4.13036 16.8472 3.8209 16.6339C3.65304 16.5182 3.27222 16.0308 2.76208 15.2788C2.32393 14.6329 1.95617 14.0695 1.94473 14.0267C1.91269 13.9067 3.52153 11.591 3.77466 11.3929C4.05695 11.172 4.52523 11.0437 5.072 11.0375L5.49617 11.0328L6.97725 12.5154ZM10.0478 11.7232V12.4136L9.60532 12.8522L9.16273 13.2909L8.03551 12.1618L6.90829 11.0328H8.4781H10.0478V11.7232ZM19.9661 12.1618L18.8388 13.2909L18.3962 12.8522L17.9537 12.4136V11.7232V11.0328H19.5235H21.0933L19.9661 12.1618ZM23.6008 11.1088C24.1579 11.2359 24.3859 11.4627 25.2684 12.7681L26.0994 13.9972L25.2731 15.2237C24.7313 16.0281 24.3559 16.5131 24.1826 16.6325C23.8713 16.8471 23.4331 16.959 22.8943 16.9614L22.5054 16.9631L21.0243 15.4805L19.5432 13.9979L21.0243 12.5154L22.5054 11.0328L22.8943 11.0345C23.1081 11.0355 23.4261 11.0689 23.6008 11.1088ZM10.0478 16.2727V16.9631H8.4781H6.90829L8.03551 15.8341L9.16273 14.705L9.60532 15.1437L10.0478 15.5823V16.2727ZM19.9655 15.8335L21.0933 16.9631H19.5235H17.9537V16.2766V15.5902L18.3929 15.1471C18.6344 14.9034 18.8333 14.7039 18.8349 14.7039C18.8364 14.7039 19.3452 15.2122 19.9655 15.8335ZM10.0478 20.0188V22.0862L9.67725 22.447C8.94384 23.1608 8.7733 23.1867 6.98798 22.8554C6.20558 22.7102 5.52963 22.5561 5.48579 22.5129C5.35902 22.3882 4.87732 19.6558 4.93132 19.3681C5.00212 18.9904 5.15833 18.7276 5.55292 18.3221L5.91363 17.9514H7.98073H10.0478V20.0188ZM12.8552 18.394L13.2938 18.8367L12.1649 19.9641L11.0361 21.0914V19.5214V17.9514H11.7264H12.4166L12.8552 18.394ZM16.9655 19.5214V21.0914L15.8366 19.9641L14.7077 18.8367L15.1464 18.394L15.5849 17.9514H16.2752H16.9655V19.5214ZM22.4486 18.3221C22.8432 18.7276 22.9994 18.9904 23.0702 19.3681C23.1242 19.6555 22.6428 22.3872 22.5158 22.5141C22.3889 22.6411 19.6575 23.1226 19.3701 23.0687C18.9926 22.9979 18.7298 22.8416 18.3243 22.447L17.9537 22.0862V20.0188V17.9514H20.0208H22.0879L22.4486 18.3221ZM15.5001 21.0395L16.9655 22.5038L16.9638 22.8927C16.9614 23.4295 16.8497 23.8696 16.638 24.1769C16.5237 24.3427 16.0201 24.7351 15.2477 25.2602L14.0364 26.0835L13.8245 25.9677C13.2817 25.6709 11.5165 24.3856 11.3604 24.1735C11.1601 23.9015 11.0361 23.4041 11.0361 22.8728V22.5062L12.5001 21.0407C13.3054 20.2347 13.9801 19.5752 13.9995 19.5752C14.0189 19.5752 14.6942 20.2341 15.5001 21.0395Z" stroke="url(#paint1_linear_79_82421)" stroke-width="0.4" mask="url(#path-1-outside-1_79_82421)"/>
</g>
<defs>
<linearGradient id="paint0_linear_79_82421" x1="31.2623" y1="35.9998" x2="23.6889" y2="-15.0734" gradientUnits="userSpaceOnUse">
<stop stop-color="#B5DEF9"/>
<stop offset="0.357634" stop-color="#8F8DE2"/>
<stop offset="0.664938" stop-color="#D19CBE"/>
<stop offset="0.993076" stop-color="#F8F1E9"/>
</linearGradient>
<linearGradient id="paint1_linear_79_82421" x1="31.2623" y1="35.9998" x2="23.6889" y2="-15.0734" gradientUnits="userSpaceOnUse">
<stop stop-color="#B5DEF9"/>
<stop offset="0.357634" stop-color="#8F8DE2"/>
<stop offset="0.664938" stop-color="#D19CBE"/>
<stop offset="0.993076" stop-color="#F8F1E9"/>
</linearGradient>
<clipPath id="clip0_79_82421">
<rect width="26.4" height="26.4" fill="white" transform="translate(0.800781 0.799805)"/>
</clipPath>
</defs>
</svg>
