<?xml version="1.0"?>
<svg width="28" height="28" xmlns="http://www.w3.org/2000/svg" xmlns:svg="http://www.w3.org/2000/svg">
 <defs>
  <linearGradient id="paint1_linear_79_82421" x1="1.15" x2="0.87" y1="1.33" y2="-0.6">
   <stop stop-color="#B5DEF9"/>
   <stop offset="0.36" stop-color="#8F8DE2"/>
   <stop offset="0.66" stop-color="#D19CBE"/>
   <stop offset="0.99" stop-color="#F8F1E9"/>
  </linearGradient>
  <clipPath id="clip0_79_82421">
   <rect fill="white" height="26.4" id="svg_1" transform="translate(0.800781 0.799805)" width="26.4"/>
  </clipPath>
 </defs>
 <g class="layer">
  <title>Layer 1</title>
  <g clip-path="url(#clip0_79_82421)" id="svg_2">
   <mask fill="#000000" height="28" id="path-1-outside-1_79_82421" maskUnits="userSpaceOnUse" width="28" x="-0.2" y="-0.2">
    <rect fill="#000000" height="28" id="svg_3" width="28" x="-0.2" y="-0.2"/>
    <path clip-rule="evenodd" d="m12.48,1.72c-0.75,0.51 -1.5,1.08 -1.7,1.3c-0.37,0.38 -0.66,0.98 -0.66,1.34l0,0.18l-0.34,-0.21c-0.35,-0.22 -1.03,-0.43 -1.36,-0.43c-0.22,0 -3.42,0.6 -3.62,0.68c-0.06,0.02 -0.15,0.1 -0.19,0.18c-0.08,0.15 -0.7,3.37 -0.7,3.65c0,0.35 0.21,1.03 0.42,1.35l0.21,0.32l-0.28,0.05c-0.44,0.08 -0.88,0.3 -1.24,0.63c-0.4,0.37 -2.22,3.02 -2.22,3.24c0,0.21 1.82,2.87 2.22,3.24c0.36,0.33 0.8,0.55 1.24,0.63l0.28,0.05l-0.21,0.31c-0.21,0.33 -0.42,1.01 -0.42,1.35c0,0.28 0.62,3.5 0.7,3.66c0.04,0.07 0.13,0.15 0.19,0.18c0.12,0.04 2.71,0.54 3.32,0.64c0.39,0.06 1.03,-0.07 1.5,-0.3c0.22,-0.11 0.42,-0.21 0.44,-0.22c0.03,-0.01 0.06,0.04 0.06,0.12c0,0.3 0.3,0.93 0.61,1.28c0.38,0.42 3.04,2.26 3.27,2.26c0.24,0 2.73,-1.71 3.19,-2.19c0.38,-0.4 0.69,-1 0.69,-1.34c0,-0.18 0.01,-0.18 0.45,0.06c0.45,0.26 1.08,0.39 1.52,0.33c0.64,-0.09 3.01,-0.54 3.24,-0.61c0.13,-0.04 0.26,-0.14 0.3,-0.21c0.09,-0.16 0.7,-3.37 0.7,-3.66c0,-0.34 -0.21,-1.02 -0.42,-1.35l-0.21,-0.31l0.28,-0.05c0.44,-0.08 0.88,-0.3 1.24,-0.63c0.4,-0.37 2.22,-3.03 2.22,-3.24c0,-0.22 -1.82,-2.87 -2.22,-3.24c-0.36,-0.33 -0.8,-0.55 -1.24,-0.63l-0.28,-0.05l0.21,-0.32c0.21,-0.32 0.42,-1 0.42,-1.35c0,-0.28 -0.61,-3.5 -0.7,-3.66c-0.04,-0.07 -0.17,-0.16 -0.3,-0.2c-0.33,-0.11 -3.27,-0.65 -3.5,-0.65c-0.35,0 -1.03,0.22 -1.35,0.43l-0.32,0.2l-0.05,-0.27c-0.08,-0.45 -0.3,-0.88 -0.63,-1.24c-0.39,-0.42 -3.03,-2.23 -3.25,-2.22c-0.09,0 -0.77,0.41 -1.51,0.92zm2.77,1.02c0.66,0.45 1.27,0.92 1.38,1.06c0.21,0.29 0.34,0.78 0.34,1.32l0,0.37l-1.49,1.48l-1.48,1.48l-1.48,-1.48l-1.48,-1.48l0,-0.39c0,-0.54 0.11,-0.97 0.33,-1.28c0.11,-0.18 0.6,-0.55 1.38,-1.08c0.66,-0.45 1.23,-0.81 1.26,-0.81c0.03,0 0.58,0.36 1.24,0.81zm-6.18,2.33c0.13,0.07 0.4,0.28 0.61,0.48l0.37,0.36l0,2.07l0,2.06l-2.07,0l-2.07,0l-0.36,-0.37c-0.71,-0.73 -0.74,-0.91 -0.41,-2.66c0.14,-0.76 0.28,-1.43 0.31,-1.48c0.08,-0.15 2.61,-0.64 3.06,-0.6c0.18,0.01 0.44,0.08 0.56,0.14zm11.98,0.08c0.76,0.14 1.42,0.29 1.47,0.33c0.12,0.13 0.6,2.86 0.55,3.15c-0.07,0.38 -0.23,0.64 -0.62,1.04l-0.36,0.37l-2.07,0l-2.07,0l0,-2.06l0,-2.07l0.37,-0.36c0.46,-0.44 0.81,-0.64 1.22,-0.65c0.07,-0.01 0.75,0.11 1.51,0.25zm-8.19,4.45l-0.44,0.44l-0.69,0l-0.69,0l0,-1.57l0,-1.57l1.12,1.13l1.13,1.13l-0.43,0.44zm4.11,-1.11l0,1.55l-0.69,0l-0.69,0l-0.44,-0.44l-0.44,-0.44l1.11,-1.11c0.61,-0.61 1.12,-1.11 1.13,-1.11c0.01,0 0.02,0.7 0.02,1.55zm-2.39,1.96l0.55,0.55l0.9,0.03l0.9,0.04l0.04,0.9l0.03,0.9l0.56,0.56l0.57,0.57l-0.57,0.56l-0.56,0.57l-0.03,0.9l-0.04,0.9l-0.9,0.03l-0.9,0.04l-0.56,0.56l-0.57,0.56l-0.57,-0.56l-0.56,-0.56l-0.9,-0.04l-0.9,-0.03l-0.03,-0.9l-0.04,-0.9l-0.56,-0.57l-0.57,-0.56l0.57,-0.57l0.56,-0.56l0.04,-0.9l0.03,-0.9l0.9,-0.04l0.9,-0.03l0.55,-0.55c0.3,-0.3 0.56,-0.55 0.58,-0.55c0.02,0 0.28,0.25 0.58,0.55zm-7.6,2.07l1.48,1.48l-1.48,1.48l-1.48,1.48l-0.39,0c-0.54,0 -0.98,-0.11 -1.29,-0.33c-0.17,-0.11 -0.55,-0.6 -1.06,-1.35c-0.44,-0.65 -0.8,-1.21 -0.82,-1.25c-0.03,-0.12 1.58,-2.44 1.83,-2.64c0.29,-0.22 0.76,-0.35 1.3,-0.35l0.43,-0.01l1.48,1.49zm3.07,-0.8l0,0.69l-0.44,0.44l-0.45,0.44l-1.12,-1.13l-1.13,-1.13l1.57,0l1.57,0l0,0.69zm9.92,0.44l-1.13,1.13l-0.44,-0.44l-0.45,-0.44l0,-0.69l0,-0.69l1.57,0l1.57,0l-1.12,1.13zm3.63,-1.05c0.56,0.13 0.79,0.35 1.67,1.66l0.83,1.23l-0.83,1.22c-0.54,0.81 -0.91,1.29 -1.09,1.41c-0.31,0.22 -0.75,0.33 -1.29,0.33l-0.38,0l-1.49,-1.48l-1.48,-1.48l1.48,-1.48l1.49,-1.49l0.38,0c0.22,0.01 0.54,0.04 0.71,0.08zm-13.55,5.16l0,0.69l-1.57,0l-1.57,0l1.13,-1.13l1.12,-1.12l0.45,0.43l0.44,0.44l0,0.69zm9.92,-0.44l1.12,1.13l-1.57,0l-1.57,0l0,-0.68l0,-0.69l0.44,-0.44c0.24,-0.25 0.44,-0.45 0.44,-0.45c0.01,0 0.52,0.51 1.14,1.13zm-9.92,4.19l0,2.07l-0.37,0.36c-0.74,0.71 -0.91,0.74 -2.69,0.41c-0.78,-0.15 -1.46,-0.3 -1.5,-0.35c-0.13,-0.12 -0.61,-2.85 -0.56,-3.14c0.07,-0.38 0.23,-0.64 0.62,-1.05l0.36,-0.37l2.07,0l2.07,0l0,2.07zm2.81,-1.63l0.43,0.45l-1.13,1.12l-1.12,1.13l0,-1.57l0,-1.57l0.69,0l0.69,0l0.44,0.44zm4.11,1.13l0,1.57l-1.13,-1.13l-1.13,-1.12l0.44,-0.45l0.43,-0.44l0.7,0l0.69,0l0,1.57zm5.48,-1.2c0.39,0.41 0.55,0.67 0.62,1.05c0.05,0.29 -0.43,3.02 -0.55,3.14c-0.13,0.13 -2.86,0.61 -3.15,0.56c-0.38,-0.07 -0.64,-0.23 -1.05,-0.62l-0.37,-0.36l0,-2.07l0,-2.07l2.07,0l2.07,0l0.36,0.37zm-6.95,2.72l1.47,1.46l-0.01,0.39c0,0.54 -0.11,0.98 -0.32,1.29c-0.12,0.16 -0.62,0.56 -1.39,1.08l-1.21,0.82l-0.22,-0.11c-0.54,-0.3 -2.3,-1.58 -2.46,-1.8c-0.2,-0.27 -0.32,-0.77 -0.32,-1.3l0,-0.36l1.46,-1.47c0.81,-0.81 1.48,-1.46 1.5,-1.46c0.02,0 0.69,0.65 1.5,1.46z" fill="#000000" fill-rule="evenodd" id="svg_4"/>
   </mask>
   <path clip-rule="evenodd" d="m12.48,1.72c-0.75,0.51 -1.5,1.08 -1.7,1.3c-0.37,0.38 -0.66,0.98 -0.66,1.34l0,0.18l-0.34,-0.21c-0.35,-0.22 -1.03,-0.43 -1.36,-0.43c-0.22,0 -3.42,0.6 -3.62,0.68c-0.06,0.02 -0.15,0.1 -0.19,0.18c-0.08,0.15 -0.7,3.37 -0.7,3.65c0,0.35 0.21,1.03 0.42,1.35l0.21,0.32l-0.28,0.05c-0.44,0.08 -0.88,0.3 -1.24,0.63c-0.4,0.37 -2.22,3.02 -2.22,3.24c0,0.21 1.82,2.87 2.22,3.24c0.36,0.33 0.8,0.55 1.24,0.63l0.28,0.05l-0.21,0.31c-0.21,0.33 -0.42,1.01 -0.42,1.35c0,0.28 0.62,3.5 0.7,3.66c0.04,0.07 0.13,0.15 0.19,0.18c0.12,0.04 2.71,0.54 3.32,0.64c0.39,0.06 1.03,-0.07 1.5,-0.3c0.22,-0.11 0.42,-0.21 0.44,-0.22c0.03,-0.01 0.06,0.04 0.06,0.12c0,0.3 0.3,0.93 0.61,1.28c0.38,0.42 3.04,2.26 3.27,2.26c0.24,0 2.73,-1.71 3.19,-2.19c0.38,-0.4 0.69,-1 0.69,-1.34c0,-0.18 0.01,-0.18 0.45,0.06c0.45,0.26 1.08,0.39 1.52,0.33c0.64,-0.09 3.01,-0.54 3.24,-0.61c0.13,-0.04 0.26,-0.14 0.3,-0.21c0.09,-0.16 0.7,-3.37 0.7,-3.66c0,-0.34 -0.21,-1.02 -0.42,-1.35l-0.21,-0.31l0.28,-0.05c0.44,-0.08 0.88,-0.3 1.24,-0.63c0.4,-0.37 2.22,-3.03 2.22,-3.24c0,-0.22 -1.82,-2.87 -2.22,-3.24c-0.36,-0.33 -0.8,-0.55 -1.24,-0.63l-0.28,-0.05l0.21,-0.32c0.21,-0.32 0.42,-1 0.42,-1.35c0,-0.28 -0.61,-3.5 -0.7,-3.66c-0.04,-0.07 -0.17,-0.16 -0.3,-0.2c-0.33,-0.11 -3.27,-0.65 -3.5,-0.65c-0.35,0 -1.03,0.22 -1.35,0.43l-0.32,0.2l-0.05,-0.27c-0.08,-0.45 -0.3,-0.88 -0.63,-1.24c-0.39,-0.42 -3.03,-2.23 -3.25,-2.22c-0.09,0 -0.77,0.41 -1.51,0.92zm2.77,1.02c0.66,0.45 1.27,0.92 1.38,1.06c0.21,0.29 0.34,0.78 0.34,1.32l0,0.37l-1.49,1.48l-1.48,1.48l-1.48,-1.48l-1.48,-1.48l0,-0.39c0,-0.54 0.11,-0.97 0.33,-1.28c0.11,-0.18 0.6,-0.55 1.38,-1.08c0.66,-0.45 1.23,-0.81 1.26,-0.81c0.03,0 0.58,0.36 1.24,0.81zm-6.18,2.33c0.13,0.07 0.4,0.28 0.61,0.48l0.37,0.36l0,2.07l0,2.06l-2.07,0l-2.07,0l-0.36,-0.37c-0.71,-0.73 -0.74,-0.91 -0.41,-2.66c0.14,-0.76 0.28,-1.43 0.31,-1.48c0.08,-0.15 2.61,-0.64 3.06,-0.6c0.18,0.01 0.44,0.08 0.56,0.14zm11.98,0.08c0.76,0.14 1.42,0.29 1.47,0.33c0.12,0.13 0.6,2.86 0.55,3.15c-0.07,0.38 -0.23,0.64 -0.62,1.04l-0.36,0.37l-2.07,0l-2.07,0l0,-2.06l0,-2.07l0.37,-0.36c0.46,-0.44 0.81,-0.64 1.22,-0.65c0.07,-0.01 0.75,0.11 1.51,0.25zm-8.19,4.45l-0.44,0.44l-0.69,0l-0.69,0l0,-1.57l0,-1.57l1.12,1.13l1.13,1.13l-0.43,0.44zm4.11,-1.11l0,1.55l-0.69,0l-0.69,0l-0.44,-0.44l-0.44,-0.44l1.11,-1.11c0.61,-0.61 1.12,-1.11 1.13,-1.11c0.01,0 0.02,0.7 0.02,1.55zm-2.39,1.96l0.55,0.55l0.9,0.03l0.9,0.04l0.04,0.9l0.03,0.9l0.56,0.56l0.57,0.57l-0.57,0.56l-0.56,0.57l-0.03,0.9l-0.04,0.9l-0.9,0.03l-0.9,0.04l-0.56,0.56l-0.57,0.56l-0.57,-0.56l-0.56,-0.56l-0.9,-0.04l-0.9,-0.03l-0.03,-0.9l-0.04,-0.9l-0.56,-0.57l-0.57,-0.56l0.57,-0.57l0.56,-0.56l0.04,-0.9l0.03,-0.9l0.9,-0.04l0.9,-0.03l0.55,-0.55c0.3,-0.3 0.56,-0.55 0.58,-0.55c0.02,0 0.28,0.25 0.58,0.55zm-7.6,2.07l1.48,1.48l-1.48,1.48l-1.48,1.48l-0.39,0c-0.54,0 -0.98,-0.11 -1.29,-0.33c-0.17,-0.11 -0.55,-0.6 -1.06,-1.35c-0.44,-0.65 -0.8,-1.21 -0.82,-1.25c-0.03,-0.12 1.58,-2.44 1.83,-2.64c0.29,-0.22 0.76,-0.35 1.3,-0.35l0.43,-0.01l1.48,1.49zm3.07,-0.8l0,0.69l-0.44,0.44l-0.45,0.44l-1.12,-1.13l-1.13,-1.13l1.57,0l1.57,0l0,0.69zm9.92,0.44l-1.13,1.13l-0.44,-0.44l-0.45,-0.44l0,-0.69l0,-0.69l1.57,0l1.57,0l-1.12,1.13zm3.63,-1.05c0.56,0.13 0.79,0.35 1.67,1.66l0.83,1.23l-0.83,1.22c-0.54,0.81 -0.91,1.29 -1.09,1.41c-0.31,0.22 -0.75,0.33 -1.29,0.33l-0.38,0l-1.49,-1.48l-1.48,-1.48l1.48,-1.48l1.49,-1.49l0.38,0c0.22,0.01 0.54,0.04 0.71,0.08zm-13.55,5.16l0,0.69l-1.57,0l-1.57,0l1.13,-1.13l1.12,-1.12l0.45,0.43l0.44,0.44l0,0.69zm9.92,-0.44l1.12,1.13l-1.57,0l-1.57,0l0,-0.68l0,-0.69l0.44,-0.44c0.24,-0.25 0.44,-0.45 0.44,-0.45c0.01,0 0.52,0.51 1.14,1.13zm-9.92,4.19l0,2.07l-0.37,0.36c-0.74,0.71 -0.91,0.74 -2.69,0.41c-0.78,-0.15 -1.46,-0.3 -1.5,-0.35c-0.13,-0.12 -0.61,-2.85 -0.56,-3.14c0.07,-0.38 0.23,-0.64 0.62,-1.05l0.36,-0.37l2.07,0l2.07,0l0,2.07zm2.81,-1.63l0.43,0.45l-1.13,1.12l-1.12,1.13l0,-1.57l0,-1.57l0.69,0l0.69,0l0.44,0.44zm4.11,1.13l0,1.57l-1.13,-1.13l-1.13,-1.12l0.44,-0.45l0.43,-0.44l0.7,0l0.69,0l0,1.57zm5.48,-1.2c0.39,0.41 0.55,0.67 0.62,1.05c0.05,0.29 -0.43,3.02 -0.55,3.14c-0.13,0.13 -2.86,0.61 -3.15,0.56c-0.38,-0.07 -0.64,-0.23 -1.05,-0.62l-0.37,-0.36l0,-2.07l0,-2.07l2.07,0l2.07,0l0.36,0.37zm-6.95,2.72l1.47,1.46l-0.01,0.39c0,0.54 -0.11,0.98 -0.32,1.29c-0.12,0.16 -0.62,0.56 -1.39,1.08l-1.21,0.82l-0.22,-0.11c-0.54,-0.3 -2.3,-1.58 -2.46,-1.8c-0.2,-0.27 -0.32,-0.77 -0.32,-1.3l0,-0.36l1.46,-1.47c0.81,-0.81 1.48,-1.46 1.5,-1.46c0.02,0 0.69,0.65 1.5,1.46z" fill="#000000" fill-rule="evenodd" id="svg_5"/>
   <path clip-rule="evenodd" d="m12.48,1.72c-0.75,0.51 -1.5,1.08 -1.7,1.3c-0.37,0.38 -0.66,0.98 -0.66,1.34l0,0.18l-0.34,-0.21c-0.35,-0.22 -1.03,-0.43 -1.36,-0.43c-0.22,0 -3.42,0.6 -3.62,0.68c-0.06,0.02 -0.15,0.1 -0.19,0.18c-0.08,0.15 -0.7,3.37 -0.7,3.65c0,0.35 0.21,1.03 0.42,1.35l0.21,0.32l-0.28,0.05c-0.44,0.08 -0.88,0.3 -1.24,0.63c-0.4,0.37 -2.22,3.02 -2.22,3.24c0,0.21 1.82,2.87 2.22,3.24c0.36,0.33 0.8,0.55 1.24,0.63l0.28,0.05l-0.21,0.31c-0.21,0.33 -0.42,1.01 -0.42,1.35c0,0.28 0.62,3.5 0.7,3.66c0.04,0.07 0.13,0.15 0.19,0.18c0.12,0.04 2.71,0.54 3.32,0.64c0.39,0.06 1.03,-0.07 1.5,-0.3c0.22,-0.11 0.42,-0.21 0.44,-0.22c0.03,-0.01 0.06,0.04 0.06,0.12c0,0.3 0.3,0.93 0.61,1.28c0.38,0.42 3.04,2.26 3.27,2.26c0.24,0 2.73,-1.71 3.19,-2.19c0.38,-0.4 0.69,-1 0.69,-1.34c0,-0.18 0.01,-0.18 0.45,0.06c0.45,0.26 1.08,0.39 1.52,0.33c0.64,-0.09 3.01,-0.54 3.24,-0.61c0.13,-0.04 0.26,-0.14 0.3,-0.21c0.09,-0.16 0.7,-3.37 0.7,-3.66c0,-0.34 -0.21,-1.02 -0.42,-1.35l-0.21,-0.31l0.28,-0.05c0.44,-0.08 0.88,-0.3 1.24,-0.63c0.4,-0.37 2.22,-3.03 2.22,-3.24c0,-0.22 -1.82,-2.87 -2.22,-3.24c-0.36,-0.33 -0.8,-0.55 -1.24,-0.63l-0.28,-0.05l0.21,-0.32c0.21,-0.32 0.42,-1 0.42,-1.35c0,-0.28 -0.61,-3.5 -0.7,-3.66c-0.04,-0.07 -0.17,-0.16 -0.3,-0.2c-0.33,-0.11 -3.27,-0.65 -3.5,-0.65c-0.35,0 -1.03,0.22 -1.35,0.43l-0.32,0.2l-0.05,-0.27c-0.08,-0.45 -0.3,-0.88 -0.63,-1.24c-0.39,-0.42 -3.03,-2.23 -3.25,-2.22c-0.09,0 -0.77,0.41 -1.51,0.92zm2.77,1.02c0.66,0.45 1.27,0.92 1.38,1.06c0.21,0.29 0.34,0.78 0.34,1.32l0,0.37l-1.49,1.48l-1.48,1.48l-1.48,-1.48l-1.48,-1.48l0,-0.39c0,-0.54 0.11,-0.97 0.33,-1.28c0.11,-0.18 0.6,-0.55 1.38,-1.08c0.66,-0.45 1.23,-0.81 1.26,-0.81c0.03,0 0.58,0.36 1.24,0.81zm-6.18,2.33c0.13,0.07 0.4,0.28 0.61,0.48l0.37,0.36l0,2.07l0,2.06l-2.07,0l-2.07,0l-0.36,-0.37c-0.71,-0.73 -0.74,-0.91 -0.41,-2.66c0.14,-0.76 0.28,-1.43 0.31,-1.48c0.08,-0.15 2.61,-0.64 3.06,-0.6c0.18,0.01 0.44,0.08 0.56,0.14zm11.98,0.08c0.76,0.14 1.42,0.29 1.47,0.33c0.12,0.13 0.6,2.86 0.55,3.15c-0.07,0.38 -0.23,0.64 -0.62,1.04l-0.36,0.37l-2.07,0l-2.07,0l0,-2.06l0,-2.07l0.37,-0.36c0.46,-0.44 0.81,-0.64 1.22,-0.65c0.07,-0.01 0.75,0.11 1.51,0.25zm-8.19,4.45l-0.44,0.44l-0.69,0l-0.69,0l0,-1.57l0,-1.57l1.12,1.13l1.13,1.13l-0.43,0.44zm4.11,-1.11l0,1.55l-0.69,0l-0.69,0l-0.44,-0.44l-0.44,-0.44l1.11,-1.11c0.61,-0.61 1.12,-1.11 1.13,-1.11c0.01,0 0.02,0.7 0.02,1.55zm-2.39,1.96l0.55,0.55l0.9,0.03l0.9,0.04l0.04,0.9l0.03,0.9l0.56,0.56l0.57,0.57l-0.57,0.56l-0.56,0.57l-0.03,0.9l-0.04,0.9l-0.9,0.03l-0.9,0.04l-0.56,0.56l-0.57,0.56l-0.57,-0.56l-0.56,-0.56l-0.9,-0.04l-0.9,-0.03l-0.03,-0.9l-0.04,-0.9l-0.56,-0.57l-0.57,-0.56l0.57,-0.57l0.56,-0.56l0.04,-0.9l0.03,-0.9l0.9,-0.04l0.9,-0.03l0.55,-0.55c0.3,-0.3 0.56,-0.55 0.58,-0.55c0.02,0 0.28,0.25 0.58,0.55zm-7.6,2.07l1.48,1.48l-1.48,1.48l-1.48,1.48l-0.39,0c-0.54,0 -0.98,-0.11 -1.29,-0.33c-0.17,-0.11 -0.55,-0.6 -1.06,-1.35c-0.44,-0.65 -0.8,-1.21 -0.82,-1.25c-0.03,-0.12 1.58,-2.44 1.83,-2.64c0.29,-0.22 0.76,-0.35 1.3,-0.35l0.43,-0.01l1.48,1.49zm3.07,-0.8l0,0.69l-0.44,0.44l-0.45,0.44l-1.12,-1.13l-1.13,-1.13l1.57,0l1.57,0l0,0.69zm9.92,0.44l-1.13,1.13l-0.44,-0.44l-0.45,-0.44l0,-0.69l0,-0.69l1.57,0l1.57,0l-1.12,1.13zm3.63,-1.05c0.56,0.13 0.79,0.35 1.67,1.66l0.83,1.23l-0.83,1.22c-0.54,0.81 -0.91,1.29 -1.09,1.41c-0.31,0.22 -0.75,0.33 -1.29,0.33l-0.38,0l-1.49,-1.48l-1.48,-1.48l1.48,-1.48l1.49,-1.49l0.38,0c0.22,0.01 0.54,0.04 0.71,0.08zm-13.55,5.16l0,0.69l-1.57,0l-1.57,0l1.13,-1.13l1.12,-1.12l0.45,0.43l0.44,0.44l0,0.69zm9.92,-0.44l1.12,1.13l-1.57,0l-1.57,0l0,-0.68l0,-0.69l0.44,-0.44c0.24,-0.25 0.44,-0.45 0.44,-0.45c0.01,0 0.52,0.51 1.14,1.13zm-9.92,4.19l0,2.07l-0.37,0.36c-0.74,0.71 -0.91,0.74 -2.69,0.41c-0.78,-0.15 -1.46,-0.3 -1.5,-0.35c-0.13,-0.12 -0.61,-2.85 -0.56,-3.14c0.07,-0.38 0.23,-0.64 0.62,-1.05l0.36,-0.37l2.07,0l2.07,0l0,2.07zm2.81,-1.63l0.43,0.45l-1.13,1.12l-1.12,1.13l0,-1.57l0,-1.57l0.69,0l0.69,0l0.44,0.44zm4.11,1.13l0,1.57l-1.13,-1.13l-1.13,-1.12l0.44,-0.45l0.43,-0.44l0.7,0l0.69,0l0,1.57zm5.48,-1.2c0.39,0.41 0.55,0.67 0.62,1.05c0.05,0.29 -0.43,3.02 -0.55,3.14c-0.13,0.13 -2.86,0.61 -3.15,0.56c-0.38,-0.07 -0.64,-0.23 -1.05,-0.62l-0.37,-0.36l0,-2.07l0,-2.07l2.07,0l2.07,0l0.36,0.37zm-6.95,2.72l1.47,1.46l-0.01,0.39c0,0.54 -0.11,0.98 -0.32,1.29c-0.12,0.16 -0.62,0.56 -1.39,1.08l-1.21,0.82l-0.22,-0.11c-0.54,-0.3 -2.3,-1.58 -2.46,-1.8c-0.2,-0.27 -0.32,-0.77 -0.32,-1.3l0,-0.36l1.46,-1.47c0.81,-0.81 1.48,-1.46 1.5,-1.46c0.02,0 0.69,0.65 1.5,1.46z" fill="#000000" fill-rule="evenodd" id="svg_6"/>
   <path clip-rule="evenodd" d="m12.48,1.72c-0.75,0.51 -1.5,1.08 -1.7,1.3c-0.37,0.38 -0.66,0.98 -0.66,1.34l0,0.18l-0.34,-0.21c-0.35,-0.22 -1.03,-0.43 -1.36,-0.43c-0.22,0 -3.42,0.6 -3.62,0.68c-0.06,0.02 -0.15,0.1 -0.19,0.18c-0.08,0.15 -0.7,3.37 -0.7,3.65c0,0.35 0.21,1.03 0.42,1.35l0.21,0.32l-0.28,0.05c-0.44,0.08 -0.88,0.3 -1.24,0.63c-0.4,0.37 -2.22,3.02 -2.22,3.24c0,0.21 1.82,2.87 2.22,3.24c0.36,0.33 0.8,0.55 1.24,0.63l0.28,0.05l-0.21,0.31c-0.21,0.33 -0.42,1.01 -0.42,1.35c0,0.28 0.62,3.5 0.7,3.66c0.04,0.07 0.13,0.15 0.19,0.18c0.12,0.04 2.71,0.54 3.32,0.64c0.39,0.06 1.03,-0.07 1.5,-0.3c0.22,-0.11 0.42,-0.21 0.44,-0.22c0.03,-0.01 0.06,0.04 0.06,0.12c0,0.3 0.3,0.93 0.61,1.28c0.38,0.42 3.04,2.26 3.27,2.26c0.24,0 2.73,-1.71 3.19,-2.19c0.38,-0.4 0.69,-1 0.69,-1.34c0,-0.18 0.01,-0.18 0.45,0.06c0.45,0.26 1.08,0.39 1.52,0.33c0.64,-0.09 3.01,-0.54 3.24,-0.61c0.13,-0.04 0.26,-0.14 0.3,-0.21c0.09,-0.16 0.7,-3.37 0.7,-3.66c0,-0.34 -0.21,-1.02 -0.42,-1.35l-0.21,-0.31l0.28,-0.05c0.44,-0.08 0.88,-0.3 1.24,-0.63c0.4,-0.37 2.22,-3.03 2.22,-3.24c0,-0.22 -1.82,-2.87 -2.22,-3.24c-0.36,-0.33 -0.8,-0.55 -1.24,-0.63l-0.28,-0.05l0.21,-0.32c0.21,-0.32 0.42,-1 0.42,-1.35c0,-0.28 -0.61,-3.5 -0.7,-3.66c-0.04,-0.07 -0.17,-0.16 -0.3,-0.2c-0.33,-0.11 -3.27,-0.65 -3.5,-0.65c-0.35,0 -1.03,0.22 -1.35,0.43l-0.32,0.2l-0.05,-0.27c-0.08,-0.45 -0.3,-0.88 -0.63,-1.24c-0.39,-0.42 -3.03,-2.23 -3.25,-2.22c-0.09,0 -0.77,0.41 -1.51,0.92zm2.77,1.02c0.66,0.45 1.27,0.92 1.38,1.06c0.21,0.29 0.34,0.78 0.34,1.32l0,0.37l-1.49,1.48l-1.48,1.48l-1.48,-1.48l-1.48,-1.48l0,-0.39c0,-0.54 0.11,-0.97 0.33,-1.28c0.11,-0.18 0.6,-0.55 1.38,-1.08c0.66,-0.45 1.23,-0.81 1.26,-0.81c0.03,0 0.58,0.36 1.24,0.81zm-6.18,2.33c0.13,0.07 0.4,0.28 0.61,0.48l0.37,0.36l0,2.07l0,2.06l-2.07,0l-2.07,0l-0.36,-0.37c-0.71,-0.73 -0.74,-0.91 -0.41,-2.66c0.14,-0.76 0.28,-1.43 0.31,-1.48c0.08,-0.15 2.61,-0.64 3.06,-0.6c0.18,0.01 0.44,0.08 0.56,0.14zm11.98,0.08c0.76,0.14 1.42,0.29 1.47,0.33c0.12,0.13 0.6,2.86 0.55,3.15c-0.07,0.38 -0.23,0.64 -0.62,1.04l-0.36,0.37l-2.07,0l-2.07,0l0,-2.06l0,-2.07l0.37,-0.36c0.46,-0.44 0.81,-0.64 1.22,-0.65c0.07,-0.01 0.75,0.11 1.51,0.25zm-8.19,4.45l-0.44,0.44l-0.69,0l-0.69,0l0,-1.57l0,-1.57l1.12,1.13l1.13,1.13l-0.43,0.44zm4.11,-1.11l0,1.55l-0.69,0l-0.69,0l-0.44,-0.44l-0.44,-0.44l1.11,-1.11c0.61,-0.61 1.12,-1.11 1.13,-1.11c0.01,0 0.02,0.7 0.02,1.55zm-2.39,1.96l0.55,0.55l0.9,0.03l0.9,0.04l0.04,0.9l0.03,0.9l0.56,0.56l0.57,0.57l-0.57,0.56l-0.56,0.57l-0.03,0.9l-0.04,0.9l-0.9,0.03l-0.9,0.04l-0.56,0.56l-0.57,0.56l-0.57,-0.56l-0.56,-0.56l-0.9,-0.04l-0.9,-0.03l-0.03,-0.9l-0.04,-0.9l-0.56,-0.57l-0.57,-0.56l0.57,-0.57l0.56,-0.56l0.04,-0.9l0.03,-0.9l0.9,-0.04l0.9,-0.03l0.55,-0.55c0.3,-0.3 0.56,-0.55 0.58,-0.55c0.02,0 0.28,0.25 0.58,0.55zm-7.6,2.07l1.48,1.48l-1.48,1.48l-1.48,1.48l-0.39,0c-0.54,0 -0.98,-0.11 -1.29,-0.33c-0.17,-0.11 -0.55,-0.6 -1.06,-1.35c-0.44,-0.65 -0.8,-1.21 -0.82,-1.25c-0.03,-0.12 1.58,-2.44 1.83,-2.64c0.29,-0.22 0.76,-0.35 1.3,-0.35l0.43,-0.01l1.48,1.49zm3.07,-0.8l0,0.69l-0.44,0.44l-0.45,0.44l-1.12,-1.13l-1.13,-1.13l1.57,0l1.57,0l0,0.69zm9.92,0.44l-1.13,1.13l-0.44,-0.44l-0.45,-0.44l0,-0.69l0,-0.69l1.57,0l1.57,0l-1.12,1.13zm3.63,-1.05c0.56,0.13 0.79,0.35 1.67,1.66l0.83,1.23l-0.83,1.22c-0.54,0.81 -0.91,1.29 -1.09,1.41c-0.31,0.22 -0.75,0.33 -1.29,0.33l-0.38,0l-1.49,-1.48l-1.48,-1.48l1.48,-1.48l1.49,-1.49l0.38,0c0.22,0.01 0.54,0.04 0.71,0.08zm-13.55,5.16l0,0.69l-1.57,0l-1.57,0l1.13,-1.13l1.12,-1.12l0.45,0.43l0.44,0.44l0,0.69zm9.92,-0.44l1.12,1.13l-1.57,0l-1.57,0l0,-0.68l0,-0.69l0.44,-0.44c0.24,-0.25 0.44,-0.45 0.44,-0.45c0.01,0 0.52,0.51 1.14,1.13zm-9.92,4.19l0,2.07l-0.37,0.36c-0.74,0.71 -0.91,0.74 -2.69,0.41c-0.78,-0.15 -1.46,-0.3 -1.5,-0.35c-0.13,-0.12 -0.61,-2.85 -0.56,-3.14c0.07,-0.38 0.23,-0.64 0.62,-1.05l0.36,-0.37l2.07,0l2.07,0l0,2.07zm2.81,-1.63l0.43,0.45l-1.13,1.12l-1.12,1.13l0,-1.57l0,-1.57l0.69,0l0.69,0l0.44,0.44zm4.11,1.13l0,1.57l-1.13,-1.13l-1.13,-1.12l0.44,-0.45l0.43,-0.44l0.7,0l0.69,0l0,1.57zm5.48,-1.2c0.39,0.41 0.55,0.67 0.62,1.05c0.05,0.29 -0.43,3.02 -0.55,3.14c-0.13,0.13 -2.86,0.61 -3.15,0.56c-0.38,-0.07 -0.64,-0.23 -1.05,-0.62l-0.37,-0.36l0,-2.07l0,-2.07l2.07,0l2.07,0l0.36,0.37zm-6.95,2.72l1.47,1.46l-0.01,0.39c0,0.54 -0.11,0.98 -0.32,1.29c-0.12,0.16 -0.62,0.56 -1.39,1.08l-1.21,0.82l-0.22,-0.11c-0.54,-0.3 -2.3,-1.58 -2.46,-1.8c-0.2,-0.27 -0.32,-0.77 -0.32,-1.3l0,-0.36l1.46,-1.47c0.81,-0.81 1.48,-1.46 1.5,-1.46c0.02,0 0.69,0.65 1.5,1.46z" fill="#000000" fill-rule="evenodd" id="svg_7" mask="url(#path-1-outside-1_79_82421)" stroke="url(#paint1_linear_79_82421)" stroke-width="0.4"/>
  </g>
 </g>
</svg>