<svg width="30" height="30" viewBox="0 0 30 30" fill="none" xmlns="http://www.w3.org/2000/svg">
<rect width="30" height="30" rx="5" fill="#171414"/>
<g clip-path="url(#clip0_93_121674)">
<path d="M23.125 9.56339C22.5271 9.8288 21.8846 10.0076 21.2102 10.0881C21.8988 9.67578 22.4276 9.0224 22.6761 8.24375C22.0322 8.62563 21.3185 8.90323 20.5589 9.05286C19.9515 8.4049 19.0842 8 18.1254 8C15.973 8 14.3913 10.0082 14.8774 12.093C12.1075 11.9542 9.65104 10.6271 8.00641 8.61005C7.13297 10.1084 7.55344 12.0686 9.0376 13.0612C8.49187 13.0436 7.97729 12.894 7.52839 12.6441C7.49182 14.1885 8.59885 15.6334 10.2022 15.955C9.73297 16.0823 9.21906 16.1121 8.69635 16.0119C9.12021 17.3363 10.3511 18.2998 11.8109 18.3269C10.4094 19.4258 8.64354 19.9167 6.875 19.7081C8.35036 20.654 10.1033 21.2058 11.9856 21.2058C18.1755 21.2058 21.6727 15.9781 21.4614 11.2893C22.1128 10.8187 22.6781 10.2317 23.125 9.56339Z" fill="white"/>
</g>
<defs>
<clipPath id="clip0_93_121674">
<rect width="17" height="14" fill="white" transform="translate(6.5 8)"/>
</clipPath>
</defs>
</svg>
