<svg width="36" height="36" viewBox="0 0 36 36" fill="none" xmlns="http://www.w3.org/2000/svg">
<rect x="3" y="32" width="26" height="19" rx="3" transform="rotate(-90 3 32)" fill="url(#paint0_linear_541_60674)" fill-opacity="0.85"/>
<rect x="3" y="32" width="26" height="19" rx="3" transform="rotate(-90 3 32)" fill="url(#paint1_linear_541_60674)" fill-opacity="0.85"/>
<rect x="3" y="32" width="26" height="19" rx="3" transform="rotate(-90 3 32)" fill="url(#paint2_linear_541_60674)" fill-opacity="0.86"/>
<path d="M16 19C16 20.3332 16.3807 21.6387 17.0974 22.7628C17.814 23.887 18.8368 24.7832 20.0454 25.3459C21.2541 25.9086 22.5982 26.1145 23.9199 25.9393C25.2415 25.7641 26.4856 25.2151 27.5059 24.357C28.5261 23.4988 29.2801 22.3671 29.6791 21.095C30.0781 19.823 30.1056 18.4634 29.7582 17.1762C29.4109 15.8891 28.7032 14.7279 27.7184 13.8293C26.7336 12.9306 25.5127 12.3319 24.1992 12.1035L23 19L16 19Z" fill="url(#paint3_linear_541_60674)" fill-opacity="0.85"/>
<path fill-rule="evenodd" clip-rule="evenodd" d="M22 19L22 25.9282C21.3269 25.8311 20.6682 25.6358 20.0454 25.3459C18.8368 24.7832 17.814 23.887 17.0974 22.7628C16.3807 21.6387 16 20.3332 16 19H22Z" fill="url(#paint4_linear_541_60674)" fill-opacity="0.86"/>
<path fill-rule="evenodd" clip-rule="evenodd" d="M22 19L22 25.9282C21.3269 25.8311 20.6682 25.6358 20.0454 25.3459C18.8368 24.7832 17.814 23.887 17.0974 22.7628C16.3807 21.6387 16 20.3332 16 19H22Z" fill="url(#paint5_linear_541_60674)" fill-opacity="0.55"/>
<defs>
<linearGradient id="paint0_linear_541_60674" x1="25.174" y1="30.3141" x2="8.52436" y2="43.2774" gradientUnits="userSpaceOnUse">
<stop stop-color="#A4FCFF"/>
<stop offset="0.597227" stop-color="#61D8FF"/>
</linearGradient>
<linearGradient id="paint1_linear_541_60674" x1="25.174" y1="30.3141" x2="8.52436" y2="43.2774" gradientUnits="userSpaceOnUse">
<stop stop-color="#A4FCFF"/>
<stop offset="0.597227" stop-color="#61D8FF"/>
</linearGradient>
<linearGradient id="paint2_linear_541_60674" x1="16" y1="32" x2="16" y2="51" gradientUnits="userSpaceOnUse">
<stop stop-color="#9E9CED"/>
<stop offset="1" stop-color="#706DEE"/>
</linearGradient>
<linearGradient id="paint3_linear_541_60674" x1="18.0602" y1="27.2423" x2="28.9385" y2="21.0528" gradientUnits="userSpaceOnUse">
<stop stop-color="#A4FCFF"/>
<stop offset="0.597227" stop-color="#61D8FF"/>
</linearGradient>
<linearGradient id="paint4_linear_541_60674" x1="22.9979" y1="25.9464" x2="22.9979" y2="11.9999" gradientUnits="userSpaceOnUse">
<stop stop-color="#9E9CED"/>
<stop offset="1" stop-color="#706DEE"/>
</linearGradient>
<linearGradient id="paint5_linear_541_60674" x1="19.3473" y1="10.9892" x2="18.9285" y2="25.9201" gradientUnits="userSpaceOnUse">
<stop offset="0.844085" stop-color="#0A14FF"/>
</linearGradient>
</defs>
</svg>
