<svg width="36" height="36" viewBox="0 0 36 36" fill="none" xmlns="http://www.w3.org/2000/svg">
<path d="M7.60156 5.28772C7.60156 3.63087 8.94471 2.28772 10.6016 2.28772H28.1097C29.7665 2.28772 31.1097 3.63087 31.1097 5.28772V28.6096C31.1097 30.0599 30.0722 31.3025 28.6453 31.5614L11.1372 34.7385C9.29598 35.0726 7.60156 33.658 7.60156 31.7867V5.28772Z" fill="url(#paint0_linear_541_60679)" fill-opacity="0.86"/>
<path d="M27.4531 31.7739L11.3343 34.7103C10.0465 34.9449 8.75531 34.3174 8.14395 33.16L4.04894 25.4074C3.14862 23.7029 4.0664 21.6039 5.92902 21.1074L18.5796 17.7357C20.0146 17.3532 21.5136 18.0784 22.1045 19.4409L27.4531 31.7739Z" fill="url(#paint1_linear_541_60679)" fill-opacity="0.85"/>
<mask id="mask0_541_60679" style="mask-type:alpha" maskUnits="userSpaceOnUse" x="3" y="17" width="25" height="18">
<path d="M27.4512 31.7739L11.3323 34.7103C10.0446 34.9449 8.75335 34.3174 8.14199 33.16L4.04699 25.4074C3.14667 23.7029 4.06444 21.6039 5.92706 21.1074L18.5776 17.7357C20.0127 17.3532 21.5116 18.0784 22.1025 19.4409L27.4512 31.7739Z" fill="#C4C4C4"/>
</mask>
<g mask="url(#mask0_541_60679)">
<rect x="7.50195" y="12.6907" width="23.6062" height="25.6962" fill="url(#paint2_linear_541_60679)" fill-opacity="0.55"/>
</g>
<defs>
<linearGradient id="paint0_linear_541_60679" x1="19.3556" y1="2.28772" x2="19.3556" y2="35.3801" gradientUnits="userSpaceOnUse">
<stop stop-color="#9E9CED"/>
<stop offset="1" stop-color="#706DEE"/>
</linearGradient>
<linearGradient id="paint1_linear_541_60679" x1="9.86251" y1="37.946" x2="20.4983" y2="23.837" gradientUnits="userSpaceOnUse">
<stop stop-color="#A4FCFF"/>
<stop offset="0.597227" stop-color="#61D8FF"/>
</linearGradient>
<linearGradient id="paint2_linear_541_60679" x1="20.6716" y1="-17.0207" x2="19.207" y2="38.3618" gradientUnits="userSpaceOnUse">
<stop offset="0.844085" stop-color="#0A14FF"/>
</linearGradient>
</defs>
</svg>
