<svg width="36" height="36" viewBox="0 0 36 36" fill="none" xmlns="http://www.w3.org/2000/svg">
<rect x="11.8105" y="34.8037" width="23.6194" height="16.9535" rx="3" transform="rotate(-120 11.8105 34.8037)" fill="url(#paint0_linear_541_60663)" fill-opacity="0.85"/>
<rect x="11.666" y="26.9154" width="23.6194" height="16.9534" rx="2" transform="rotate(-75 11.666 26.9154)" fill="url(#paint1_linear_541_60663)" fill-opacity="0.85"/>
<rect x="11.666" y="26.9154" width="23.6194" height="16.9534" rx="2" transform="rotate(-75 11.666 26.9154)" fill="url(#paint2_linear_541_60663)" fill-opacity="0.86"/>
<path fill-rule="evenodd" clip-rule="evenodd" d="M16.4637 8.95884L24.9911 23.7289C25.8196 25.1637 25.3279 26.9985 23.893 27.8269L21.0925 29.4438L13.5402 27.423C12.4708 27.1369 11.8373 26.0365 12.1267 24.9681L16.4637 8.95884Z" fill="url(#paint3_linear_541_60663)" fill-opacity="0.55"/>
<defs>
<linearGradient id="paint0_linear_541_60663" x1="31.9542" y1="33.2994" x2="17.0348" y2="45.1259" gradientUnits="userSpaceOnUse">
<stop stop-color="#A4FCFF"/>
<stop offset="0.597227" stop-color="#61D8FF"/>
</linearGradient>
<linearGradient id="paint1_linear_541_60663" x1="31.8097" y1="25.4111" x2="16.8902" y2="37.2376" gradientUnits="userSpaceOnUse">
<stop stop-color="#A4FCFF"/>
<stop offset="0.597227" stop-color="#61D8FF"/>
</linearGradient>
<linearGradient id="paint2_linear_541_60663" x1="23.4757" y1="26.9154" x2="23.4757" y2="43.8689" gradientUnits="userSpaceOnUse">
<stop stop-color="#9E9CED"/>
<stop offset="1" stop-color="#706DEE"/>
</linearGradient>
<linearGradient id="paint3_linear_541_60663" x1="-3.36427" y1="18.0154" x2="25.3935" y2="18.4703" gradientUnits="userSpaceOnUse">
<stop offset="0.844085" stop-color="#0A14FF"/>
</linearGradient>
</defs>
</svg>
